<?xml version="1.0" encoding="UTF-8" standalone="no"?>
<!DOCTYPE svg PUBLIC "-//W3C//DTD SVG 1.1//EN"
 "http://www.w3.org/Graphics/SVG/1.1/DTD/svg11.dtd">
<!-- Generated by graphviz version 2.50.0 (20211204.2007)
 -->
<!-- Title: de.backxtar.clevercharge.services.MessageService.sendToast Pages: 1 -->
<svg width="383pt" height="149pt"
 viewBox="0.00 0.00 383.00 148.50" xmlns="http://www.w3.org/2000/svg" xmlns:xlink="http://www.w3.org/1999/xlink">
<g id="graph0" class="graph" transform="scale(1 1) rotate(0) translate(4 144.5)">
<title>de.backxtar.clevercharge.services.MessageService.sendToast</title>
<polygon fill="white" stroke="transparent" points="-4,4 -4,-144.5 379,-144.5 379,4 -4,4"/>
<!-- Node1 -->
<g id="node1" class="node">
<title>Node1</title>
<g id="a_node1"><a xlink:title=" ">
<polygon fill="#bfbfbf" stroke="black" points="209,-61 209,-91 375,-91 375,-61 209,-61"/>
<text text-anchor="start" x="217" y="-79" font-family="Helvetica,sans-Serif" font-size="10.00">de.backxtar.clevercharge.services.</text>
<text text-anchor="middle" x="292" y="-68" font-family="Helvetica,sans-Serif" font-size="10.00">MessageService.sendToast</text>
</a>
</g>
</g>
<!-- Node2 -->
<g id="node2" class="node">
<title>Node2</title>
<g id="a_node2"><a xlink:href="$d5/d2c/classde_1_1backxtar_1_1clevercharge_1_1_loading_screen.html#a3576280bfc02203be6c9d13d4bfe3957" xlink:title=" ">
<polygon fill="white" stroke="black" points="22.5,-110 22.5,-140 150.5,-140 150.5,-110 22.5,-110"/>
<text text-anchor="start" x="30.5" y="-128" font-family="Helvetica,sans-Serif" font-size="10.00">de.backxtar.clevercharge.</text>
<text text-anchor="middle" x="86.5" y="-117" font-family="Helvetica,sans-Serif" font-size="10.00">LoadingScreen.onCreate</text>
</a>
</g>
</g>
<!-- Node1&#45;&gt;Node2 -->
<g id="edge1" class="edge">
<title>Node1&#45;&gt;Node2</title>
<path fill="none" stroke="midnightblue" d="M218.72,-93.4C196.21,-98.82 171.59,-104.75 149.82,-109.99"/>
<polygon fill="midnightblue" stroke="midnightblue" points="219.66,-96.78 228.56,-91.03 218.02,-89.97 219.66,-96.78"/>
</g>
<!-- Node3 -->
<g id="node3" class="node">
<title>Node3</title>
<g id="a_node3"><a xlink:href="$db/d96/classde_1_1backxtar_1_1clevercharge_1_1_login.html#a24ca4a6d588d025fb2caba526586d45b" xlink:title=" ">
<polygon fill="white" stroke="black" points="22.5,-61 22.5,-91 150.5,-91 150.5,-61 22.5,-61"/>
<text text-anchor="start" x="30.5" y="-79" font-family="Helvetica,sans-Serif" font-size="10.00">de.backxtar.clevercharge.</text>
<text text-anchor="middle" x="86.5" y="-68" font-family="Helvetica,sans-Serif" font-size="10.00">Login.onCreate</text>
</a>
</g>
</g>
<!-- Node1&#45;&gt;Node3 -->
<g id="edge2" class="edge">
<title>Node1&#45;&gt;Node3</title>
<path fill="none" stroke="midnightblue" d="M198.73,-76C182.45,-76 165.83,-76 150.58,-76"/>
<polygon fill="midnightblue" stroke="midnightblue" points="198.82,-79.5 208.82,-76 198.82,-72.5 198.82,-79.5"/>
</g>
<!-- Node4 -->
<g id="node4" class="node">
<title>Node4</title>
<g id="a_node4"><a xlink:href="$d9/dac/classde_1_1backxtar_1_1clevercharge_1_1_main_activity.html#a79ddb017931d77b8d847d49000411967" xlink:title=" ">
<polygon fill="white" stroke="black" points="0,-0.5 0,-41.5 173,-41.5 173,-0.5 0,-0.5"/>
<text text-anchor="start" x="8" y="-29.5" font-family="Helvetica,sans-Serif" font-size="10.00">de.backxtar.clevercharge.</text>
<text text-anchor="start" x="8" y="-18.5" font-family="Helvetica,sans-Serif" font-size="10.00">MainActivity.onRequestPermissions</text>
<text text-anchor="middle" x="86.5" y="-7.5" font-family="Helvetica,sans-Serif" font-size="10.00">Result</text>
</a>
</g>
</g>
<!-- Node1&#45;&gt;Node4 -->
<g id="edge3" class="edge">
<title>Node1&#45;&gt;Node4</title>
<path fill="none" stroke="midnightblue" d="M225.59,-58.32C205.85,-52.99 184.01,-47.08 163.64,-41.58"/>
<polygon fill="midnightblue" stroke="midnightblue" points="224.83,-61.74 235.39,-60.97 226.65,-54.98 224.83,-61.74"/>
</g>
</g>
</svg>
