<?xml version="1.0" encoding="UTF-8" standalone="no"?>
<!DOCTYPE svg PUBLIC "-//W3C//DTD SVG 1.1//EN"
 "http://www.w3.org/Graphics/SVG/1.1/DTD/svg11.dtd">
<!-- Generated by graphviz version 2.50.0 (20211204.2007)
 -->
<!-- Title: de.backxtar.clevercharge.data.ChargingStationAdapter.ViewHolder Pages: 1 -->
<svg width="247pt" height="193pt"
 viewBox="0.00 0.00 247.00 193.00" xmlns="http://www.w3.org/2000/svg" xmlns:xlink="http://www.w3.org/1999/xlink">
<g id="graph0" class="graph" transform="scale(1 1) rotate(0) translate(4 189)">
<title>de.backxtar.clevercharge.data.ChargingStationAdapter.ViewHolder</title>
<polygon fill="white" stroke="transparent" points="-4,4 -4,-189 243,-189 243,4 -4,4"/>
<!-- Node1 -->
<g id="node1" class="node">
<title>Node1</title>
<g id="a_node1"><a xlink:title=" ">
<polygon fill="#bfbfbf" stroke="black" points="33.5,-0.5 33.5,-68.5 204.5,-68.5 204.5,-0.5 33.5,-0.5"/>
<text text-anchor="start" x="41.5" y="-56.5" font-family="Helvetica,sans-Serif" font-size="10.00">de.backxtar.clevercharge.data.</text>
<text text-anchor="middle" x="119" y="-45.5" font-family="Helvetica,sans-Serif" font-size="10.00">ChargingStationAdapter.ViewHolder</text>
<polyline fill="none" stroke="black" points="33.5,-38.5 204.5,-38.5 "/>
<text text-anchor="middle" x="119" y="-26.5" font-family="Helvetica,sans-Serif" font-size="10.00"> </text>
<polyline fill="none" stroke="black" points="33.5,-19.5 204.5,-19.5 "/>
<text text-anchor="start" x="41.5" y="-7.5" font-family="Helvetica,sans-Serif" font-size="10.00">+ ViewHolder()</text>
</a>
</g>
</g>
<!-- Node2 -->
<g id="node2" class="node">
<title>Node2</title>
<g id="a_node2"><a xlink:title=" ">
<polygon fill="white" stroke="black" points="0,-127.5 0,-184.5 128,-184.5 128,-127.5 0,-127.5"/>
<text text-anchor="middle" x="64" y="-172.5" font-family="Helvetica,sans-Serif" font-size="10.00">RecyclerView.ViewHolder</text>
<polyline fill="none" stroke="black" points="0,-165.5 128,-165.5 "/>
<text text-anchor="middle" x="64" y="-153.5" font-family="Helvetica,sans-Serif" font-size="10.00"> </text>
<polyline fill="none" stroke="black" points="0,-146.5 128,-146.5 "/>
<text text-anchor="middle" x="64" y="-134.5" font-family="Helvetica,sans-Serif" font-size="10.00"> </text>
</a>
</g>
</g>
<!-- Node2&#45;&gt;Node1 -->
<g id="edge1" class="edge">
<title>Node2&#45;&gt;Node1</title>
<path fill="none" stroke="midnightblue" d="M81.1,-117.84C88.35,-102.09 96.74,-83.87 103.77,-68.59"/>
<polygon fill="none" stroke="midnightblue" points="77.76,-116.74 76.76,-127.28 84.12,-119.66 77.76,-116.74"/>
</g>
<!-- Node3 -->
<g id="node3" class="node">
<title>Node3</title>
<g id="a_node3"><a xlink:title=" ">
<polygon fill="white" stroke="black" points="146,-127.5 146,-184.5 202,-184.5 202,-127.5 146,-127.5"/>
<text text-anchor="middle" x="174" y="-172.5" font-family="Helvetica,sans-Serif" font-size="10.00">TextView</text>
<polyline fill="none" stroke="black" points="146,-165.5 202,-165.5 "/>
<text text-anchor="middle" x="174" y="-153.5" font-family="Helvetica,sans-Serif" font-size="10.00"> </text>
<polyline fill="none" stroke="black" points="146,-146.5 202,-146.5 "/>
<text text-anchor="middle" x="174" y="-134.5" font-family="Helvetica,sans-Serif" font-size="10.00"> </text>
</a>
</g>
</g>
<!-- Node3&#45;&gt;Node1 -->
<g id="edge2" class="edge">
<title>Node3&#45;&gt;Node1</title>
<path fill="none" stroke="#404040" d="M161.24,-127.28C154.76,-113.19 146.72,-95.72 139.4,-79.82"/>
<polygon fill="none" stroke="#404040" points="139.25,-79.49 133.1,-75.71 134.23,-68.59 140.37,-72.37 139.25,-79.49"/>
<text text-anchor="start" x="151" y="-101" font-family="Helvetica,sans-Serif" font-size="10.00"> +operator, location,</text>
<text text-anchor="middle" x="195" y="-90" font-family="Helvetica,sans-Serif" font-size="10.00"> conn</text>
</g>
</g>
</svg>
