<?xml version="1.0" encoding="UTF-8" standalone="no"?>
<!DOCTYPE svg PUBLIC "-//W3C//DTD SVG 1.1//EN"
 "http://www.w3.org/Graphics/SVG/1.1/DTD/svg11.dtd">
<!-- Generated by graphviz version 2.50.0 (20211204.2007)
 -->
<!-- Title: de.backxtar.clevercharge.Login Pages: 1 -->
<svg width="136pt" height="182pt"
 viewBox="0.00 0.00 136.00 182.00" xmlns="http://www.w3.org/2000/svg" xmlns:xlink="http://www.w3.org/1999/xlink">
<g id="graph0" class="graph" transform="scale(1 1) rotate(0) translate(4 178)">
<title>de.backxtar.clevercharge.Login</title>
<polygon fill="white" stroke="transparent" points="-4,4 -4,-178 132,-178 132,4 -4,4"/>
<!-- Node1 -->
<g id="node1" class="node">
<title>Node1</title>
<g id="a_node1"><a xlink:title=" ">
<polygon fill="#bfbfbf" stroke="black" points="0,-0.5 0,-79.5 128,-79.5 128,-0.5 0,-0.5"/>
<text text-anchor="start" x="8" y="-67.5" font-family="Helvetica,sans-Serif" font-size="10.00">de.backxtar.clevercharge.</text>
<text text-anchor="middle" x="64" y="-56.5" font-family="Helvetica,sans-Serif" font-size="10.00">Login</text>
<polyline fill="none" stroke="black" points="0,-49.5 128,-49.5 "/>
<text text-anchor="middle" x="64" y="-37.5" font-family="Helvetica,sans-Serif" font-size="10.00"> </text>
<polyline fill="none" stroke="black" points="0,-30.5 128,-30.5 "/>
<text text-anchor="start" x="8" y="-18.5" font-family="Helvetica,sans-Serif" font-size="10.00">+ onBackPressed()</text>
<text text-anchor="start" x="8" y="-7.5" font-family="Helvetica,sans-Serif" font-size="10.00"># onCreate()</text>
</a>
</g>
</g>
<!-- Node2 -->
<g id="node2" class="node">
<title>Node2</title>
<g id="a_node2"><a xlink:title=" ">
<polygon fill="white" stroke="black" points="14.5,-116.5 14.5,-173.5 113.5,-173.5 113.5,-116.5 14.5,-116.5"/>
<text text-anchor="middle" x="64" y="-161.5" font-family="Helvetica,sans-Serif" font-size="10.00">AppCompatActivity</text>
<polyline fill="none" stroke="black" points="14.5,-154.5 113.5,-154.5 "/>
<text text-anchor="middle" x="64" y="-142.5" font-family="Helvetica,sans-Serif" font-size="10.00"> </text>
<polyline fill="none" stroke="black" points="14.5,-135.5 113.5,-135.5 "/>
<text text-anchor="middle" x="64" y="-123.5" font-family="Helvetica,sans-Serif" font-size="10.00"> </text>
</a>
</g>
</g>
<!-- Node2&#45;&gt;Node1 -->
<g id="edge1" class="edge">
<title>Node2&#45;&gt;Node1</title>
<path fill="none" stroke="midnightblue" d="M64,-106.16C64,-97.47 64,-88.23 64,-79.52"/>
<polygon fill="none" stroke="midnightblue" points="60.5,-106.4 64,-116.4 67.5,-106.4 60.5,-106.4"/>
</g>
</g>
</svg>
