<?xml version="1.0" encoding="UTF-8" standalone="no"?>
<!DOCTYPE svg PUBLIC "-//W3C//DTD SVG 1.1//EN"
 "http://www.w3.org/Graphics/SVG/1.1/DTD/svg11.dtd">
<!-- Generated by graphviz version 2.50.0 (20211204.2007)
 -->
<!-- Title: de.backxtar.clevercharge.managers.StationManager.getDefects Pages: 1 -->
<svg width="401pt" height="88pt"
 viewBox="0.00 0.00 401.00 88.00" xmlns="http://www.w3.org/2000/svg" xmlns:xlink="http://www.w3.org/1999/xlink">
<g id="graph0" class="graph" transform="scale(1 1) rotate(0) translate(4 84)">
<title>de.backxtar.clevercharge.managers.StationManager.getDefects</title>
<polygon fill="white" stroke="transparent" points="-4,4 -4,-84 397,-84 397,4 -4,4"/>
<!-- Node1 -->
<g id="node1" class="node">
<title>Node1</title>
<g id="a_node1"><a xlink:title=" ">
<polygon fill="#bfbfbf" stroke="black" points="0,-24.5 0,-54.5 173,-54.5 173,-24.5 0,-24.5"/>
<text text-anchor="start" x="8" y="-42.5" font-family="Helvetica,sans-Serif" font-size="10.00">de.backxtar.clevercharge.managers.</text>
<text text-anchor="middle" x="86.5" y="-31.5" font-family="Helvetica,sans-Serif" font-size="10.00">StationManager.getDefects</text>
</a>
</g>
</g>
<!-- Node2 -->
<g id="node2" class="node">
<title>Node2</title>
<g id="a_node2"><a xlink:href="$de/d7e/classde_1_1backxtar_1_1clevercharge_1_1managers_1_1_user_manager.html#aa4e7c73b0bb07f0dcf5a612f9bce416a" xlink:title=" ">
<polygon fill="white" stroke="black" points="214.5,-49.5 214.5,-79.5 387.5,-79.5 387.5,-49.5 214.5,-49.5"/>
<text text-anchor="start" x="222.5" y="-67.5" font-family="Helvetica,sans-Serif" font-size="10.00">de.backxtar.clevercharge.managers.</text>
<text text-anchor="middle" x="301" y="-56.5" font-family="Helvetica,sans-Serif" font-size="10.00">UserManager.getApi_data</text>
</a>
</g>
</g>
<!-- Node1&#45;&gt;Node2 -->
<g id="edge1" class="edge">
<title>Node1&#45;&gt;Node2</title>
<path fill="none" stroke="midnightblue" d="M173.01,-49.56C183.33,-50.77 193.91,-52.02 204.36,-53.25"/>
<polygon fill="midnightblue" stroke="midnightblue" points="203.98,-56.73 214.32,-54.42 204.79,-49.77 203.98,-56.73"/>
</g>
<!-- Node3 -->
<g id="node3" class="node">
<title>Node3</title>
<g id="a_node3"><a xlink:href="$d0/dbd/classde_1_1backxtar_1_1clevercharge_1_1data_1_1_a_p_i_response.html#a6a9d3a50e360265ecef575ebfaefcc4c" xlink:title=" ">
<polygon fill="white" stroke="black" points="209,-0.5 209,-30.5 393,-30.5 393,-0.5 209,-0.5"/>
<text text-anchor="start" x="217" y="-18.5" font-family="Helvetica,sans-Serif" font-size="10.00">de.backxtar.clevercharge.data.</text>
<text text-anchor="middle" x="301" y="-7.5" font-family="Helvetica,sans-Serif" font-size="10.00">APIResponse.getDefect_stations_map</text>
</a>
</g>
</g>
<!-- Node1&#45;&gt;Node3 -->
<g id="edge2" class="edge">
<title>Node1&#45;&gt;Node3</title>
<path fill="none" stroke="midnightblue" d="M173.01,-29.84C181.47,-28.89 190.11,-27.91 198.7,-26.94"/>
<polygon fill="midnightblue" stroke="midnightblue" points="199.21,-30.41 208.75,-25.81 198.43,-23.45 199.21,-30.41"/>
</g>
</g>
</svg>
