<?xml version="1.0" encoding="UTF-8" standalone="no"?>
<!DOCTYPE svg PUBLIC "-//W3C//DTD SVG 1.1//EN"
 "http://www.w3.org/Graphics/SVG/1.1/DTD/svg11.dtd">
<!-- Generated by graphviz version 2.50.0 (20211204.2007)
 -->
<!-- Title: de.backxtar.clevercharge.managers.StationManager.sortByFavAndLocal Pages: 1 -->
<svg width="390pt" height="186pt"
 viewBox="0.00 0.00 390.00 186.00" xmlns="http://www.w3.org/2000/svg" xmlns:xlink="http://www.w3.org/1999/xlink">
<g id="graph0" class="graph" transform="scale(1 1) rotate(0) translate(4 182)">
<title>de.backxtar.clevercharge.managers.StationManager.sortByFavAndLocal</title>
<polygon fill="white" stroke="transparent" points="-4,4 -4,-182 386,-182 386,4 -4,4"/>
<!-- Node1 -->
<g id="node1" class="node">
<title>Node1</title>
<g id="a_node1"><a xlink:title=" ">
<polygon fill="#bfbfbf" stroke="black" points="0,-73.5 0,-103.5 173,-103.5 173,-73.5 0,-73.5"/>
<text text-anchor="start" x="8" y="-91.5" font-family="Helvetica,sans-Serif" font-size="10.00">de.backxtar.clevercharge.managers.</text>
<text text-anchor="middle" x="86.5" y="-80.5" font-family="Helvetica,sans-Serif" font-size="10.00">StationManager.sortByFavAndLocal</text>
</a>
</g>
</g>
<!-- Node2 -->
<g id="node2" class="node">
<title>Node2</title>
<g id="a_node2"><a xlink:href="$de/d7e/classde_1_1backxtar_1_1clevercharge_1_1managers_1_1_user_manager.html#aa4e7c73b0bb07f0dcf5a612f9bce416a" xlink:title=" ">
<polygon fill="white" stroke="black" points="209,-147.5 209,-177.5 382,-177.5 382,-147.5 209,-147.5"/>
<text text-anchor="start" x="217" y="-165.5" font-family="Helvetica,sans-Serif" font-size="10.00">de.backxtar.clevercharge.managers.</text>
<text text-anchor="middle" x="295.5" y="-154.5" font-family="Helvetica,sans-Serif" font-size="10.00">UserManager.getApi_data</text>
</a>
</g>
</g>
<!-- Node1&#45;&gt;Node2 -->
<g id="edge1" class="edge">
<title>Node1&#45;&gt;Node2</title>
<path fill="none" stroke="midnightblue" d="M121.14,-103.58C145.3,-114.11 178.81,-128.09 209,-138.5 214.93,-140.54 221.14,-142.55 227.38,-144.47"/>
<polygon fill="midnightblue" stroke="midnightblue" points="226.6,-147.89 237.18,-147.41 228.61,-141.18 226.6,-147.89"/>
</g>
<!-- Node3 -->
<g id="node3" class="node">
<title>Node3</title>
<g id="a_node3"><a xlink:href="$d0/dbd/classde_1_1backxtar_1_1clevercharge_1_1data_1_1_a_p_i_response.html#a1dfa2252e57d3dedcafcd225e709be7f" xlink:title=" ">
<polygon fill="white" stroke="black" points="221,-98.5 221,-128.5 370,-128.5 370,-98.5 221,-98.5"/>
<text text-anchor="start" x="229" y="-116.5" font-family="Helvetica,sans-Serif" font-size="10.00">de.backxtar.clevercharge.data.</text>
<text text-anchor="middle" x="295.5" y="-105.5" font-family="Helvetica,sans-Serif" font-size="10.00">APIResponse.getFavorites</text>
</a>
</g>
</g>
<!-- Node1&#45;&gt;Node3 -->
<g id="edge2" class="edge">
<title>Node1&#45;&gt;Node3</title>
<path fill="none" stroke="midnightblue" d="M173.19,-98.85C185.53,-100.34 198.22,-101.87 210.52,-103.36"/>
<polygon fill="midnightblue" stroke="midnightblue" points="210.4,-106.87 220.75,-104.59 211.24,-99.92 210.4,-106.87"/>
</g>
<!-- Node4 -->
<g id="node4" class="node">
<title>Node4</title>
<g id="a_node4"><a xlink:href="$de/d7e/classde_1_1backxtar_1_1clevercharge_1_1managers_1_1_user_manager.html#ae4f909b33cee9349c04878d1106de0cb" xlink:title=" ">
<polygon fill="white" stroke="black" points="209,-49.5 209,-79.5 382,-79.5 382,-49.5 209,-49.5"/>
<text text-anchor="start" x="217" y="-67.5" font-family="Helvetica,sans-Serif" font-size="10.00">de.backxtar.clevercharge.managers.</text>
<text text-anchor="middle" x="295.5" y="-56.5" font-family="Helvetica,sans-Serif" font-size="10.00">UserManager.getMyPosition</text>
</a>
</g>
</g>
<!-- Node1&#45;&gt;Node4 -->
<g id="edge3" class="edge">
<title>Node1&#45;&gt;Node4</title>
<path fill="none" stroke="midnightblue" d="M173.19,-78.57C181.66,-77.58 190.3,-76.58 198.87,-75.59"/>
<polygon fill="midnightblue" stroke="midnightblue" points="199.34,-79.06 208.88,-74.43 198.54,-72.1 199.34,-79.06"/>
</g>
<!-- Node5 -->
<g id="node5" class="node">
<title>Node5</title>
<g id="a_node5"><a xlink:href="$d2/d96/classde_1_1backxtar_1_1clevercharge_1_1managers_1_1_station_manager.html#a21dbe93b9bbd9b272c9ba5dcf34d535d" xlink:title=" ">
<polygon fill="white" stroke="black" points="209,-0.5 209,-30.5 382,-30.5 382,-0.5 209,-0.5"/>
<text text-anchor="start" x="217" y="-18.5" font-family="Helvetica,sans-Serif" font-size="10.00">de.backxtar.clevercharge.managers.</text>
<text text-anchor="middle" x="295.5" y="-7.5" font-family="Helvetica,sans-Serif" font-size="10.00">StationManager.sort</text>
</a>
</g>
</g>
<!-- Node1&#45;&gt;Node5 -->
<g id="edge4" class="edge">
<title>Node1&#45;&gt;Node5</title>
<path fill="none" stroke="midnightblue" d="M123.06,-73.45C147.12,-63.52 179.72,-50.54 209,-40.5 215.84,-38.15 223.03,-35.83 230.22,-33.6"/>
<polygon fill="midnightblue" stroke="midnightblue" points="231.44,-36.89 239.99,-30.63 229.4,-30.19 231.44,-36.89"/>
</g>
</g>
</svg>
