<?xml version="1.0" encoding="UTF-8" standalone="no"?>
<!DOCTYPE svg PUBLIC "-//W3C//DTD SVG 1.1//EN"
 "http://www.w3.org/Graphics/SVG/1.1/DTD/svg11.dtd">
<!-- Generated by graphviz version 2.50.0 (20211204.2007)
 -->
<!-- Title: de.backxtar.clevercharge.fragmentsMain.SearchFragment.onItemClick Pages: 1 -->
<!--zoomable 755 -->
<svg id="main" version="1.1" xmlns="http://www.w3.org/2000/svg" xmlns:xlink="http://www.w3.org/1999/xlink" xml:space="preserve" onload="init(evt)">
<style type="text/css"><![CDATA[
.edge:hover path { stroke: red; }
.edge:hover polygon { stroke: red; fill: red; }
]]></style>
<script type="text/javascript"><![CDATA[
var edges = document.getElementsByTagName('g');
if (edges && edges.length) {
  for (var i=0;i<edges.length;i++) {
    if (edges[i].id.substr(0,4)=='edge') {
      edges[i].setAttribute('class','edge');
    }
  }
}
]]></script>
        <defs>
                <circle id="rim" cx="0" cy="0" r="7"/>
                <circle id="rim2" cx="0" cy="0" r="3.5"/>
                <g id="zoomPlus">
                        <use xlink:href="#rim" fill="#404040">
                                <set attributeName="fill" to="#808080" begin="zoomplus.mouseover" end="zoomplus.mouseout"/>
                        </use>
                        <path d="M-4,0h8M0,-4v8" fill="none" stroke="white" stroke-width="1.5" pointer-events="none"/>
                </g>
                <g id="zoomMin">
                        <use xlink:href="#rim" fill="#404040">
                                <set attributeName="fill" to="#808080" begin="zoomminus.mouseover" end="zoomminus.mouseout"/>
                        </use>
                        <path d="M-4,0h8" fill="none" stroke="white" stroke-width="1.5" pointer-events="none"/>
                </g>
                <g id="dirArrow">
                        <path fill="none" stroke="white" stroke-width="1.5" d="M0,-3.0v7 M-2.5,-0.5L0,-3.0L2.5,-0.5"/>
                </g>
               <g id="resetDef">
                       <use xlink:href="#rim2" fill="#404040">
                               <set attributeName="fill" to="#808080" begin="reset.mouseover" end="reset.mouseout"/>
                       </use>
               </g>
        </defs>

<script type="text/javascript">
var viewWidth = 809;
var viewHeight = 755;
var sectionId = 'dynsection-3';
</script>
<script xlink:href="../../svgpan.js"/>
<svg id="graph" class="graph">
<g id="viewport">
<title>de.backxtar.clevercharge.fragmentsMain.SearchFragment.onItemClick</title>
<polygon fill="white" stroke="transparent" points="-4,4 -4,-751 805,-751 805,4 -4,4"/>
<!-- Node1 -->
<g id="node1" class="node">
<title>Node1</title>
<g id="a_node1"><a xlink:title=" ">
<polygon fill="#bfbfbf" stroke="black" points="0,-379.5 0,-409.5 170,-409.5 170,-379.5 0,-379.5"/>
<text text-anchor="start" x="8" y="-397.5" font-family="Helvetica,sans-Serif" font-size="10.00">de.backxtar.clevercharge.fragments</text>
<text text-anchor="middle" x="85" y="-386.5" font-family="Helvetica,sans-Serif" font-size="10.00">Main.SearchFragment.onItemClick</text>
</a>
</g>
</g>
<!-- Node2 -->
<g id="node2" class="node">
<title>Node2</title>
<g id="a_node2"><a xlink:href="../../d9/dc7/classde_1_1backxtar_1_1clevercharge_1_1services_1_1_popup_service.html#af74f3ec6cd6fb55d81a1938af49efdd8" target="_top" xlink:title=" ">
<polygon fill="white" stroke="black" points="206,-379.5 206,-409.5 372,-409.5 372,-379.5 206,-379.5"/>
<text text-anchor="start" x="214" y="-397.5" font-family="Helvetica,sans-Serif" font-size="10.00">de.backxtar.clevercharge.services.</text>
<text text-anchor="middle" x="289" y="-386.5" font-family="Helvetica,sans-Serif" font-size="10.00">PopupService.showPopup</text>
</a>
</g>
</g>
<!-- Node1&#45;&gt;Node2 -->
<g id="edge1" class="edge">
<title>Node1&#45;&gt;Node2</title>
<path fill="none" stroke="midnightblue" d="M170.2,-394.5C178.59,-394.5 187.14,-394.5 195.61,-394.5"/>
<polygon fill="midnightblue" stroke="midnightblue" points="195.88,-398 205.88,-394.5 195.88,-391 195.88,-398"/>
</g>
<!-- Node3 -->
<g id="node3" class="node">
<title>Node3</title>
<g id="a_node3"><a xlink:href="../../d7/dd4/classde_1_1backxtar_1_1clevercharge_1_1fragments_main_1_1_map_fragment.html#aebc41ff63d2d8d9bceb12853e7709f77" target="_top" xlink:title=" ">
<polygon fill="white" stroke="black" points="408,-716.5 408,-746.5 581,-746.5 581,-716.5 408,-716.5"/>
<text text-anchor="start" x="416" y="-734.5" font-family="Helvetica,sans-Serif" font-size="10.00">de.backxtar.clevercharge.fragments</text>
<text text-anchor="middle" x="494.5" y="-723.5" font-family="Helvetica,sans-Serif" font-size="10.00">Main.MapFragment.bitMapFromPng</text>
</a>
</g>
</g>
<!-- Node2&#45;&gt;Node3 -->
<g id="edge2" class="edge">
<title>Node2&#45;&gt;Node3</title>
<path fill="none" stroke="midnightblue" d="M291.41,-409.71C296.78,-459.04 320.33,-616.38 408,-701.5 411.95,-705.34 416.42,-708.68 421.19,-711.6"/>
<polygon fill="midnightblue" stroke="midnightblue" points="419.6,-714.72 430.06,-716.42 422.94,-708.57 419.6,-714.72"/>
</g>
<!-- Node4 -->
<g id="node4" class="node">
<title>Node4</title>
<g id="a_node4"><a xlink:href="../../de/d7e/classde_1_1backxtar_1_1clevercharge_1_1managers_1_1_user_manager.html#aa4e7c73b0bb07f0dcf5a612f9bce416a" target="_top" xlink:title=" ">
<polygon fill="white" stroke="black" points="622.5,-668.5 622.5,-698.5 795.5,-698.5 795.5,-668.5 622.5,-668.5"/>
<text text-anchor="start" x="630.5" y="-686.5" font-family="Helvetica,sans-Serif" font-size="10.00">de.backxtar.clevercharge.managers.</text>
<text text-anchor="middle" x="709" y="-675.5" font-family="Helvetica,sans-Serif" font-size="10.00">UserManager.getApi_data</text>
</a>
</g>
</g>
<!-- Node2&#45;&gt;Node4 -->
<g id="edge3" class="edge">
<title>Node2&#45;&gt;Node4</title>
<path fill="none" stroke="midnightblue" d="M291.2,-409.77C295.87,-457.68 317.39,-605.57 408,-668.5 473.66,-714.1 568.26,-710.47 633.59,-700.21"/>
<polygon fill="midnightblue" stroke="midnightblue" points="634.53,-703.61 643.82,-698.52 633.38,-696.7 634.53,-703.61"/>
</g>
<!-- Node5 -->
<g id="node5" class="node">
<title>Node5</title>
<g id="a_node5"><a xlink:href="../../d2/dae/classde_1_1backxtar_1_1clevercharge_1_1data_1_1_charging_station.html#a70b83589966d095b6b632a3d1e3d89d9" target="_top" xlink:title=" ">
<polygon fill="white" stroke="black" points="417,-502.5 417,-532.5 572,-532.5 572,-502.5 417,-502.5"/>
<text text-anchor="start" x="425" y="-520.5" font-family="Helvetica,sans-Serif" font-size="10.00">de.backxtar.clevercharge.data.</text>
<text text-anchor="middle" x="494.5" y="-509.5" font-family="Helvetica,sans-Serif" font-size="10.00">ChargingStation.getConn_power</text>
</a>
</g>
</g>
<!-- Node2&#45;&gt;Node5 -->
<g id="edge4" class="edge">
<title>Node2&#45;&gt;Node5</title>
<path fill="none" stroke="midnightblue" d="M304.18,-409.69C324.99,-431.12 365.91,-470.12 408,-492.5 412.22,-494.74 416.66,-496.81 421.21,-498.7"/>
<polygon fill="midnightblue" stroke="midnightblue" points="420.09,-502.02 430.68,-502.37 422.61,-495.49 420.09,-502.02"/>
</g>
<!-- Node6 -->
<g id="node6" class="node">
<title>Node6</title>
<g id="a_node6"><a xlink:href="../../d0/dbd/classde_1_1backxtar_1_1clevercharge_1_1data_1_1_a_p_i_response.html#a6a9d3a50e360265ecef575ebfaefcc4c" target="_top" xlink:title=" ">
<polygon fill="white" stroke="black" points="617,-612.5 617,-642.5 801,-642.5 801,-612.5 617,-612.5"/>
<text text-anchor="start" x="625" y="-630.5" font-family="Helvetica,sans-Serif" font-size="10.00">de.backxtar.clevercharge.data.</text>
<text text-anchor="middle" x="709" y="-619.5" font-family="Helvetica,sans-Serif" font-size="10.00">APIResponse.getDefect_stations_map</text>
</a>
</g>
</g>
<!-- Node2&#45;&gt;Node6 -->
<g id="edge5" class="edge">
<title>Node2&#45;&gt;Node6</title>
<path fill="none" stroke="midnightblue" d="M295.16,-409.51C308.05,-444.59 345.23,-532.11 408,-573.5 440.12,-594.68 532.54,-609.22 606.4,-617.83"/>
<polygon fill="midnightblue" stroke="midnightblue" points="606.36,-621.35 616.69,-619.01 607.15,-614.4 606.36,-621.35"/>
</g>
<!-- Node7 -->
<g id="node7" class="node">
<title>Node7</title>
<g id="a_node7"><a xlink:href="../../d2/dae/classde_1_1backxtar_1_1clevercharge_1_1data_1_1_charging_station.html#a66043478cfd9a40c66f4e86a7d39748a" target="_top" xlink:title=" ">
<polygon fill="white" stroke="black" points="420,-453.5 420,-483.5 569,-483.5 569,-453.5 420,-453.5"/>
<text text-anchor="start" x="428" y="-471.5" font-family="Helvetica,sans-Serif" font-size="10.00">de.backxtar.clevercharge.data.</text>
<text text-anchor="middle" x="494.5" y="-460.5" font-family="Helvetica,sans-Serif" font-size="10.00">ChargingStation.getDistance</text>
</a>
</g>
</g>
<!-- Node2&#45;&gt;Node7 -->
<g id="edge6" class="edge">
<title>Node2&#45;&gt;Node7</title>
<path fill="none" stroke="midnightblue" d="M323.45,-409.53C346.86,-419.78 379.03,-433.28 408,-443.5 414.72,-445.87 421.79,-448.2 428.86,-450.42"/>
<polygon fill="midnightblue" stroke="midnightblue" points="427.9,-453.78 438.48,-453.38 429.95,-447.09 427.9,-453.78"/>
</g>
<!-- Node9 -->
<g id="node9" class="node">
<title>Node9</title>
<g id="a_node9"><a xlink:href="../../d0/dbd/classde_1_1backxtar_1_1clevercharge_1_1data_1_1_a_p_i_response.html#a1dfa2252e57d3dedcafcd225e709be7f" target="_top" xlink:title=" ">
<polygon fill="white" stroke="black" points="420,-404.5 420,-434.5 569,-434.5 569,-404.5 420,-404.5"/>
<text text-anchor="start" x="428" y="-422.5" font-family="Helvetica,sans-Serif" font-size="10.00">de.backxtar.clevercharge.data.</text>
<text text-anchor="middle" x="494.5" y="-411.5" font-family="Helvetica,sans-Serif" font-size="10.00">APIResponse.getFavorites</text>
</a>
</g>
</g>
<!-- Node2&#45;&gt;Node9 -->
<g id="edge8" class="edge">
<title>Node2&#45;&gt;Node9</title>
<path fill="none" stroke="midnightblue" d="M372.18,-404.6C384.51,-406.11 397.23,-407.67 409.59,-409.19"/>
<polygon fill="midnightblue" stroke="midnightblue" points="409.52,-412.71 419.87,-410.45 410.37,-405.76 409.52,-412.71"/>
</g>
<!-- Node10 -->
<g id="node10" class="node">
<title>Node10</title>
<g id="a_node10"><a xlink:href="../../d2/dae/classde_1_1backxtar_1_1clevercharge_1_1data_1_1_charging_station.html#a52d94922f31a010d91640f14f61d400f" target="_top" xlink:title=" ">
<polygon fill="white" stroke="black" points="420,-355.5 420,-385.5 569,-385.5 569,-355.5 420,-355.5"/>
<text text-anchor="start" x="428" y="-373.5" font-family="Helvetica,sans-Serif" font-size="10.00">de.backxtar.clevercharge.data.</text>
<text text-anchor="middle" x="494.5" y="-362.5" font-family="Helvetica,sans-Serif" font-size="10.00">ChargingStation.getId</text>
</a>
</g>
</g>
<!-- Node2&#45;&gt;Node10 -->
<g id="edge9" class="edge">
<title>Node2&#45;&gt;Node10</title>
<path fill="none" stroke="midnightblue" d="M372.18,-384.81C384.51,-383.35 397.23,-381.85 409.59,-380.4"/>
<polygon fill="midnightblue" stroke="midnightblue" points="410.35,-383.83 419.87,-379.18 409.53,-376.88 410.35,-383.83"/>
</g>
<!-- Node11 -->
<g id="node11" class="node">
<title>Node11</title>
<g id="a_node11"><a xlink:href="../../d2/dae/classde_1_1backxtar_1_1clevercharge_1_1data_1_1_charging_station.html#a46d8eb13339b35d44f74ec14d548ac9b" target="_top" xlink:title=" ">
<polygon fill="white" stroke="black" points="420,-306.5 420,-336.5 569,-336.5 569,-306.5 420,-306.5"/>
<text text-anchor="start" x="428" y="-324.5" font-family="Helvetica,sans-Serif" font-size="10.00">de.backxtar.clevercharge.data.</text>
<text text-anchor="middle" x="494.5" y="-313.5" font-family="Helvetica,sans-Serif" font-size="10.00">ChargingStation.getLocation</text>
</a>
</g>
</g>
<!-- Node2&#45;&gt;Node11 -->
<g id="edge10" class="edge">
<title>Node2&#45;&gt;Node11</title>
<path fill="none" stroke="midnightblue" d="M323.16,-379.48C346.58,-369.18 378.87,-355.6 408,-345.5 413.93,-343.45 420.13,-341.44 426.37,-339.51"/>
<polygon fill="midnightblue" stroke="midnightblue" points="427.61,-342.8 436.18,-336.57 425.59,-336.09 427.61,-342.8"/>
</g>
<!-- Node12 -->
<g id="node12" class="node">
<title>Node12</title>
<g id="a_node12"><a xlink:href="../../d2/dae/classde_1_1backxtar_1_1clevercharge_1_1data_1_1_charging_station.html#abb768a34fbb34b02767bdd1ad2238730" target="_top" xlink:title=" ">
<polygon fill="white" stroke="black" points="415.5,-257.5 415.5,-287.5 573.5,-287.5 573.5,-257.5 415.5,-257.5"/>
<text text-anchor="start" x="423.5" y="-275.5" font-family="Helvetica,sans-Serif" font-size="10.00">de.backxtar.clevercharge.data.</text>
<text text-anchor="middle" x="494.5" y="-264.5" font-family="Helvetica,sans-Serif" font-size="10.00">ChargingStation.getModule_type</text>
</a>
</g>
</g>
<!-- Node2&#45;&gt;Node12 -->
<g id="edge11" class="edge">
<title>Node2&#45;&gt;Node12</title>
<path fill="none" stroke="midnightblue" d="M304.15,-379.25C324.92,-357.74 365.79,-318.65 408,-296.5 411.51,-294.66 415.17,-292.94 418.93,-291.35"/>
<polygon fill="midnightblue" stroke="midnightblue" points="420.38,-294.54 428.42,-287.64 417.83,-288.02 420.38,-294.54"/>
</g>
<!-- Node13 -->
<g id="node13" class="node">
<title>Node13</title>
<g id="a_node13"><a xlink:href="../../d2/dae/classde_1_1backxtar_1_1clevercharge_1_1data_1_1_charging_station.html#a458efa55632d03f2f2c187414bf056ab" target="_top" xlink:title=" ">
<polygon fill="white" stroke="black" points="420,-208.5 420,-238.5 569,-238.5 569,-208.5 420,-208.5"/>
<text text-anchor="start" x="428" y="-226.5" font-family="Helvetica,sans-Serif" font-size="10.00">de.backxtar.clevercharge.data.</text>
<text text-anchor="middle" x="494.5" y="-215.5" font-family="Helvetica,sans-Serif" font-size="10.00">ChargingStation.getNumber</text>
</a>
</g>
</g>
<!-- Node2&#45;&gt;Node13 -->
<g id="edge12" class="edge">
<title>Node2&#45;&gt;Node13</title>
<path fill="none" stroke="midnightblue" d="M297.84,-379.43C314.16,-349.56 354.76,-282.69 408,-247.5 410.41,-245.91 412.93,-244.42 415.52,-243.03"/>
<polygon fill="midnightblue" stroke="midnightblue" points="417.1,-246.15 424.6,-238.66 414.07,-239.84 417.1,-246.15"/>
</g>
<!-- Node14 -->
<g id="node14" class="node">
<title>Node14</title>
<g id="a_node14"><a xlink:href="../../d2/dae/classde_1_1backxtar_1_1clevercharge_1_1data_1_1_charging_station.html#a9666696265fec71203568bae50dca58e" target="_top" xlink:title=" ">
<polygon fill="white" stroke="black" points="420,-148 420,-189 569,-189 569,-148 420,-148"/>
<text text-anchor="start" x="428" y="-177" font-family="Helvetica,sans-Serif" font-size="10.00">de.backxtar.clevercharge.data.</text>
<text text-anchor="start" x="428" y="-166" font-family="Helvetica,sans-Serif" font-size="10.00">ChargingStation.getNumber</text>
<text text-anchor="middle" x="494.5" y="-155" font-family="Helvetica,sans-Serif" font-size="10.00">_of_connections</text>
</a>
</g>
</g>
<!-- Node2&#45;&gt;Node14 -->
<g id="edge13" class="edge">
<title>Node2&#45;&gt;Node14</title>
<path fill="none" stroke="midnightblue" d="M295.04,-379.32C307.91,-342.82 345.47,-249.4 408,-198.5 409.6,-197.2 411.26,-195.95 412.98,-194.75"/>
<polygon fill="midnightblue" stroke="midnightblue" points="415.26,-197.45 421.9,-189.2 411.56,-191.51 415.26,-197.45"/>
</g>
<!-- Node15 -->
<g id="node15" class="node">
<title>Node15</title>
<g id="a_node15"><a xlink:href="../../d2/dae/classde_1_1backxtar_1_1clevercharge_1_1data_1_1_charging_station.html#af753f3a0c179e10f6713c473ea3db300" target="_top" xlink:title=" ">
<polygon fill="white" stroke="black" points="420,-98.5 420,-128.5 569,-128.5 569,-98.5 420,-98.5"/>
<text text-anchor="start" x="428" y="-116.5" font-family="Helvetica,sans-Serif" font-size="10.00">de.backxtar.clevercharge.data.</text>
<text text-anchor="middle" x="494.5" y="-105.5" font-family="Helvetica,sans-Serif" font-size="10.00">ChargingStation.getOperator</text>
</a>
</g>
</g>
<!-- Node2&#45;&gt;Node15 -->
<g id="edge14" class="edge">
<title>Node2&#45;&gt;Node15</title>
<path fill="none" stroke="midnightblue" d="M292.46,-379.49C300.49,-335.5 329.99,-205.78 408,-138.5 409.95,-136.82 412,-135.25 414.14,-133.79"/>
<polygon fill="midnightblue" stroke="midnightblue" points="415.97,-136.78 422.77,-128.66 412.39,-130.76 415.97,-136.78"/>
</g>
<!-- Node16 -->
<g id="node16" class="node">
<title>Node16</title>
<g id="a_node16"><a xlink:href="../../d2/dae/classde_1_1backxtar_1_1clevercharge_1_1data_1_1_charging_station.html#ac3c6cb9ec9ecfe14bb0923d82178bc74" target="_top" xlink:title=" ">
<polygon fill="white" stroke="black" points="416.5,-49.5 416.5,-79.5 572.5,-79.5 572.5,-49.5 416.5,-49.5"/>
<text text-anchor="start" x="424.5" y="-67.5" font-family="Helvetica,sans-Serif" font-size="10.00">de.backxtar.clevercharge.data.</text>
<text text-anchor="middle" x="494.5" y="-56.5" font-family="Helvetica,sans-Serif" font-size="10.00">ChargingStation.getPostal_code</text>
</a>
</g>
</g>
<!-- Node2&#45;&gt;Node16 -->
<g id="edge15" class="edge">
<title>Node2&#45;&gt;Node16</title>
<path fill="none" stroke="midnightblue" d="M291.18,-379.46C295.87,-329.98 317.66,-170.69 408,-88.5 409.29,-87.32 410.64,-86.2 412.03,-85.14"/>
<polygon fill="midnightblue" stroke="midnightblue" points="414.02,-88.02 420.46,-79.61 410.18,-82.17 414.02,-88.02"/>
</g>
<!-- Node17 -->
<g id="node17" class="node">
<title>Node17</title>
<g id="a_node17"><a xlink:href="../../d2/dae/classde_1_1backxtar_1_1clevercharge_1_1data_1_1_charging_station.html#afadcdca20dcbb26ec63f1329d8587fb4" target="_top" xlink:title=" ">
<polygon fill="white" stroke="black" points="420,-0.5 420,-30.5 569,-30.5 569,-0.5 420,-0.5"/>
<text text-anchor="start" x="428" y="-18.5" font-family="Helvetica,sans-Serif" font-size="10.00">de.backxtar.clevercharge.data.</text>
<text text-anchor="middle" x="494.5" y="-7.5" font-family="Helvetica,sans-Serif" font-size="10.00">ChargingStation.getStreet</text>
</a>
</g>
</g>
<!-- Node2&#45;&gt;Node17 -->
<g id="edge16" class="edge">
<title>Node2&#45;&gt;Node17</title>
<path fill="none" stroke="midnightblue" d="M290.27,-379.44C292.08,-325.08 305.78,-137 408,-39.5 409.12,-38.44 410.27,-37.42 411.47,-36.45"/>
<polygon fill="midnightblue" stroke="midnightblue" points="413.63,-39.21 419.87,-30.65 409.66,-33.45 413.63,-39.21"/>
</g>
<!-- Node18 -->
<g id="node18" class="node">
<title>Node18</title>
<g id="a_node18"><a xlink:href="../../d7/d15/classde_1_1backxtar_1_1clevercharge_1_1services_1_1_report_service.html#a00d302af860369770540aacfcd3d4405" target="_top" xlink:title=" ">
<polygon fill="white" stroke="black" points="411.5,-628.5 411.5,-658.5 577.5,-658.5 577.5,-628.5 411.5,-628.5"/>
<text text-anchor="start" x="419.5" y="-646.5" font-family="Helvetica,sans-Serif" font-size="10.00">de.backxtar.clevercharge.services.</text>
<text text-anchor="middle" x="494.5" y="-635.5" font-family="Helvetica,sans-Serif" font-size="10.00">ReportService.showPopup</text>
</a>
</g>
</g>
<!-- Node2&#45;&gt;Node18 -->
<g id="edge17" class="edge">
<title>Node2&#45;&gt;Node18</title>
<path fill="none" stroke="midnightblue" d="M294,-409.69C305.17,-449.12 340.36,-555.71 408,-613.5 412.6,-617.43 417.74,-620.85 423.16,-623.84"/>
<polygon fill="midnightblue" stroke="midnightblue" points="421.99,-627.16 432.51,-628.45 425.09,-620.89 421.99,-627.16"/>
</g>
<!-- Node19 -->
<g id="node19" class="node">
<title>Node19</title>
<g id="a_node19"><a xlink:href="../../d9/dac/classde_1_1backxtar_1_1clevercharge_1_1_main_activity.html#a377aeeb370ac0b59bd79be73c6cdeedd" target="_top" xlink:title=" ">
<polygon fill="white" stroke="black" points="642,-549.5 642,-579.5 776,-579.5 776,-549.5 642,-549.5"/>
<text text-anchor="start" x="650" y="-567.5" font-family="Helvetica,sans-Serif" font-size="10.00">de.backxtar.clevercharge.</text>
<text text-anchor="middle" x="709" y="-556.5" font-family="Helvetica,sans-Serif" font-size="10.00">MainActivity.updateBadges</text>
</a>
</g>
</g>
<!-- Node2&#45;&gt;Node19 -->
<g id="edge21" class="edge">
<title>Node2&#45;&gt;Node19</title>
<path fill="none" stroke="midnightblue" d="M296.79,-409.65C311.73,-440.93 350.74,-512.29 408,-542.5 477.13,-578.97 567.97,-580.32 631.5,-575.14"/>
<polygon fill="midnightblue" stroke="midnightblue" points="632.2,-578.59 641.85,-574.22 631.58,-571.62 632.2,-578.59"/>
</g>
<!-- Node8 -->
<g id="node8" class="node">
<title>Node8</title>
<g id="a_node8"><a xlink:href="../../de/d7e/classde_1_1backxtar_1_1clevercharge_1_1managers_1_1_user_manager.html#ae4f909b33cee9349c04878d1106de0cb" target="_top" xlink:title=" ">
<polygon fill="white" stroke="black" points="622.5,-453.5 622.5,-483.5 795.5,-483.5 795.5,-453.5 622.5,-453.5"/>
<text text-anchor="start" x="630.5" y="-471.5" font-family="Helvetica,sans-Serif" font-size="10.00">de.backxtar.clevercharge.managers.</text>
<text text-anchor="middle" x="709" y="-460.5" font-family="Helvetica,sans-Serif" font-size="10.00">UserManager.getMyPosition</text>
</a>
</g>
</g>
<!-- Node7&#45;&gt;Node8 -->
<g id="edge7" class="edge">
<title>Node7&#45;&gt;Node8</title>
<path fill="none" stroke="midnightblue" d="M569.23,-468.5C583.02,-468.5 597.62,-468.5 611.97,-468.5"/>
<polygon fill="midnightblue" stroke="midnightblue" points="612.37,-472 622.37,-468.5 612.37,-465 612.37,-472"/>
</g>
<!-- Node18&#45;&gt;Node4 -->
<g id="edge18" class="edge">
<title>Node18&#45;&gt;Node4</title>
<path fill="none" stroke="midnightblue" d="M575.23,-658.51C589.3,-661.16 604.03,-663.93 618.34,-666.62"/>
<polygon fill="midnightblue" stroke="midnightblue" points="617.7,-670.06 628.17,-668.47 618.99,-663.18 617.7,-670.06"/>
</g>
<!-- Node18&#45;&gt;Node6 -->
<g id="edge19" class="edge">
<title>Node18&#45;&gt;Node6</title>
<path fill="none" stroke="midnightblue" d="M577.66,-637.31C587.19,-636.6 597,-635.86 606.75,-635.12"/>
<polygon fill="midnightblue" stroke="midnightblue" points="607.17,-638.6 616.88,-634.36 606.65,-631.62 607.17,-638.6"/>
</g>
<!-- Node18&#45;&gt;Node19 -->
<g id="edge20" class="edge">
<title>Node18&#45;&gt;Node19</title>
<path fill="none" stroke="midnightblue" d="M535.97,-628.45C570.57,-615.59 620.51,-597.02 657.68,-583.21"/>
<polygon fill="midnightblue" stroke="midnightblue" points="659.17,-586.39 667.32,-579.62 656.73,-579.83 659.17,-586.39"/>
</g>
</g>
</svg>
        <g id="navigator" transform="translate(0 0)" fill="#404254">
                <rect fill="#f2f5e9" fill-opacity="0.5" stroke="#606060" stroke-width=".5" x="0" y="0" width="60" height="60"/>
                <use id="zoomplus" xlink:href="#zoomPlus" x="17" y="9" onmousedown="handleZoom(evt,'in')"/>
                <use id="zoomminus" xlink:href="#zoomMin" x="42" y="9" onmousedown="handleZoom(evt,'out')"/>
                <use id="reset" xlink:href="#resetDef" x="30" y="36" onmousedown="handleReset()"/>
                <g id="arrowUp" xlink:href="#dirArrow" transform="translate(30 24)" onmousedown="handlePan(0,-1)">
                  <use xlink:href="#rim" fill="#404040">
                        <set attributeName="fill" to="#808080" begin="arrowUp.mouseover" end="arrowUp.mouseout"/>
                  </use>
                  <path fill="none" stroke="white" stroke-width="1.5" d="M0,-3.0v7 M-2.5,-0.5L0,-3.0L2.5,-0.5"/>
                </g>
                <g id="arrowRight" xlink:href="#dirArrow" transform="rotate(90) translate(36 -43)" onmousedown="handlePan(1,0)">
                  <use xlink:href="#rim" fill="#404040">
                        <set attributeName="fill" to="#808080" begin="arrowRight.mouseover" end="arrowRight.mouseout"/>
                  </use>
                  <path fill="none" stroke="white" stroke-width="1.5" d="M0,-3.0v7 M-2.5,-0.5L0,-3.0L2.5,-0.5"/>
                </g>
                <g id="arrowDown" xlink:href="#dirArrow" transform="rotate(180) translate(-30 -48)" onmousedown="handlePan(0,1)">
                  <use xlink:href="#rim" fill="#404040">
                        <set attributeName="fill" to="#808080" begin="arrowDown.mouseover" end="arrowDown.mouseout"/>
                  </use>
                  <path fill="none" stroke="white" stroke-width="1.5" d="M0,-3.0v7 M-2.5,-0.5L0,-3.0L2.5,-0.5"/>
                </g>
                <g id="arrowLeft" xlink:href="#dirArrow" transform="rotate(270) translate(-36 17)" onmousedown="handlePan(-1,0)">
                  <use xlink:href="#rim" fill="#404040">
                        <set attributeName="fill" to="#808080" begin="arrowLeft.mouseover" end="arrowLeft.mouseout"/>
                  </use>
                  <path fill="none" stroke="white" stroke-width="1.5" d="M0,-3.0v7 M-2.5,-0.5L0,-3.0L2.5,-0.5"/>
                </g>
        </g>
        <svg viewBox="0 0 15 15" width="100%" height="30px" preserveAspectRatio="xMaxYMin meet">
         <g id="arrow_out" transform="scale(0.3 0.3)">
          <a xlink:href="classde_1_1backxtar_1_1clevercharge_1_1fragments_main_1_1_search_fragment_ad13d718f135a39e029721ffe65f4f909_cgraph_org.svg" target="_base">
           <rect id="button" ry="5" rx="5" y="6" x="6" height="38" width="38"
                fill="#f2f5e9" fill-opacity="0.5" stroke="#606060" stroke-width="1.0"/>
           <path id="arrow"
             d="M 11.500037,31.436501 C 11.940474,20.09759 22.043105,11.32322 32.158766,21.979434 L 37.068811,17.246167 C 37.068811,17.246167 37.088388,32 37.088388,32 L 22.160133,31.978069 C 22.160133,31.978069 26.997745,27.140456 26.997745,27.140456 C 18.528582,18.264221 13.291696,25.230495 11.500037,31.436501 z"
             style="fill:#404040;"/>
          </a>
         </g>
        </svg>
</svg>
