<?xml version="1.0" encoding="UTF-8" standalone="no"?>
<!DOCTYPE svg PUBLIC "-//W3C//DTD SVG 1.1//EN"
 "http://www.w3.org/Graphics/SVG/1.1/DTD/svg11.dtd">
<!-- Generated by graphviz version 2.50.0 (20211204.2007)
 -->
<!-- Title: de.backxtar.clevercharge.MainActivity Pages: 1 -->
<svg width="214pt" height="237pt"
 viewBox="0.00 0.00 213.50 237.00" xmlns="http://www.w3.org/2000/svg" xmlns:xlink="http://www.w3.org/1999/xlink">
<g id="graph0" class="graph" transform="scale(1 1) rotate(0) translate(4 233)">
<title>de.backxtar.clevercharge.MainActivity</title>
<polygon fill="white" stroke="transparent" points="-4,4 -4,-233 209.5,-233 209.5,4 -4,4"/>
<!-- Node1 -->
<g id="node1" class="node">
<title>Node1</title>
<g id="a_node1"><a xlink:title=" ">
<polygon fill="#bfbfbf" stroke="black" points="25.5,-0.5 25.5,-134.5 185.5,-134.5 185.5,-0.5 25.5,-0.5"/>
<text text-anchor="start" x="33.5" y="-122.5" font-family="Helvetica,sans-Serif" font-size="10.00">de.backxtar.clevercharge.</text>
<text text-anchor="middle" x="105.5" y="-111.5" font-family="Helvetica,sans-Serif" font-size="10.00">MainActivity</text>
<polyline fill="none" stroke="black" points="25.5,-104.5 185.5,-104.5 "/>
<text text-anchor="middle" x="105.5" y="-92.5" font-family="Helvetica,sans-Serif" font-size="10.00"> </text>
<polyline fill="none" stroke="black" points="25.5,-85.5 185.5,-85.5 "/>
<text text-anchor="start" x="33.5" y="-73.5" font-family="Helvetica,sans-Serif" font-size="10.00">+ onRequestPermissionsResult()</text>
<text text-anchor="start" x="33.5" y="-62.5" font-family="Helvetica,sans-Serif" font-size="10.00">+ onLocationChanged()</text>
<text text-anchor="start" x="33.5" y="-51.5" font-family="Helvetica,sans-Serif" font-size="10.00">+ onProviderEnabled()</text>
<text text-anchor="start" x="33.5" y="-40.5" font-family="Helvetica,sans-Serif" font-size="10.00">+ onProviderDisabled()</text>
<text text-anchor="start" x="33.5" y="-29.5" font-family="Helvetica,sans-Serif" font-size="10.00">+ onBackPressed()</text>
<text text-anchor="start" x="33.5" y="-18.5" font-family="Helvetica,sans-Serif" font-size="10.00">+ updateBadges()</text>
<text text-anchor="start" x="33.5" y="-7.5" font-family="Helvetica,sans-Serif" font-size="10.00"># onCreate()</text>
</a>
</g>
</g>
<!-- Node2 -->
<g id="node2" class="node">
<title>Node2</title>
<g id="a_node2"><a xlink:title=" ">
<polygon fill="white" stroke="black" points="0,-171.5 0,-228.5 99,-228.5 99,-171.5 0,-171.5"/>
<text text-anchor="middle" x="49.5" y="-216.5" font-family="Helvetica,sans-Serif" font-size="10.00">AppCompatActivity</text>
<polyline fill="none" stroke="black" points="0,-209.5 99,-209.5 "/>
<text text-anchor="middle" x="49.5" y="-197.5" font-family="Helvetica,sans-Serif" font-size="10.00"> </text>
<polyline fill="none" stroke="black" points="0,-190.5 99,-190.5 "/>
<text text-anchor="middle" x="49.5" y="-178.5" font-family="Helvetica,sans-Serif" font-size="10.00"> </text>
</a>
</g>
</g>
<!-- Node2&#45;&gt;Node1 -->
<g id="edge1" class="edge">
<title>Node2&#45;&gt;Node1</title>
<path fill="none" stroke="midnightblue" d="M65.38,-162C69.07,-153.39 73.11,-143.97 77.16,-134.53"/>
<polygon fill="none" stroke="midnightblue" points="62.1,-160.75 61.38,-171.32 68.54,-163.51 62.1,-160.75"/>
</g>
<!-- Node3 -->
<g id="node3" class="node">
<title>Node3</title>
<g id="a_node3"><a xlink:title=" ">
<polygon fill="white" stroke="black" points="117.5,-171.5 117.5,-228.5 205.5,-228.5 205.5,-171.5 117.5,-171.5"/>
<text text-anchor="middle" x="161.5" y="-216.5" font-family="Helvetica,sans-Serif" font-size="10.00">LocationListener</text>
<polyline fill="none" stroke="black" points="117.5,-209.5 205.5,-209.5 "/>
<text text-anchor="middle" x="161.5" y="-197.5" font-family="Helvetica,sans-Serif" font-size="10.00"> </text>
<polyline fill="none" stroke="black" points="117.5,-190.5 205.5,-190.5 "/>
<text text-anchor="middle" x="161.5" y="-178.5" font-family="Helvetica,sans-Serif" font-size="10.00"> </text>
</a>
</g>
</g>
<!-- Node3&#45;&gt;Node1 -->
<g id="edge2" class="edge">
<title>Node3&#45;&gt;Node1</title>
<path fill="none" stroke="midnightblue" d="M145.62,-162C141.93,-153.39 137.89,-143.97 133.84,-134.53"/>
<polygon fill="none" stroke="midnightblue" points="142.46,-163.51 149.62,-171.32 148.9,-160.75 142.46,-163.51"/>
</g>
</g>
</svg>
