<?xml version="1.0" encoding="UTF-8" standalone="no"?>
<!DOCTYPE svg PUBLIC "-//W3C//DTD SVG 1.1//EN"
 "http://www.w3.org/Graphics/SVG/1.1/DTD/svg11.dtd">
<!-- Generated by graphviz version 2.50.0 (20211204.2007)
 -->
<!-- Title: de.backxtar.clevercharge.managers.UserManager.getMyPosition Pages: 1 -->
<svg width="805pt" height="124pt"
 viewBox="0.00 0.00 805.00 123.50" xmlns="http://www.w3.org/2000/svg" xmlns:xlink="http://www.w3.org/1999/xlink">
<g id="graph0" class="graph" transform="scale(1 1) rotate(0) translate(4 119.5)">
<title>de.backxtar.clevercharge.managers.UserManager.getMyPosition</title>
<polygon fill="white" stroke="transparent" points="-4,4 -4,-119.5 801,-119.5 801,4 -4,4"/>
<!-- Node1 -->
<g id="node1" class="node">
<title>Node1</title>
<g id="a_node1"><a xlink:title=" ">
<polygon fill="#bfbfbf" stroke="black" points="624,-26.5 624,-56.5 797,-56.5 797,-26.5 624,-26.5"/>
<text text-anchor="start" x="632" y="-44.5" font-family="Helvetica,sans-Serif" font-size="10.00">de.backxtar.clevercharge.managers.</text>
<text text-anchor="middle" x="710.5" y="-33.5" font-family="Helvetica,sans-Serif" font-size="10.00">UserManager.getMyPosition</text>
</a>
</g>
</g>
<!-- Node2 -->
<g id="node2" class="node">
<title>Node2</title>
<g id="a_node2"><a xlink:href="$d2/dae/classde_1_1backxtar_1_1clevercharge_1_1data_1_1_charging_station.html#a66043478cfd9a40c66f4e86a7d39748a" xlink:title=" ">
<polygon fill="white" stroke="black" points="427,-51.5 427,-81.5 576,-81.5 576,-51.5 427,-51.5"/>
<text text-anchor="start" x="435" y="-69.5" font-family="Helvetica,sans-Serif" font-size="10.00">de.backxtar.clevercharge.data.</text>
<text text-anchor="middle" x="501.5" y="-58.5" font-family="Helvetica,sans-Serif" font-size="10.00">ChargingStation.getDistance</text>
</a>
</g>
</g>
<!-- Node1&#45;&gt;Node2 -->
<g id="edge1" class="edge">
<title>Node1&#45;&gt;Node2</title>
<path fill="none" stroke="midnightblue" d="M613.75,-53.06C601.16,-54.59 588.4,-56.13 576.25,-57.59"/>
<polygon fill="midnightblue" stroke="midnightblue" points="614.3,-56.52 623.81,-51.85 613.46,-49.57 614.3,-56.52"/>
</g>
<!-- Node7 -->
<g id="node7" class="node">
<title>Node7</title>
<g id="a_node7"><a xlink:href="$d2/d96/classde_1_1backxtar_1_1clevercharge_1_1managers_1_1_station_manager.html#ab26276092c693a031e875316ddb1eb0b" xlink:title=" ">
<polygon fill="white" stroke="black" points="415,-2.5 415,-32.5 588,-32.5 588,-2.5 415,-2.5"/>
<text text-anchor="start" x="423" y="-20.5" font-family="Helvetica,sans-Serif" font-size="10.00">de.backxtar.clevercharge.managers.</text>
<text text-anchor="middle" x="501.5" y="-9.5" font-family="Helvetica,sans-Serif" font-size="10.00">StationManager.sortByFavAndLocal</text>
</a>
</g>
</g>
<!-- Node1&#45;&gt;Node7 -->
<g id="edge6" class="edge">
<title>Node1&#45;&gt;Node7</title>
<path fill="none" stroke="midnightblue" d="M613.8,-30.4C605.24,-29.41 596.6,-28.41 588.12,-27.43"/>
<polygon fill="midnightblue" stroke="midnightblue" points="613.47,-33.89 623.81,-31.57 614.28,-26.94 613.47,-33.89"/>
</g>
<!-- Node3 -->
<g id="node3" class="node">
<title>Node3</title>
<g id="a_node3"><a xlink:href="$d8/d60/classde_1_1backxtar_1_1clevercharge_1_1data_1_1_charging_station_adapter.html#a3faf615a173caef09b3b6a62140fbda6" xlink:title=" ">
<polygon fill="white" stroke="black" points="206,-74 206,-115 379,-115 379,-74 206,-74"/>
<text text-anchor="start" x="214" y="-103" font-family="Helvetica,sans-Serif" font-size="10.00">de.backxtar.clevercharge.data.</text>
<text text-anchor="start" x="214" y="-92" font-family="Helvetica,sans-Serif" font-size="10.00">ChargingStationAdapter.onBindView</text>
<text text-anchor="middle" x="292.5" y="-81" font-family="Helvetica,sans-Serif" font-size="10.00">Holder</text>
</a>
</g>
</g>
<!-- Node2&#45;&gt;Node3 -->
<g id="edge2" class="edge">
<title>Node2&#45;&gt;Node3</title>
<path fill="none" stroke="midnightblue" d="M416.67,-77.84C404.32,-79.51 391.58,-81.23 379.2,-82.91"/>
<polygon fill="midnightblue" stroke="midnightblue" points="417.5,-81.26 426.94,-76.45 416.56,-74.32 417.5,-81.26"/>
</g>
<!-- Node4 -->
<g id="node4" class="node">
<title>Node4</title>
<g id="a_node4"><a xlink:href="$d9/dc7/classde_1_1backxtar_1_1clevercharge_1_1services_1_1_popup_service.html#af74f3ec6cd6fb55d81a1938af49efdd8" xlink:title=" ">
<polygon fill="white" stroke="black" points="209.5,-24.5 209.5,-54.5 375.5,-54.5 375.5,-24.5 209.5,-24.5"/>
<text text-anchor="start" x="217.5" y="-42.5" font-family="Helvetica,sans-Serif" font-size="10.00">de.backxtar.clevercharge.services.</text>
<text text-anchor="middle" x="292.5" y="-31.5" font-family="Helvetica,sans-Serif" font-size="10.00">PopupService.showPopup</text>
</a>
</g>
</g>
<!-- Node2&#45;&gt;Node4 -->
<g id="edge3" class="edge">
<title>Node2&#45;&gt;Node4</title>
<path fill="none" stroke="midnightblue" d="M416.69,-55.57C403.14,-53.8 389.13,-51.97 375.63,-50.21"/>
<polygon fill="midnightblue" stroke="midnightblue" points="416.57,-59.08 426.94,-56.9 417.47,-52.14 416.57,-59.08"/>
</g>
<!-- Node5 -->
<g id="node5" class="node">
<title>Node5</title>
<g id="a_node5"><a xlink:href="$da/daa/classde_1_1backxtar_1_1clevercharge_1_1fragments_main_1_1_dev_fragment.html#ac0dce7e1f324fc5bdfc3ee7a4558b99a" xlink:title=" ">
<polygon fill="white" stroke="black" points="0,-49.5 0,-79.5 170,-79.5 170,-49.5 0,-49.5"/>
<text text-anchor="start" x="8" y="-67.5" font-family="Helvetica,sans-Serif" font-size="10.00">de.backxtar.clevercharge.fragments</text>
<text text-anchor="middle" x="85" y="-56.5" font-family="Helvetica,sans-Serif" font-size="10.00">Main.DevFragment.onItemClick</text>
</a>
</g>
</g>
<!-- Node4&#45;&gt;Node5 -->
<g id="edge4" class="edge">
<title>Node4&#45;&gt;Node5</title>
<path fill="none" stroke="midnightblue" d="M199.38,-50.71C189.7,-51.88 179.9,-53.08 170.33,-54.24"/>
<polygon fill="midnightblue" stroke="midnightblue" points="199.89,-54.17 209.4,-49.49 199.05,-47.22 199.89,-54.17"/>
</g>
<!-- Node6 -->
<g id="node6" class="node">
<title>Node6</title>
<g id="a_node6"><a xlink:href="$d3/d46/classde_1_1backxtar_1_1clevercharge_1_1fragments_main_1_1_search_fragment.html#ad13d718f135a39e029721ffe65f4f909" xlink:title=" ">
<polygon fill="white" stroke="black" points="0,-0.5 0,-30.5 170,-30.5 170,-0.5 0,-0.5"/>
<text text-anchor="start" x="8" y="-18.5" font-family="Helvetica,sans-Serif" font-size="10.00">de.backxtar.clevercharge.fragments</text>
<text text-anchor="middle" x="85" y="-7.5" font-family="Helvetica,sans-Serif" font-size="10.00">Main.SearchFragment.onItemClick</text>
</a>
</g>
</g>
<!-- Node4&#45;&gt;Node6 -->
<g id="edge5" class="edge">
<title>Node4&#45;&gt;Node6</title>
<path fill="none" stroke="midnightblue" d="M199.38,-28.74C189.7,-27.61 179.9,-26.47 170.33,-25.35"/>
<polygon fill="midnightblue" stroke="midnightblue" points="199.06,-32.23 209.4,-29.91 199.87,-25.27 199.06,-32.23"/>
</g>
</g>
</svg>
