<?xml version="1.0" encoding="UTF-8" standalone="no"?>
<!DOCTYPE svg PUBLIC "-//W3C//DTD SVG 1.1//EN"
 "http://www.w3.org/Graphics/SVG/1.1/DTD/svg11.dtd">
<!-- Generated by graphviz version 2.50.0 (20211204.2007)
 -->
<!-- Title: de.backxtar.clevercharge.managers.UserManager.getApi_data Pages: 1 -->
<svg width="829pt" height="372pt"
 viewBox="0.00 0.00 829.00 372.00" xmlns="http://www.w3.org/2000/svg" xmlns:xlink="http://www.w3.org/1999/xlink">
<g id="graph0" class="graph" transform="scale(1 1) rotate(0) translate(4 368)">
<title>de.backxtar.clevercharge.managers.UserManager.getApi_data</title>
<polygon fill="white" stroke="transparent" points="-4,4 -4,-368 825,-368 825,4 -4,4"/>
<!-- Node1 -->
<g id="node1" class="node">
<title>Node1</title>
<g id="a_node1"><a xlink:title=" ">
<polygon fill="#bfbfbf" stroke="black" points="648,-161.5 648,-191.5 821,-191.5 821,-161.5 648,-161.5"/>
<text text-anchor="start" x="656" y="-179.5" font-family="Helvetica,sans-Serif" font-size="10.00">de.backxtar.clevercharge.managers.</text>
<text text-anchor="middle" x="734.5" y="-168.5" font-family="Helvetica,sans-Serif" font-size="10.00">UserManager.getApi_data</text>
</a>
</g>
</g>
<!-- Node2 -->
<g id="node2" class="node">
<title>Node2</title>
<g id="a_node2"><a xlink:href="$d2/d96/classde_1_1backxtar_1_1clevercharge_1_1managers_1_1_station_manager.html#a84363e55138545c015867ac16fa9c50a" xlink:title=" ">
<polygon fill="white" stroke="black" points="427,-333.5 427,-363.5 600,-363.5 600,-333.5 427,-333.5"/>
<text text-anchor="start" x="435" y="-351.5" font-family="Helvetica,sans-Serif" font-size="10.00">de.backxtar.clevercharge.managers.</text>
<text text-anchor="middle" x="513.5" y="-340.5" font-family="Helvetica,sans-Serif" font-size="10.00">StationManager.getDefects</text>
</a>
</g>
</g>
<!-- Node1&#45;&gt;Node2 -->
<g id="edge1" class="edge">
<title>Node1&#45;&gt;Node2</title>
<path fill="none" stroke="midnightblue" d="M720.31,-200.85C701.02,-234.07 661.91,-293.04 612,-324.5 606.54,-327.94 600.63,-330.89 594.5,-333.41"/>
<polygon fill="midnightblue" stroke="midnightblue" points="723.54,-202.24 725.43,-191.82 717.45,-198.79 723.54,-202.24"/>
</g>
<!-- Node4 -->
<g id="node4" class="node">
<title>Node4</title>
<g id="a_node4"><a xlink:href="$d2/d96/classde_1_1backxtar_1_1clevercharge_1_1managers_1_1_station_manager.html#a90cc885bc23aaf437ec10f20c74f9355" xlink:title=" ">
<polygon fill="white" stroke="black" points="427,-284.5 427,-314.5 600,-314.5 600,-284.5 427,-284.5"/>
<text text-anchor="start" x="435" y="-302.5" font-family="Helvetica,sans-Serif" font-size="10.00">de.backxtar.clevercharge.managers.</text>
<text text-anchor="middle" x="513.5" y="-291.5" font-family="Helvetica,sans-Serif" font-size="10.00">StationManager.getFavorites</text>
</a>
</g>
</g>
<!-- Node1&#45;&gt;Node4 -->
<g id="edge3" class="edge">
<title>Node1&#45;&gt;Node4</title>
<path fill="none" stroke="midnightblue" d="M712.22,-198.9C689.49,-221.53 651.38,-255.87 612,-275.5 605.14,-278.92 597.75,-281.88 590.23,-284.42"/>
<polygon fill="midnightblue" stroke="midnightblue" points="714.78,-201.29 719.32,-191.72 709.8,-196.37 714.78,-201.29"/>
</g>
<!-- Node5 -->
<g id="node5" class="node">
<title>Node5</title>
<g id="a_node5"><a xlink:href="$d4/d81/classde_1_1backxtar_1_1clevercharge_1_1data_1_1_article_adapter.html#a1f8b257be72724e5d8b06f157b657062" xlink:title=" ">
<polygon fill="white" stroke="black" points="436,-235.5 436,-265.5 591,-265.5 591,-235.5 436,-235.5"/>
<text text-anchor="start" x="444" y="-253.5" font-family="Helvetica,sans-Serif" font-size="10.00">de.backxtar.clevercharge.data.</text>
<text text-anchor="middle" x="513.5" y="-242.5" font-family="Helvetica,sans-Serif" font-size="10.00">ArticleAdapter.getItemViewType</text>
</a>
</g>
</g>
<!-- Node1&#45;&gt;Node5 -->
<g id="edge4" class="edge">
<title>Node1&#45;&gt;Node5</title>
<path fill="none" stroke="midnightblue" d="M691.55,-195.57C668.4,-205.64 638.96,-217.69 612,-226.5 602.14,-229.72 591.6,-232.74 581.22,-235.48"/>
<polygon fill="midnightblue" stroke="midnightblue" points="692.99,-198.77 700.74,-191.54 690.17,-192.36 692.99,-198.77"/>
</g>
<!-- Node6 -->
<g id="node6" class="node">
<title>Node6</title>
<g id="a_node6"><a xlink:href="$d8/d60/classde_1_1backxtar_1_1clevercharge_1_1data_1_1_charging_station_adapter.html#aa14214e3e8413471450d01c310dcd9b6" xlink:title=" ">
<polygon fill="white" stroke="black" points="415,-186.5 415,-216.5 612,-216.5 612,-186.5 415,-186.5"/>
<text text-anchor="start" x="423" y="-204.5" font-family="Helvetica,sans-Serif" font-size="10.00">de.backxtar.clevercharge.data.</text>
<text text-anchor="middle" x="513.5" y="-193.5" font-family="Helvetica,sans-Serif" font-size="10.00">ChargingStationAdapter.getItemViewType</text>
</a>
</g>
</g>
<!-- Node1&#45;&gt;Node6 -->
<g id="edge5" class="edge">
<title>Node1&#45;&gt;Node6</title>
<path fill="none" stroke="midnightblue" d="M637.89,-187.41C629.32,-188.39 620.63,-189.39 612.04,-190.37"/>
<polygon fill="midnightblue" stroke="midnightblue" points="638.35,-190.88 647.89,-186.27 637.56,-183.93 638.35,-190.88"/>
</g>
<!-- Node7 -->
<g id="node7" class="node">
<title>Node7</title>
<g id="a_node7"><a xlink:href="$d4/d81/classde_1_1backxtar_1_1clevercharge_1_1data_1_1_article_adapter.html#af6595dbe29147ff3c8f9c669f9e5c55a" xlink:title=" ">
<polygon fill="white" stroke="black" points="433.5,-137.5 433.5,-167.5 593.5,-167.5 593.5,-137.5 433.5,-137.5"/>
<text text-anchor="start" x="441.5" y="-155.5" font-family="Helvetica,sans-Serif" font-size="10.00">de.backxtar.clevercharge.data.</text>
<text text-anchor="middle" x="513.5" y="-144.5" font-family="Helvetica,sans-Serif" font-size="10.00">ArticleAdapter.onBindViewHolder</text>
</a>
</g>
</g>
<!-- Node1&#45;&gt;Node7 -->
<g id="edge6" class="edge">
<title>Node1&#45;&gt;Node7</title>
<path fill="none" stroke="midnightblue" d="M637.75,-166.01C623.02,-164.39 607.94,-162.74 593.62,-161.17"/>
<polygon fill="midnightblue" stroke="midnightblue" points="637.57,-169.51 647.89,-167.12 638.33,-162.55 637.57,-169.51"/>
</g>
<!-- Node8 -->
<g id="node8" class="node">
<title>Node8</title>
<g id="a_node8"><a xlink:href="$d9/dc7/classde_1_1backxtar_1_1clevercharge_1_1services_1_1_popup_service.html#af74f3ec6cd6fb55d81a1938af49efdd8" xlink:title=" ">
<polygon fill="white" stroke="black" points="209.5,-71.5 209.5,-101.5 375.5,-101.5 375.5,-71.5 209.5,-71.5"/>
<text text-anchor="start" x="217.5" y="-89.5" font-family="Helvetica,sans-Serif" font-size="10.00">de.backxtar.clevercharge.services.</text>
<text text-anchor="middle" x="292.5" y="-78.5" font-family="Helvetica,sans-Serif" font-size="10.00">PopupService.showPopup</text>
</a>
</g>
</g>
<!-- Node1&#45;&gt;Node8 -->
<g id="edge7" class="edge">
<title>Node1&#45;&gt;Node8</title>
<path fill="none" stroke="midnightblue" d="M692.55,-157.41C669.38,-147.35 639.59,-135.65 612,-128.5 533.18,-108.06 440.67,-97.28 375.72,-91.78"/>
<polygon fill="midnightblue" stroke="midnightblue" points="691.17,-160.63 701.73,-161.46 693.99,-154.22 691.17,-160.63"/>
</g>
<!-- Node11 -->
<g id="node11" class="node">
<title>Node11</title>
<g id="a_node11"><a xlink:href="$d7/d15/classde_1_1backxtar_1_1clevercharge_1_1services_1_1_report_service.html#a00d302af860369770540aacfcd3d4405" xlink:title=" ">
<polygon fill="white" stroke="black" points="430.5,-49.5 430.5,-79.5 596.5,-79.5 596.5,-49.5 430.5,-49.5"/>
<text text-anchor="start" x="438.5" y="-67.5" font-family="Helvetica,sans-Serif" font-size="10.00">de.backxtar.clevercharge.services.</text>
<text text-anchor="middle" x="513.5" y="-56.5" font-family="Helvetica,sans-Serif" font-size="10.00">ReportService.showPopup</text>
</a>
</g>
</g>
<!-- Node1&#45;&gt;Node11 -->
<g id="edge10" class="edge">
<title>Node1&#45;&gt;Node11</title>
<path fill="none" stroke="midnightblue" d="M706.63,-154.95C682.9,-136.77 646.76,-111.12 612,-94.5 599.86,-88.69 586.33,-83.69 573.31,-79.52"/>
<polygon fill="midnightblue" stroke="midnightblue" points="704.74,-157.91 714.79,-161.27 709.04,-152.38 704.74,-157.91"/>
</g>
<!-- Node12 -->
<g id="node12" class="node">
<title>Node12</title>
<g id="a_node12"><a xlink:href="$d2/d96/classde_1_1backxtar_1_1clevercharge_1_1managers_1_1_station_manager.html#ab26276092c693a031e875316ddb1eb0b" xlink:title=" ">
<polygon fill="white" stroke="black" points="427,-0.5 427,-30.5 600,-30.5 600,-0.5 427,-0.5"/>
<text text-anchor="start" x="435" y="-18.5" font-family="Helvetica,sans-Serif" font-size="10.00">de.backxtar.clevercharge.managers.</text>
<text text-anchor="middle" x="513.5" y="-7.5" font-family="Helvetica,sans-Serif" font-size="10.00">StationManager.sortByFavAndLocal</text>
</a>
</g>
</g>
<!-- Node1&#45;&gt;Node12 -->
<g id="edge12" class="edge">
<title>Node1&#45;&gt;Node12</title>
<path fill="none" stroke="midnightblue" d="M718.98,-152.62C698.87,-121.66 659.6,-68.25 612,-39.5 606.26,-36.03 600.03,-33.06 593.61,-30.52"/>
<polygon fill="midnightblue" stroke="midnightblue" points="716.27,-154.89 724.59,-161.46 722.18,-151.14 716.27,-154.89"/>
</g>
<!-- Node3 -->
<g id="node3" class="node">
<title>Node3</title>
<g id="a_node3"><a xlink:href="$d2/d96/classde_1_1backxtar_1_1clevercharge_1_1managers_1_1_station_manager.html#a2deb1b9045b98fec83251a5384717dd8" xlink:title=" ">
<polygon fill="white" stroke="black" points="206,-333.5 206,-363.5 379,-363.5 379,-333.5 206,-333.5"/>
<text text-anchor="start" x="214" y="-351.5" font-family="Helvetica,sans-Serif" font-size="10.00">de.backxtar.clevercharge.managers.</text>
<text text-anchor="middle" x="292.5" y="-340.5" font-family="Helvetica,sans-Serif" font-size="10.00">StationManager.getLocalDefects</text>
</a>
</g>
</g>
<!-- Node2&#45;&gt;Node3 -->
<g id="edge2" class="edge">
<title>Node2&#45;&gt;Node3</title>
<path fill="none" stroke="midnightblue" d="M416.86,-348.5C404.28,-348.5 391.45,-348.5 379.05,-348.5"/>
<polygon fill="midnightblue" stroke="midnightblue" points="416.89,-352 426.89,-348.5 416.89,-345 416.89,-352"/>
</g>
<!-- Node9 -->
<g id="node9" class="node">
<title>Node9</title>
<g id="a_node9"><a xlink:href="$da/daa/classde_1_1backxtar_1_1clevercharge_1_1fragments_main_1_1_dev_fragment.html#ac0dce7e1f324fc5bdfc3ee7a4558b99a" xlink:title=" ">
<polygon fill="white" stroke="black" points="0,-96.5 0,-126.5 170,-126.5 170,-96.5 0,-96.5"/>
<text text-anchor="start" x="8" y="-114.5" font-family="Helvetica,sans-Serif" font-size="10.00">de.backxtar.clevercharge.fragments</text>
<text text-anchor="middle" x="85" y="-103.5" font-family="Helvetica,sans-Serif" font-size="10.00">Main.DevFragment.onItemClick</text>
</a>
</g>
</g>
<!-- Node8&#45;&gt;Node9 -->
<g id="edge8" class="edge">
<title>Node8&#45;&gt;Node9</title>
<path fill="none" stroke="midnightblue" d="M199.38,-97.71C189.7,-98.88 179.9,-100.08 170.33,-101.24"/>
<polygon fill="midnightblue" stroke="midnightblue" points="199.89,-101.17 209.4,-96.49 199.05,-94.22 199.89,-101.17"/>
</g>
<!-- Node10 -->
<g id="node10" class="node">
<title>Node10</title>
<g id="a_node10"><a xlink:href="$d3/d46/classde_1_1backxtar_1_1clevercharge_1_1fragments_main_1_1_search_fragment.html#ad13d718f135a39e029721ffe65f4f909" xlink:title=" ">
<polygon fill="white" stroke="black" points="0,-47.5 0,-77.5 170,-77.5 170,-47.5 0,-47.5"/>
<text text-anchor="start" x="8" y="-65.5" font-family="Helvetica,sans-Serif" font-size="10.00">de.backxtar.clevercharge.fragments</text>
<text text-anchor="middle" x="85" y="-54.5" font-family="Helvetica,sans-Serif" font-size="10.00">Main.SearchFragment.onItemClick</text>
</a>
</g>
</g>
<!-- Node8&#45;&gt;Node10 -->
<g id="edge9" class="edge">
<title>Node8&#45;&gt;Node10</title>
<path fill="none" stroke="midnightblue" d="M199.38,-75.74C189.7,-74.61 179.9,-73.47 170.33,-72.35"/>
<polygon fill="midnightblue" stroke="midnightblue" points="199.06,-79.23 209.4,-76.91 199.87,-72.27 199.06,-79.23"/>
</g>
<!-- Node11&#45;&gt;Node8 -->
<g id="edge11" class="edge">
<title>Node11&#45;&gt;Node8</title>
<path fill="none" stroke="midnightblue" d="M420.2,-73.77C405.45,-75.25 390.27,-76.78 375.77,-78.24"/>
<polygon fill="midnightblue" stroke="midnightblue" points="420.73,-77.24 430.33,-72.75 420.03,-70.27 420.73,-77.24"/>
</g>
</g>
</svg>
