<?xml version="1.0" encoding="UTF-8" standalone="no"?>
<!DOCTYPE svg PUBLIC "-//W3C//DTD SVG 1.1//EN"
 "http://www.w3.org/Graphics/SVG/1.1/DTD/svg11.dtd">
<!-- Generated by graphviz version 2.50.0 (20211204.2007)
 -->
<!-- Title: de.backxtar.clevercharge.interfaces.RecyclerViewInterface Pages: 1 -->
<svg width="366pt" height="215pt"
 viewBox="0.00 0.00 366.00 215.00" xmlns="http://www.w3.org/2000/svg" xmlns:xlink="http://www.w3.org/1999/xlink">
<g id="graph0" class="graph" transform="scale(1 1) rotate(0) translate(4 211)">
<title>de.backxtar.clevercharge.interfaces.RecyclerViewInterface</title>
<polygon fill="white" stroke="transparent" points="-4,4 -4,-211 362,-211 362,4 -4,4"/>
<!-- Node1 -->
<g id="node1" class="node">
<title>Node1</title>
<g id="a_node1"><a xlink:title=" ">
<polygon fill="#bfbfbf" stroke="black" points="92.5,-138.5 92.5,-206.5 265.5,-206.5 265.5,-138.5 92.5,-138.5"/>
<text text-anchor="start" x="100.5" y="-194.5" font-family="Helvetica,sans-Serif" font-size="10.00">de.backxtar.clevercharge.interfaces.</text>
<text text-anchor="middle" x="179" y="-183.5" font-family="Helvetica,sans-Serif" font-size="10.00">RecyclerViewInterface</text>
<polyline fill="none" stroke="black" points="92.5,-176.5 265.5,-176.5 "/>
<text text-anchor="middle" x="179" y="-164.5" font-family="Helvetica,sans-Serif" font-size="10.00"> </text>
<polyline fill="none" stroke="black" points="92.5,-157.5 265.5,-157.5 "/>
<text text-anchor="start" x="100.5" y="-145.5" font-family="Helvetica,sans-Serif" font-size="10.00">+ onItemClick()</text>
</a>
</g>
</g>
<!-- Node2 -->
<g id="node2" class="node">
<title>Node2</title>
<g id="a_node2"><a xlink:href="$da/daa/classde_1_1backxtar_1_1clevercharge_1_1fragments_main_1_1_dev_fragment.html" xlink:title=" ">
<polygon fill="white" stroke="black" points="0,-0.5 0,-101.5 170,-101.5 170,-0.5 0,-0.5"/>
<text text-anchor="start" x="8" y="-89.5" font-family="Helvetica,sans-Serif" font-size="10.00">de.backxtar.clevercharge.fragments</text>
<text text-anchor="middle" x="85" y="-78.5" font-family="Helvetica,sans-Serif" font-size="10.00">Main.DevFragment</text>
<polyline fill="none" stroke="black" points="0,-71.5 170,-71.5 "/>
<text text-anchor="middle" x="85" y="-59.5" font-family="Helvetica,sans-Serif" font-size="10.00"> </text>
<polyline fill="none" stroke="black" points="0,-52.5 170,-52.5 "/>
<text text-anchor="start" x="8" y="-40.5" font-family="Helvetica,sans-Serif" font-size="10.00">+ DevFragment()</text>
<text text-anchor="start" x="8" y="-29.5" font-family="Helvetica,sans-Serif" font-size="10.00">+ onCreate()</text>
<text text-anchor="start" x="8" y="-18.5" font-family="Helvetica,sans-Serif" font-size="10.00">+ onCreateView()</text>
<text text-anchor="start" x="8" y="-7.5" font-family="Helvetica,sans-Serif" font-size="10.00">+ onItemClick()</text>
</a>
</g>
</g>
<!-- Node1&#45;&gt;Node2 -->
<g id="edge1" class="edge">
<title>Node1&#45;&gt;Node2</title>
<path fill="none" stroke="midnightblue" d="M146.59,-130.3C139.33,-121.06 131.55,-111.18 124.05,-101.65"/>
<polygon fill="none" stroke="midnightblue" points="143.88,-132.52 152.82,-138.21 149.38,-128.19 143.88,-132.52"/>
</g>
<!-- Node3 -->
<g id="node3" class="node">
<title>Node3</title>
<g id="a_node3"><a xlink:href="$d3/d46/classde_1_1backxtar_1_1clevercharge_1_1fragments_main_1_1_search_fragment.html" xlink:title=" ">
<polygon fill="white" stroke="black" points="188,-0.5 188,-101.5 358,-101.5 358,-0.5 188,-0.5"/>
<text text-anchor="start" x="196" y="-89.5" font-family="Helvetica,sans-Serif" font-size="10.00">de.backxtar.clevercharge.fragments</text>
<text text-anchor="middle" x="273" y="-78.5" font-family="Helvetica,sans-Serif" font-size="10.00">Main.SearchFragment</text>
<polyline fill="none" stroke="black" points="188,-71.5 358,-71.5 "/>
<text text-anchor="middle" x="273" y="-59.5" font-family="Helvetica,sans-Serif" font-size="10.00"> </text>
<polyline fill="none" stroke="black" points="188,-52.5 358,-52.5 "/>
<text text-anchor="start" x="196" y="-40.5" font-family="Helvetica,sans-Serif" font-size="10.00">+ SearchFragment()</text>
<text text-anchor="start" x="196" y="-29.5" font-family="Helvetica,sans-Serif" font-size="10.00">+ onCreate()</text>
<text text-anchor="start" x="196" y="-18.5" font-family="Helvetica,sans-Serif" font-size="10.00">+ onCreateView()</text>
<text text-anchor="start" x="196" y="-7.5" font-family="Helvetica,sans-Serif" font-size="10.00">+ onItemClick()</text>
</a>
</g>
</g>
<!-- Node1&#45;&gt;Node3 -->
<g id="edge2" class="edge">
<title>Node1&#45;&gt;Node3</title>
<path fill="none" stroke="midnightblue" d="M211.41,-130.3C218.67,-121.06 226.45,-111.18 233.95,-101.65"/>
<polygon fill="none" stroke="midnightblue" points="208.62,-128.19 205.18,-138.21 214.12,-132.52 208.62,-128.19"/>
</g>
</g>
</svg>
