<?xml version="1.0" encoding="UTF-8" standalone="no"?>
<!DOCTYPE svg PUBLIC "-//W3C//DTD SVG 1.1//EN"
 "http://www.w3.org/Graphics/SVG/1.1/DTD/svg11.dtd">
<!-- Generated by graphviz version 2.50.0 (20211204.2007)
 -->
<!-- Title: de.backxtar.clevercharge.services.PopupService.showPopup Pages: 1 -->
<svg width="603pt" height="755pt"
 viewBox="0.00 0.00 603.00 755.00" xmlns="http://www.w3.org/2000/svg" xmlns:xlink="http://www.w3.org/1999/xlink">
<g id="graph0" class="graph" transform="scale(1 1) rotate(0) translate(4 751)">
<title>de.backxtar.clevercharge.services.PopupService.showPopup</title>
<polygon fill="white" stroke="transparent" points="-4,4 -4,-751 599,-751 599,4 -4,4"/>
<!-- Node1 -->
<g id="node1" class="node">
<title>Node1</title>
<g id="a_node1"><a xlink:title=" ">
<polygon fill="#bfbfbf" stroke="black" points="0,-379.5 0,-409.5 166,-409.5 166,-379.5 0,-379.5"/>
<text text-anchor="start" x="8" y="-397.5" font-family="Helvetica,sans-Serif" font-size="10.00">de.backxtar.clevercharge.services.</text>
<text text-anchor="middle" x="83" y="-386.5" font-family="Helvetica,sans-Serif" font-size="10.00">PopupService.showPopup</text>
</a>
</g>
</g>
<!-- Node2 -->
<g id="node2" class="node">
<title>Node2</title>
<g id="a_node2"><a xlink:href="$d7/dd4/classde_1_1backxtar_1_1clevercharge_1_1fragments_main_1_1_map_fragment.html#aebc41ff63d2d8d9bceb12853e7709f77" xlink:title=" ">
<polygon fill="white" stroke="black" points="202,-716.5 202,-746.5 375,-746.5 375,-716.5 202,-716.5"/>
<text text-anchor="start" x="210" y="-734.5" font-family="Helvetica,sans-Serif" font-size="10.00">de.backxtar.clevercharge.fragments</text>
<text text-anchor="middle" x="288.5" y="-723.5" font-family="Helvetica,sans-Serif" font-size="10.00">Main.MapFragment.bitMapFromPng</text>
</a>
</g>
</g>
<!-- Node1&#45;&gt;Node2 -->
<g id="edge1" class="edge">
<title>Node1&#45;&gt;Node2</title>
<path fill="none" stroke="midnightblue" d="M85.41,-409.71C90.78,-459.04 114.33,-616.38 202,-701.5 205.95,-705.34 210.42,-708.68 215.19,-711.6"/>
<polygon fill="midnightblue" stroke="midnightblue" points="213.6,-714.72 224.06,-716.42 216.94,-708.57 213.6,-714.72"/>
</g>
<!-- Node3 -->
<g id="node3" class="node">
<title>Node3</title>
<g id="a_node3"><a xlink:href="$de/d7e/classde_1_1backxtar_1_1clevercharge_1_1managers_1_1_user_manager.html#aa4e7c73b0bb07f0dcf5a612f9bce416a" xlink:title=" ">
<polygon fill="white" stroke="black" points="416.5,-668.5 416.5,-698.5 589.5,-698.5 589.5,-668.5 416.5,-668.5"/>
<text text-anchor="start" x="424.5" y="-686.5" font-family="Helvetica,sans-Serif" font-size="10.00">de.backxtar.clevercharge.managers.</text>
<text text-anchor="middle" x="503" y="-675.5" font-family="Helvetica,sans-Serif" font-size="10.00">UserManager.getApi_data</text>
</a>
</g>
</g>
<!-- Node1&#45;&gt;Node3 -->
<g id="edge2" class="edge">
<title>Node1&#45;&gt;Node3</title>
<path fill="none" stroke="midnightblue" d="M85.2,-409.77C89.87,-457.68 111.39,-605.57 202,-668.5 267.66,-714.1 362.26,-710.47 427.59,-700.21"/>
<polygon fill="midnightblue" stroke="midnightblue" points="428.53,-703.61 437.82,-698.52 427.38,-696.7 428.53,-703.61"/>
</g>
<!-- Node4 -->
<g id="node4" class="node">
<title>Node4</title>
<g id="a_node4"><a xlink:href="$d2/dae/classde_1_1backxtar_1_1clevercharge_1_1data_1_1_charging_station.html#a70b83589966d095b6b632a3d1e3d89d9" xlink:title=" ">
<polygon fill="white" stroke="black" points="211,-502.5 211,-532.5 366,-532.5 366,-502.5 211,-502.5"/>
<text text-anchor="start" x="219" y="-520.5" font-family="Helvetica,sans-Serif" font-size="10.00">de.backxtar.clevercharge.data.</text>
<text text-anchor="middle" x="288.5" y="-509.5" font-family="Helvetica,sans-Serif" font-size="10.00">ChargingStation.getConn_power</text>
</a>
</g>
</g>
<!-- Node1&#45;&gt;Node4 -->
<g id="edge3" class="edge">
<title>Node1&#45;&gt;Node4</title>
<path fill="none" stroke="midnightblue" d="M98.18,-409.69C118.99,-431.12 159.91,-470.12 202,-492.5 206.22,-494.74 210.66,-496.81 215.21,-498.7"/>
<polygon fill="midnightblue" stroke="midnightblue" points="214.09,-502.02 224.68,-502.37 216.61,-495.49 214.09,-502.02"/>
</g>
<!-- Node5 -->
<g id="node5" class="node">
<title>Node5</title>
<g id="a_node5"><a xlink:href="$d0/dbd/classde_1_1backxtar_1_1clevercharge_1_1data_1_1_a_p_i_response.html#a6a9d3a50e360265ecef575ebfaefcc4c" xlink:title=" ">
<polygon fill="white" stroke="black" points="411,-612.5 411,-642.5 595,-642.5 595,-612.5 411,-612.5"/>
<text text-anchor="start" x="419" y="-630.5" font-family="Helvetica,sans-Serif" font-size="10.00">de.backxtar.clevercharge.data.</text>
<text text-anchor="middle" x="503" y="-619.5" font-family="Helvetica,sans-Serif" font-size="10.00">APIResponse.getDefect_stations_map</text>
</a>
</g>
</g>
<!-- Node1&#45;&gt;Node5 -->
<g id="edge4" class="edge">
<title>Node1&#45;&gt;Node5</title>
<path fill="none" stroke="midnightblue" d="M89.16,-409.51C102.05,-444.59 139.23,-532.11 202,-573.5 234.12,-594.68 326.54,-609.22 400.4,-617.83"/>
<polygon fill="midnightblue" stroke="midnightblue" points="400.36,-621.35 410.69,-619.01 401.15,-614.4 400.36,-621.35"/>
</g>
<!-- Node6 -->
<g id="node6" class="node">
<title>Node6</title>
<g id="a_node6"><a xlink:href="$d2/dae/classde_1_1backxtar_1_1clevercharge_1_1data_1_1_charging_station.html#a66043478cfd9a40c66f4e86a7d39748a" xlink:title=" ">
<polygon fill="white" stroke="black" points="214,-453.5 214,-483.5 363,-483.5 363,-453.5 214,-453.5"/>
<text text-anchor="start" x="222" y="-471.5" font-family="Helvetica,sans-Serif" font-size="10.00">de.backxtar.clevercharge.data.</text>
<text text-anchor="middle" x="288.5" y="-460.5" font-family="Helvetica,sans-Serif" font-size="10.00">ChargingStation.getDistance</text>
</a>
</g>
</g>
<!-- Node1&#45;&gt;Node6 -->
<g id="edge5" class="edge">
<title>Node1&#45;&gt;Node6</title>
<path fill="none" stroke="midnightblue" d="M117.45,-409.53C140.86,-419.78 173.03,-433.28 202,-443.5 208.72,-445.87 215.79,-448.2 222.86,-450.42"/>
<polygon fill="midnightblue" stroke="midnightblue" points="221.9,-453.78 232.48,-453.38 223.95,-447.09 221.9,-453.78"/>
</g>
<!-- Node8 -->
<g id="node8" class="node">
<title>Node8</title>
<g id="a_node8"><a xlink:href="$d0/dbd/classde_1_1backxtar_1_1clevercharge_1_1data_1_1_a_p_i_response.html#a1dfa2252e57d3dedcafcd225e709be7f" xlink:title=" ">
<polygon fill="white" stroke="black" points="214,-404.5 214,-434.5 363,-434.5 363,-404.5 214,-404.5"/>
<text text-anchor="start" x="222" y="-422.5" font-family="Helvetica,sans-Serif" font-size="10.00">de.backxtar.clevercharge.data.</text>
<text text-anchor="middle" x="288.5" y="-411.5" font-family="Helvetica,sans-Serif" font-size="10.00">APIResponse.getFavorites</text>
</a>
</g>
</g>
<!-- Node1&#45;&gt;Node8 -->
<g id="edge7" class="edge">
<title>Node1&#45;&gt;Node8</title>
<path fill="none" stroke="midnightblue" d="M166.18,-404.6C178.51,-406.11 191.23,-407.67 203.59,-409.19"/>
<polygon fill="midnightblue" stroke="midnightblue" points="203.52,-412.71 213.87,-410.45 204.37,-405.76 203.52,-412.71"/>
</g>
<!-- Node9 -->
<g id="node9" class="node">
<title>Node9</title>
<g id="a_node9"><a xlink:href="$d2/dae/classde_1_1backxtar_1_1clevercharge_1_1data_1_1_charging_station.html#a52d94922f31a010d91640f14f61d400f" xlink:title=" ">
<polygon fill="white" stroke="black" points="214,-355.5 214,-385.5 363,-385.5 363,-355.5 214,-355.5"/>
<text text-anchor="start" x="222" y="-373.5" font-family="Helvetica,sans-Serif" font-size="10.00">de.backxtar.clevercharge.data.</text>
<text text-anchor="middle" x="288.5" y="-362.5" font-family="Helvetica,sans-Serif" font-size="10.00">ChargingStation.getId</text>
</a>
</g>
</g>
<!-- Node1&#45;&gt;Node9 -->
<g id="edge8" class="edge">
<title>Node1&#45;&gt;Node9</title>
<path fill="none" stroke="midnightblue" d="M166.18,-384.81C178.51,-383.35 191.23,-381.85 203.59,-380.4"/>
<polygon fill="midnightblue" stroke="midnightblue" points="204.35,-383.83 213.87,-379.18 203.53,-376.88 204.35,-383.83"/>
</g>
<!-- Node10 -->
<g id="node10" class="node">
<title>Node10</title>
<g id="a_node10"><a xlink:href="$d2/dae/classde_1_1backxtar_1_1clevercharge_1_1data_1_1_charging_station.html#a46d8eb13339b35d44f74ec14d548ac9b" xlink:title=" ">
<polygon fill="white" stroke="black" points="214,-306.5 214,-336.5 363,-336.5 363,-306.5 214,-306.5"/>
<text text-anchor="start" x="222" y="-324.5" font-family="Helvetica,sans-Serif" font-size="10.00">de.backxtar.clevercharge.data.</text>
<text text-anchor="middle" x="288.5" y="-313.5" font-family="Helvetica,sans-Serif" font-size="10.00">ChargingStation.getLocation</text>
</a>
</g>
</g>
<!-- Node1&#45;&gt;Node10 -->
<g id="edge9" class="edge">
<title>Node1&#45;&gt;Node10</title>
<path fill="none" stroke="midnightblue" d="M117.16,-379.48C140.58,-369.18 172.87,-355.6 202,-345.5 207.93,-343.45 214.13,-341.44 220.37,-339.51"/>
<polygon fill="midnightblue" stroke="midnightblue" points="221.61,-342.8 230.18,-336.57 219.59,-336.09 221.61,-342.8"/>
</g>
<!-- Node11 -->
<g id="node11" class="node">
<title>Node11</title>
<g id="a_node11"><a xlink:href="$d2/dae/classde_1_1backxtar_1_1clevercharge_1_1data_1_1_charging_station.html#abb768a34fbb34b02767bdd1ad2238730" xlink:title=" ">
<polygon fill="white" stroke="black" points="209.5,-257.5 209.5,-287.5 367.5,-287.5 367.5,-257.5 209.5,-257.5"/>
<text text-anchor="start" x="217.5" y="-275.5" font-family="Helvetica,sans-Serif" font-size="10.00">de.backxtar.clevercharge.data.</text>
<text text-anchor="middle" x="288.5" y="-264.5" font-family="Helvetica,sans-Serif" font-size="10.00">ChargingStation.getModule_type</text>
</a>
</g>
</g>
<!-- Node1&#45;&gt;Node11 -->
<g id="edge10" class="edge">
<title>Node1&#45;&gt;Node11</title>
<path fill="none" stroke="midnightblue" d="M98.15,-379.25C118.92,-357.74 159.79,-318.65 202,-296.5 205.51,-294.66 209.17,-292.94 212.93,-291.35"/>
<polygon fill="midnightblue" stroke="midnightblue" points="214.38,-294.54 222.42,-287.64 211.83,-288.02 214.38,-294.54"/>
</g>
<!-- Node12 -->
<g id="node12" class="node">
<title>Node12</title>
<g id="a_node12"><a xlink:href="$d2/dae/classde_1_1backxtar_1_1clevercharge_1_1data_1_1_charging_station.html#a458efa55632d03f2f2c187414bf056ab" xlink:title=" ">
<polygon fill="white" stroke="black" points="214,-208.5 214,-238.5 363,-238.5 363,-208.5 214,-208.5"/>
<text text-anchor="start" x="222" y="-226.5" font-family="Helvetica,sans-Serif" font-size="10.00">de.backxtar.clevercharge.data.</text>
<text text-anchor="middle" x="288.5" y="-215.5" font-family="Helvetica,sans-Serif" font-size="10.00">ChargingStation.getNumber</text>
</a>
</g>
</g>
<!-- Node1&#45;&gt;Node12 -->
<g id="edge11" class="edge">
<title>Node1&#45;&gt;Node12</title>
<path fill="none" stroke="midnightblue" d="M91.84,-379.43C108.16,-349.56 148.76,-282.69 202,-247.5 204.41,-245.91 206.93,-244.42 209.52,-243.03"/>
<polygon fill="midnightblue" stroke="midnightblue" points="211.1,-246.15 218.6,-238.66 208.07,-239.84 211.1,-246.15"/>
</g>
<!-- Node13 -->
<g id="node13" class="node">
<title>Node13</title>
<g id="a_node13"><a xlink:href="$d2/dae/classde_1_1backxtar_1_1clevercharge_1_1data_1_1_charging_station.html#a9666696265fec71203568bae50dca58e" xlink:title=" ">
<polygon fill="white" stroke="black" points="214,-148 214,-189 363,-189 363,-148 214,-148"/>
<text text-anchor="start" x="222" y="-177" font-family="Helvetica,sans-Serif" font-size="10.00">de.backxtar.clevercharge.data.</text>
<text text-anchor="start" x="222" y="-166" font-family="Helvetica,sans-Serif" font-size="10.00">ChargingStation.getNumber</text>
<text text-anchor="middle" x="288.5" y="-155" font-family="Helvetica,sans-Serif" font-size="10.00">_of_connections</text>
</a>
</g>
</g>
<!-- Node1&#45;&gt;Node13 -->
<g id="edge12" class="edge">
<title>Node1&#45;&gt;Node13</title>
<path fill="none" stroke="midnightblue" d="M89.04,-379.32C101.91,-342.82 139.47,-249.4 202,-198.5 203.6,-197.2 205.26,-195.95 206.98,-194.75"/>
<polygon fill="midnightblue" stroke="midnightblue" points="209.26,-197.45 215.9,-189.2 205.56,-191.51 209.26,-197.45"/>
</g>
<!-- Node14 -->
<g id="node14" class="node">
<title>Node14</title>
<g id="a_node14"><a xlink:href="$d2/dae/classde_1_1backxtar_1_1clevercharge_1_1data_1_1_charging_station.html#af753f3a0c179e10f6713c473ea3db300" xlink:title=" ">
<polygon fill="white" stroke="black" points="214,-98.5 214,-128.5 363,-128.5 363,-98.5 214,-98.5"/>
<text text-anchor="start" x="222" y="-116.5" font-family="Helvetica,sans-Serif" font-size="10.00">de.backxtar.clevercharge.data.</text>
<text text-anchor="middle" x="288.5" y="-105.5" font-family="Helvetica,sans-Serif" font-size="10.00">ChargingStation.getOperator</text>
</a>
</g>
</g>
<!-- Node1&#45;&gt;Node14 -->
<g id="edge13" class="edge">
<title>Node1&#45;&gt;Node14</title>
<path fill="none" stroke="midnightblue" d="M86.46,-379.49C94.49,-335.5 123.99,-205.78 202,-138.5 203.95,-136.82 206,-135.25 208.14,-133.79"/>
<polygon fill="midnightblue" stroke="midnightblue" points="209.97,-136.78 216.77,-128.66 206.39,-130.76 209.97,-136.78"/>
</g>
<!-- Node15 -->
<g id="node15" class="node">
<title>Node15</title>
<g id="a_node15"><a xlink:href="$d2/dae/classde_1_1backxtar_1_1clevercharge_1_1data_1_1_charging_station.html#ac3c6cb9ec9ecfe14bb0923d82178bc74" xlink:title=" ">
<polygon fill="white" stroke="black" points="210.5,-49.5 210.5,-79.5 366.5,-79.5 366.5,-49.5 210.5,-49.5"/>
<text text-anchor="start" x="218.5" y="-67.5" font-family="Helvetica,sans-Serif" font-size="10.00">de.backxtar.clevercharge.data.</text>
<text text-anchor="middle" x="288.5" y="-56.5" font-family="Helvetica,sans-Serif" font-size="10.00">ChargingStation.getPostal_code</text>
</a>
</g>
</g>
<!-- Node1&#45;&gt;Node15 -->
<g id="edge14" class="edge">
<title>Node1&#45;&gt;Node15</title>
<path fill="none" stroke="midnightblue" d="M85.18,-379.46C89.87,-329.98 111.66,-170.69 202,-88.5 203.29,-87.32 204.64,-86.2 206.03,-85.14"/>
<polygon fill="midnightblue" stroke="midnightblue" points="208.02,-88.02 214.46,-79.61 204.18,-82.17 208.02,-88.02"/>
</g>
<!-- Node16 -->
<g id="node16" class="node">
<title>Node16</title>
<g id="a_node16"><a xlink:href="$d2/dae/classde_1_1backxtar_1_1clevercharge_1_1data_1_1_charging_station.html#afadcdca20dcbb26ec63f1329d8587fb4" xlink:title=" ">
<polygon fill="white" stroke="black" points="214,-0.5 214,-30.5 363,-30.5 363,-0.5 214,-0.5"/>
<text text-anchor="start" x="222" y="-18.5" font-family="Helvetica,sans-Serif" font-size="10.00">de.backxtar.clevercharge.data.</text>
<text text-anchor="middle" x="288.5" y="-7.5" font-family="Helvetica,sans-Serif" font-size="10.00">ChargingStation.getStreet</text>
</a>
</g>
</g>
<!-- Node1&#45;&gt;Node16 -->
<g id="edge15" class="edge">
<title>Node1&#45;&gt;Node16</title>
<path fill="none" stroke="midnightblue" d="M84.27,-379.44C86.08,-325.08 99.78,-137 202,-39.5 203.12,-38.44 204.27,-37.42 205.47,-36.45"/>
<polygon fill="midnightblue" stroke="midnightblue" points="207.63,-39.21 213.87,-30.65 203.66,-33.45 207.63,-39.21"/>
</g>
<!-- Node17 -->
<g id="node17" class="node">
<title>Node17</title>
<g id="a_node17"><a xlink:href="$d7/d15/classde_1_1backxtar_1_1clevercharge_1_1services_1_1_report_service.html#a00d302af860369770540aacfcd3d4405" xlink:title=" ">
<polygon fill="white" stroke="black" points="205.5,-628.5 205.5,-658.5 371.5,-658.5 371.5,-628.5 205.5,-628.5"/>
<text text-anchor="start" x="213.5" y="-646.5" font-family="Helvetica,sans-Serif" font-size="10.00">de.backxtar.clevercharge.services.</text>
<text text-anchor="middle" x="288.5" y="-635.5" font-family="Helvetica,sans-Serif" font-size="10.00">ReportService.showPopup</text>
</a>
</g>
</g>
<!-- Node1&#45;&gt;Node17 -->
<g id="edge16" class="edge">
<title>Node1&#45;&gt;Node17</title>
<path fill="none" stroke="midnightblue" d="M88,-409.69C99.17,-449.12 134.36,-555.71 202,-613.5 206.6,-617.43 211.74,-620.85 217.16,-623.84"/>
<polygon fill="midnightblue" stroke="midnightblue" points="215.99,-627.16 226.51,-628.45 219.09,-620.89 215.99,-627.16"/>
</g>
<!-- Node18 -->
<g id="node18" class="node">
<title>Node18</title>
<g id="a_node18"><a xlink:href="$d9/dac/classde_1_1backxtar_1_1clevercharge_1_1_main_activity.html#a377aeeb370ac0b59bd79be73c6cdeedd" xlink:title=" ">
<polygon fill="white" stroke="black" points="436,-549.5 436,-579.5 570,-579.5 570,-549.5 436,-549.5"/>
<text text-anchor="start" x="444" y="-567.5" font-family="Helvetica,sans-Serif" font-size="10.00">de.backxtar.clevercharge.</text>
<text text-anchor="middle" x="503" y="-556.5" font-family="Helvetica,sans-Serif" font-size="10.00">MainActivity.updateBadges</text>
</a>
</g>
</g>
<!-- Node1&#45;&gt;Node18 -->
<g id="edge20" class="edge">
<title>Node1&#45;&gt;Node18</title>
<path fill="none" stroke="midnightblue" d="M90.79,-409.65C105.73,-440.93 144.74,-512.29 202,-542.5 271.13,-578.97 361.97,-580.32 425.5,-575.14"/>
<polygon fill="midnightblue" stroke="midnightblue" points="426.2,-578.59 435.85,-574.22 425.58,-571.62 426.2,-578.59"/>
</g>
<!-- Node7 -->
<g id="node7" class="node">
<title>Node7</title>
<g id="a_node7"><a xlink:href="$de/d7e/classde_1_1backxtar_1_1clevercharge_1_1managers_1_1_user_manager.html#ae4f909b33cee9349c04878d1106de0cb" xlink:title=" ">
<polygon fill="white" stroke="black" points="416.5,-453.5 416.5,-483.5 589.5,-483.5 589.5,-453.5 416.5,-453.5"/>
<text text-anchor="start" x="424.5" y="-471.5" font-family="Helvetica,sans-Serif" font-size="10.00">de.backxtar.clevercharge.managers.</text>
<text text-anchor="middle" x="503" y="-460.5" font-family="Helvetica,sans-Serif" font-size="10.00">UserManager.getMyPosition</text>
</a>
</g>
</g>
<!-- Node6&#45;&gt;Node7 -->
<g id="edge6" class="edge">
<title>Node6&#45;&gt;Node7</title>
<path fill="none" stroke="midnightblue" d="M363.23,-468.5C377.02,-468.5 391.62,-468.5 405.97,-468.5"/>
<polygon fill="midnightblue" stroke="midnightblue" points="406.37,-472 416.37,-468.5 406.37,-465 406.37,-472"/>
</g>
<!-- Node17&#45;&gt;Node3 -->
<g id="edge17" class="edge">
<title>Node17&#45;&gt;Node3</title>
<path fill="none" stroke="midnightblue" d="M369.23,-658.51C383.3,-661.16 398.03,-663.93 412.34,-666.62"/>
<polygon fill="midnightblue" stroke="midnightblue" points="411.7,-670.06 422.17,-668.47 412.99,-663.18 411.7,-670.06"/>
</g>
<!-- Node17&#45;&gt;Node5 -->
<g id="edge18" class="edge">
<title>Node17&#45;&gt;Node5</title>
<path fill="none" stroke="midnightblue" d="M371.66,-637.31C381.19,-636.6 391,-635.86 400.75,-635.12"/>
<polygon fill="midnightblue" stroke="midnightblue" points="401.17,-638.6 410.88,-634.36 400.65,-631.62 401.17,-638.6"/>
</g>
<!-- Node17&#45;&gt;Node18 -->
<g id="edge19" class="edge">
<title>Node17&#45;&gt;Node18</title>
<path fill="none" stroke="midnightblue" d="M329.97,-628.45C364.57,-615.59 414.51,-597.02 451.68,-583.21"/>
<polygon fill="midnightblue" stroke="midnightblue" points="453.17,-586.39 461.32,-579.62 450.73,-579.83 453.17,-586.39"/>
</g>
</g>
</svg>
