<?xml version="1.0" encoding="UTF-8" standalone="no"?>
<!DOCTYPE svg PUBLIC "-//W3C//DTD SVG 1.1//EN"
 "http://www.w3.org/Graphics/SVG/1.1/DTD/svg11.dtd">
<!-- Generated by graphviz version 2.50.0 (20211204.2007)
 -->
<!-- Title: de.backxtar.clevercharge.data.ArticleAdapter.onBindViewHolder Pages: 1 -->
<!--zoomable 529 -->
<svg id="main" version="1.1" xmlns="http://www.w3.org/2000/svg" xmlns:xlink="http://www.w3.org/1999/xlink" xml:space="preserve" onload="init(evt)">
<style type="text/css"><![CDATA[
.edge:hover path { stroke: red; }
.edge:hover polygon { stroke: red; fill: red; }
]]></style>
<script type="text/javascript"><![CDATA[
var edges = document.getElementsByTagName('g');
if (edges && edges.length) {
  for (var i=0;i<edges.length;i++) {
    if (edges[i].id.substr(0,4)=='edge') {
      edges[i].setAttribute('class','edge');
    }
  }
}
]]></script>
        <defs>
                <circle id="rim" cx="0" cy="0" r="7"/>
                <circle id="rim2" cx="0" cy="0" r="3.5"/>
                <g id="zoomPlus">
                        <use xlink:href="#rim" fill="#404040">
                                <set attributeName="fill" to="#808080" begin="zoomplus.mouseover" end="zoomplus.mouseout"/>
                        </use>
                        <path d="M-4,0h8M0,-4v8" fill="none" stroke="white" stroke-width="1.5" pointer-events="none"/>
                </g>
                <g id="zoomMin">
                        <use xlink:href="#rim" fill="#404040">
                                <set attributeName="fill" to="#808080" begin="zoomminus.mouseover" end="zoomminus.mouseout"/>
                        </use>
                        <path d="M-4,0h8" fill="none" stroke="white" stroke-width="1.5" pointer-events="none"/>
                </g>
                <g id="dirArrow">
                        <path fill="none" stroke="white" stroke-width="1.5" d="M0,-3.0v7 M-2.5,-0.5L0,-3.0L2.5,-0.5"/>
                </g>
               <g id="resetDef">
                       <use xlink:href="#rim2" fill="#404040">
                               <set attributeName="fill" to="#808080" begin="reset.mouseover" end="reset.mouseout"/>
                       </use>
               </g>
        </defs>

<script type="text/javascript">
var viewWidth = 377;
var viewHeight = 529;
var sectionId = 'dynsection-3';
</script>
<script xlink:href="../../svgpan.js"/>
<svg id="graph" class="graph">
<g id="viewport">
<title>de.backxtar.clevercharge.data.ArticleAdapter.onBindViewHolder</title>
<polygon fill="white" stroke="transparent" points="-4,4 -4,-525 373,-525 373,4 -4,4"/>
<!-- Node1 -->
<g id="node1" class="node">
<title>Node1</title>
<g id="a_node1"><a xlink:title=" ">
<polygon fill="#bfbfbf" stroke="black" points="0,-245.5 0,-275.5 160,-275.5 160,-245.5 0,-245.5"/>
<text text-anchor="start" x="8" y="-263.5" font-family="Helvetica,sans-Serif" font-size="10.00">de.backxtar.clevercharge.data.</text>
<text text-anchor="middle" x="80" y="-252.5" font-family="Helvetica,sans-Serif" font-size="10.00">ArticleAdapter.onBindViewHolder</text>
</a>
</g>
</g>
<!-- Node2 -->
<g id="node2" class="node">
<title>Node2</title>
<g id="a_node2"><a xlink:href="../../de/d7e/classde_1_1backxtar_1_1clevercharge_1_1managers_1_1_user_manager.html#aa4e7c73b0bb07f0dcf5a612f9bce416a" target="_top" xlink:title=" ">
<polygon fill="white" stroke="black" points="196,-490.5 196,-520.5 369,-520.5 369,-490.5 196,-490.5"/>
<text text-anchor="start" x="204" y="-508.5" font-family="Helvetica,sans-Serif" font-size="10.00">de.backxtar.clevercharge.managers.</text>
<text text-anchor="middle" x="282.5" y="-497.5" font-family="Helvetica,sans-Serif" font-size="10.00">UserManager.getApi_data</text>
</a>
</g>
</g>
<!-- Node1&#45;&gt;Node2 -->
<g id="edge1" class="edge">
<title>Node1&#45;&gt;Node2</title>
<path fill="none" stroke="midnightblue" d="M84.46,-275.78C94.37,-315.92 126.68,-425.18 196,-481.5 197.57,-482.78 199.2,-483.98 200.89,-485.13"/>
<polygon fill="midnightblue" stroke="midnightblue" points="199.33,-488.27 209.72,-490.33 202.88,-482.24 199.33,-488.27"/>
</g>
<!-- Node3 -->
<g id="node3" class="node">
<title>Node3</title>
<g id="a_node3"><a xlink:href="../../de/d7e/classde_1_1backxtar_1_1clevercharge_1_1managers_1_1_user_manager.html#aec331a849cb8f78997bafd5432f2115e" target="_top" xlink:title=" ">
<polygon fill="white" stroke="black" points="196,-441.5 196,-471.5 369,-471.5 369,-441.5 196,-441.5"/>
<text text-anchor="start" x="204" y="-459.5" font-family="Helvetica,sans-Serif" font-size="10.00">de.backxtar.clevercharge.managers.</text>
<text text-anchor="middle" x="282.5" y="-448.5" font-family="Helvetica,sans-Serif" font-size="10.00">UserManager.getArticles</text>
</a>
</g>
</g>
<!-- Node1&#45;&gt;Node3 -->
<g id="edge2" class="edge">
<title>Node1&#45;&gt;Node3</title>
<path fill="none" stroke="midnightblue" d="M86.75,-275.54C100.37,-309.06 137.85,-390.32 196,-432.5 198.07,-434.01 200.24,-435.42 202.48,-436.74"/>
<polygon fill="midnightblue" stroke="midnightblue" points="200.93,-439.88 211.41,-441.41 204.17,-433.67 200.93,-439.88"/>
</g>
<!-- Node4 -->
<g id="node4" class="node">
<title>Node4</title>
<g id="a_node4"><a xlink:href="../../d9/dd9/classde_1_1backxtar_1_1clevercharge_1_1data_1_1_article.html#a35402171d2514f06f126c6f7069daa85" target="_top" xlink:title=" ">
<polygon fill="white" stroke="black" points="208,-392.5 208,-422.5 357,-422.5 357,-392.5 208,-392.5"/>
<text text-anchor="start" x="216" y="-410.5" font-family="Helvetica,sans-Serif" font-size="10.00">de.backxtar.clevercharge.data.</text>
<text text-anchor="middle" x="282.5" y="-399.5" font-family="Helvetica,sans-Serif" font-size="10.00">Article.getAuthor</text>
</a>
</g>
</g>
<!-- Node1&#45;&gt;Node4 -->
<g id="edge3" class="edge">
<title>Node1&#45;&gt;Node4</title>
<path fill="none" stroke="midnightblue" d="M91.09,-275.88C109.03,-302 149.04,-354.95 196,-383.5 198.83,-385.22 201.79,-386.82 204.84,-388.31"/>
<polygon fill="midnightblue" stroke="midnightblue" points="203.63,-391.61 214.19,-392.46 206.46,-385.21 203.63,-391.61"/>
</g>
<!-- Node5 -->
<g id="node5" class="node">
<title>Node5</title>
<g id="a_node5"><a xlink:href="../../d9/dd9/classde_1_1backxtar_1_1clevercharge_1_1data_1_1_article.html#a5f9244dacc55e7e020d8984cb44ede0c" target="_top" xlink:title=" ">
<polygon fill="white" stroke="black" points="208,-343.5 208,-373.5 357,-373.5 357,-343.5 208,-343.5"/>
<text text-anchor="start" x="216" y="-361.5" font-family="Helvetica,sans-Serif" font-size="10.00">de.backxtar.clevercharge.data.</text>
<text text-anchor="middle" x="282.5" y="-350.5" font-family="Helvetica,sans-Serif" font-size="10.00">Article.getContent</text>
</a>
</g>
</g>
<!-- Node1&#45;&gt;Node5 -->
<g id="edge4" class="edge">
<title>Node1&#45;&gt;Node5</title>
<path fill="none" stroke="midnightblue" d="M100.32,-275.51C122.37,-292.02 160.06,-318.33 196,-334.5 200.42,-336.49 205.05,-338.35 209.77,-340.09"/>
<polygon fill="midnightblue" stroke="midnightblue" points="208.94,-343.51 219.53,-343.48 211.24,-336.9 208.94,-343.51"/>
</g>
<!-- Node6 -->
<g id="node6" class="node">
<title>Node6</title>
<g id="a_node6"><a xlink:href="../../d9/dd9/classde_1_1backxtar_1_1clevercharge_1_1data_1_1_article.html#a0a5591bcd0baa5b9a3b16c65054feb3d" target="_top" xlink:title=" ">
<polygon fill="white" stroke="black" points="208,-294.5 208,-324.5 357,-324.5 357,-294.5 208,-294.5"/>
<text text-anchor="start" x="216" y="-312.5" font-family="Helvetica,sans-Serif" font-size="10.00">de.backxtar.clevercharge.data.</text>
<text text-anchor="middle" x="282.5" y="-301.5" font-family="Helvetica,sans-Serif" font-size="10.00">Article.getDescription</text>
</a>
</g>
</g>
<!-- Node1&#45;&gt;Node6 -->
<g id="edge5" class="edge">
<title>Node1&#45;&gt;Node6</title>
<path fill="none" stroke="midnightblue" d="M142.52,-275.53C163.88,-280.76 188.02,-286.65 210.11,-292.05"/>
<polygon fill="midnightblue" stroke="midnightblue" points="209.55,-295.52 220.1,-294.49 211.21,-288.72 209.55,-295.52"/>
</g>
<!-- Node7 -->
<g id="node7" class="node">
<title>Node7</title>
<g id="a_node7"><a xlink:href="../../d9/dd9/classde_1_1backxtar_1_1clevercharge_1_1data_1_1_article.html#ade52c2932db39a707e0ba2087584885b" target="_top" xlink:title=" ">
<polygon fill="white" stroke="black" points="208,-245.5 208,-275.5 357,-275.5 357,-245.5 208,-245.5"/>
<text text-anchor="start" x="216" y="-263.5" font-family="Helvetica,sans-Serif" font-size="10.00">de.backxtar.clevercharge.data.</text>
<text text-anchor="middle" x="282.5" y="-252.5" font-family="Helvetica,sans-Serif" font-size="10.00">Article.getId</text>
</a>
</g>
</g>
<!-- Node1&#45;&gt;Node7 -->
<g id="edge6" class="edge">
<title>Node1&#45;&gt;Node7</title>
<path fill="none" stroke="midnightblue" d="M160.24,-260.5C172.47,-260.5 185.14,-260.5 197.47,-260.5"/>
<polygon fill="midnightblue" stroke="midnightblue" points="197.73,-264 207.73,-260.5 197.73,-257 197.73,-264"/>
</g>
<!-- Node8 -->
<g id="node8" class="node">
<title>Node8</title>
<g id="a_node8"><a xlink:href="../../d0/dbd/classde_1_1backxtar_1_1clevercharge_1_1data_1_1_a_p_i_response.html#ac49a16a4f8a09b721496c6b6e3037cb4" target="_top" xlink:title=" ">
<polygon fill="white" stroke="black" points="203.5,-196.5 203.5,-226.5 361.5,-226.5 361.5,-196.5 203.5,-196.5"/>
<text text-anchor="start" x="211.5" y="-214.5" font-family="Helvetica,sans-Serif" font-size="10.00">de.backxtar.clevercharge.data.</text>
<text text-anchor="middle" x="282.5" y="-203.5" font-family="Helvetica,sans-Serif" font-size="10.00">APIResponse.getNews_read_ids</text>
</a>
</g>
</g>
<!-- Node1&#45;&gt;Node8 -->
<g id="edge7" class="edge">
<title>Node1&#45;&gt;Node8</title>
<path fill="none" stroke="midnightblue" d="M142.52,-245.47C163.88,-240.24 188.02,-234.35 210.11,-228.95"/>
<polygon fill="midnightblue" stroke="midnightblue" points="211.21,-232.28 220.1,-226.51 209.55,-225.48 211.21,-232.28"/>
</g>
<!-- Node9 -->
<g id="node9" class="node">
<title>Node9</title>
<g id="a_node9"><a xlink:href="../../d9/dd9/classde_1_1backxtar_1_1clevercharge_1_1data_1_1_article.html#a1c3840686f87d0a95571f256fa23ea1b" target="_top" xlink:title=" ">
<polygon fill="white" stroke="black" points="208,-147.5 208,-177.5 357,-177.5 357,-147.5 208,-147.5"/>
<text text-anchor="start" x="216" y="-165.5" font-family="Helvetica,sans-Serif" font-size="10.00">de.backxtar.clevercharge.data.</text>
<text text-anchor="middle" x="282.5" y="-154.5" font-family="Helvetica,sans-Serif" font-size="10.00">Article.getPublishedAt</text>
</a>
</g>
</g>
<!-- Node1&#45;&gt;Node9 -->
<g id="edge8" class="edge">
<title>Node1&#45;&gt;Node9</title>
<path fill="none" stroke="midnightblue" d="M100.79,-245.48C122.95,-229.26 160.45,-203.59 196,-187.5 201.24,-185.13 206.75,-182.92 212.36,-180.88"/>
<polygon fill="midnightblue" stroke="midnightblue" points="213.54,-184.17 221.84,-177.59 211.25,-177.56 213.54,-184.17"/>
</g>
<!-- Node10 -->
<g id="node10" class="node">
<title>Node10</title>
<g id="a_node10"><a xlink:href="../../d9/dd9/classde_1_1backxtar_1_1clevercharge_1_1data_1_1_article.html#a3f96833b87f7eb27de73b6cc03c3b270" target="_top" xlink:title=" ">
<polygon fill="white" stroke="black" points="208,-98.5 208,-128.5 357,-128.5 357,-98.5 208,-98.5"/>
<text text-anchor="start" x="216" y="-116.5" font-family="Helvetica,sans-Serif" font-size="10.00">de.backxtar.clevercharge.data.</text>
<text text-anchor="middle" x="282.5" y="-105.5" font-family="Helvetica,sans-Serif" font-size="10.00">Article.getTitle</text>
</a>
</g>
</g>
<!-- Node1&#45;&gt;Node10 -->
<g id="edge9" class="edge">
<title>Node1&#45;&gt;Node10</title>
<path fill="none" stroke="midnightblue" d="M91.15,-245.3C109.19,-219.48 149.34,-167.09 196,-138.5 199.56,-136.32 203.32,-134.32 207.2,-132.49"/>
<polygon fill="midnightblue" stroke="midnightblue" points="208.63,-135.68 216.43,-128.51 205.86,-129.25 208.63,-135.68"/>
</g>
<!-- Node11 -->
<g id="node11" class="node">
<title>Node11</title>
<g id="a_node11"><a xlink:href="../../d9/dd9/classde_1_1backxtar_1_1clevercharge_1_1data_1_1_article.html#a71c5f421f8f115d5967a4b289d70ad31" target="_top" xlink:title=" ">
<polygon fill="white" stroke="black" points="208,-49.5 208,-79.5 357,-79.5 357,-49.5 208,-49.5"/>
<text text-anchor="start" x="216" y="-67.5" font-family="Helvetica,sans-Serif" font-size="10.00">de.backxtar.clevercharge.data.</text>
<text text-anchor="middle" x="282.5" y="-56.5" font-family="Helvetica,sans-Serif" font-size="10.00">Article.getUrlToImage</text>
</a>
</g>
</g>
<!-- Node1&#45;&gt;Node11 -->
<g id="edge10" class="edge">
<title>Node1&#45;&gt;Node11</title>
<path fill="none" stroke="midnightblue" d="M86.91,-245.35C100.73,-211.95 138.4,-131.64 196,-89.5 198.54,-87.64 201.21,-85.92 203.99,-84.33"/>
<polygon fill="midnightblue" stroke="midnightblue" points="205.82,-87.32 213.14,-79.66 202.64,-81.09 205.82,-87.32"/>
</g>
<!-- Node12 -->
<g id="node12" class="node">
<title>Node12</title>
<g id="a_node12"><a xlink:href="../../d9/dac/classde_1_1backxtar_1_1clevercharge_1_1_main_activity.html#a377aeeb370ac0b59bd79be73c6cdeedd" target="_top" xlink:title=" ">
<polygon fill="white" stroke="black" points="215.5,-0.5 215.5,-30.5 349.5,-30.5 349.5,-0.5 215.5,-0.5"/>
<text text-anchor="start" x="223.5" y="-18.5" font-family="Helvetica,sans-Serif" font-size="10.00">de.backxtar.clevercharge.</text>
<text text-anchor="middle" x="282.5" y="-7.5" font-family="Helvetica,sans-Serif" font-size="10.00">MainActivity.updateBadges</text>
</a>
</g>
</g>
<!-- Node1&#45;&gt;Node12 -->
<g id="edge11" class="edge">
<title>Node1&#45;&gt;Node12</title>
<path fill="none" stroke="midnightblue" d="M84.52,-245.33C94.56,-205.47 127.18,-96.93 196,-40.5 199.14,-37.93 202.53,-35.62 206.1,-33.55"/>
<polygon fill="midnightblue" stroke="midnightblue" points="207.94,-36.53 215.26,-28.87 204.76,-30.3 207.94,-36.53"/>
</g>
</g>
</svg>
        <g id="navigator" transform="translate(0 0)" fill="#404254">
                <rect fill="#f2f5e9" fill-opacity="0.5" stroke="#606060" stroke-width=".5" x="0" y="0" width="60" height="60"/>
                <use id="zoomplus" xlink:href="#zoomPlus" x="17" y="9" onmousedown="handleZoom(evt,'in')"/>
                <use id="zoomminus" xlink:href="#zoomMin" x="42" y="9" onmousedown="handleZoom(evt,'out')"/>
                <use id="reset" xlink:href="#resetDef" x="30" y="36" onmousedown="handleReset()"/>
                <g id="arrowUp" xlink:href="#dirArrow" transform="translate(30 24)" onmousedown="handlePan(0,-1)">
                  <use xlink:href="#rim" fill="#404040">
                        <set attributeName="fill" to="#808080" begin="arrowUp.mouseover" end="arrowUp.mouseout"/>
                  </use>
                  <path fill="none" stroke="white" stroke-width="1.5" d="M0,-3.0v7 M-2.5,-0.5L0,-3.0L2.5,-0.5"/>
                </g>
                <g id="arrowRight" xlink:href="#dirArrow" transform="rotate(90) translate(36 -43)" onmousedown="handlePan(1,0)">
                  <use xlink:href="#rim" fill="#404040">
                        <set attributeName="fill" to="#808080" begin="arrowRight.mouseover" end="arrowRight.mouseout"/>
                  </use>
                  <path fill="none" stroke="white" stroke-width="1.5" d="M0,-3.0v7 M-2.5,-0.5L0,-3.0L2.5,-0.5"/>
                </g>
                <g id="arrowDown" xlink:href="#dirArrow" transform="rotate(180) translate(-30 -48)" onmousedown="handlePan(0,1)">
                  <use xlink:href="#rim" fill="#404040">
                        <set attributeName="fill" to="#808080" begin="arrowDown.mouseover" end="arrowDown.mouseout"/>
                  </use>
                  <path fill="none" stroke="white" stroke-width="1.5" d="M0,-3.0v7 M-2.5,-0.5L0,-3.0L2.5,-0.5"/>
                </g>
                <g id="arrowLeft" xlink:href="#dirArrow" transform="rotate(270) translate(-36 17)" onmousedown="handlePan(-1,0)">
                  <use xlink:href="#rim" fill="#404040">
                        <set attributeName="fill" to="#808080" begin="arrowLeft.mouseover" end="arrowLeft.mouseout"/>
                  </use>
                  <path fill="none" stroke="white" stroke-width="1.5" d="M0,-3.0v7 M-2.5,-0.5L0,-3.0L2.5,-0.5"/>
                </g>
        </g>
        <svg viewBox="0 0 15 15" width="100%" height="30px" preserveAspectRatio="xMaxYMin meet">
         <g id="arrow_out" transform="scale(0.3 0.3)">
          <a xlink:href="classde_1_1backxtar_1_1clevercharge_1_1data_1_1_article_adapter_af6595dbe29147ff3c8f9c669f9e5c55a_cgraph_org.svg" target="_base">
           <rect id="button" ry="5" rx="5" y="6" x="6" height="38" width="38"
                fill="#f2f5e9" fill-opacity="0.5" stroke="#606060" stroke-width="1.0"/>
           <path id="arrow"
             d="M 11.500037,31.436501 C 11.940474,20.09759 22.043105,11.32322 32.158766,21.979434 L 37.068811,17.246167 C 37.068811,17.246167 37.088388,32 37.088388,32 L 22.160133,31.978069 C 22.160133,31.978069 26.997745,27.140456 26.997745,27.140456 C 18.528582,18.264221 13.291696,25.230495 11.500037,31.436501 z"
             style="fill:#404040;"/>
          </a>
         </g>
        </svg>
</svg>
