<?xml version="1.0" encoding="UTF-8" standalone="no"?>
<!DOCTYPE svg PUBLIC "-//W3C//DTD SVG 1.1//EN"
 "http://www.w3.org/Graphics/SVG/1.1/DTD/svg11.dtd">
<!-- Generated by graphviz version 2.50.0 (20211204.2007)
 -->
<!-- Title: D:/Users/joerg/Dropbox/FH Darmstadt/nutzerzentrierte&#45;softwareentwicklung/source/app/src/main/java/de/backxtar/clevercharge Pages: 1 -->
<svg width="627pt" height="111pt"
 viewBox="0.00 0.00 627.00 111.00" xmlns="http://www.w3.org/2000/svg" xmlns:xlink="http://www.w3.org/1999/xlink">
<g id="graph0" class="graph" transform="scale(1 1) rotate(0) translate(4 107)">
<title>D:/Users/joerg/Dropbox/FH Darmstadt/nutzerzentrierte&#45;softwareentwicklung/source/app/src/main/java/de/backxtar/clevercharge</title>
<polygon fill="white" stroke="transparent" points="-4,4 -4,-107 623,-107 623,4 -4,4"/>
<g id="clust1" class="cluster">
<title>clusterdir_4e81e5a03650c674ccce1e9d62aa1ff3</title>
<g id="a_clust1"><a xlink:href="dir_4e81e5a03650c674ccce1e9d62aa1ff3.html" xlink:title="backxtar">
<polygon fill="#eef2f9" stroke="#7f7f7f" stroke-dasharray="5,2" points="8,-8 8,-95 611,-95 611,-8 8,-8"/>
<text text-anchor="middle" x="309.5" y="-83" font-family="Helvetica,sans-Serif" font-size="10.00">backxtar</text>
</a>
</g>
</g>
<g id="clust2" class="cluster">
<title>clusterdir_bce1ff9d3897734f0a9d16bce71c5517</title>
<g id="a_clust2"><a xlink:href="dir_bce1ff9d3897734f0a9d16bce71c5517.html">
<polygon fill="#eef2f9" stroke="#404040" stroke-width="2" points="16,-16 16,-68 603,-68 603,-16 16,-16"/>
</a>
</g>
</g>
<!-- dir_bce1ff9d3897734f0a9d16bce71c5517 -->
<g id="node1" class="node">
<title>dir_bce1ff9d3897734f0a9d16bce71c5517</title>
<text text-anchor="middle" x="559" y="-39.5" font-family="Helvetica,sans-Serif" font-size="10.00">clevercharge</text>
</g>
<!-- dir_7bdb71a19edb84b0e2b1af166d1170cb -->
<g id="node2" class="node">
<title>dir_7bdb71a19edb84b0e2b1af166d1170cb</title>
<g id="a_node2"><a xlink:href="dir_7bdb71a19edb84b0e2b1af166d1170cb.html" xlink:title="data">
<polygon fill="#a8bee0" stroke="#404040" points="505,-60 451,-60 451,-24 505,-24 505,-60"/>
<text text-anchor="middle" x="478" y="-39.5" font-family="Helvetica,sans-Serif" font-size="10.00">data</text>
</a>
</g>
</g>
<!-- dir_c2799160278c18bc730992cd48735db6 -->
<g id="node3" class="node">
<title>dir_c2799160278c18bc730992cd48735db6</title>
<g id="a_node3"><a xlink:href="dir_c2799160278c18bc730992cd48735db6.html" xlink:title="fragmentsLogin">
<polygon fill="#a8bee0" stroke="#404040" points="432.5,-60 349.5,-60 349.5,-24 432.5,-24 432.5,-60"/>
<text text-anchor="middle" x="391" y="-39.5" font-family="Helvetica,sans-Serif" font-size="10.00">fragmentsLogin</text>
</a>
</g>
</g>
<!-- dir_5bfed53de6304aeb71e3c3c6718524c5 -->
<g id="node4" class="node">
<title>dir_5bfed53de6304aeb71e3c3c6718524c5</title>
<g id="a_node4"><a xlink:href="dir_5bfed53de6304aeb71e3c3c6718524c5.html" xlink:title="fragmentsMain">
<polygon fill="#a8bee0" stroke="#404040" points="331,-60 251,-60 251,-24 331,-24 331,-60"/>
<text text-anchor="middle" x="291" y="-39.5" font-family="Helvetica,sans-Serif" font-size="10.00">fragmentsMain</text>
</a>
</g>
</g>
<!-- dir_48b95da53ff35e73307d5da0bf4629c7 -->
<g id="node5" class="node">
<title>dir_48b95da53ff35e73307d5da0bf4629c7</title>
<g id="a_node5"><a xlink:href="dir_48b95da53ff35e73307d5da0bf4629c7.html" xlink:title="interfaces">
<polygon fill="#a8bee0" stroke="#404040" points="232.5,-60 173.5,-60 173.5,-24 232.5,-24 232.5,-60"/>
<text text-anchor="middle" x="203" y="-39.5" font-family="Helvetica,sans-Serif" font-size="10.00">interfaces</text>
</a>
</g>
</g>
<!-- dir_38d5e106a370b5628a71e85b703cf23c -->
<g id="node6" class="node">
<title>dir_38d5e106a370b5628a71e85b703cf23c</title>
<g id="a_node6"><a xlink:href="dir_38d5e106a370b5628a71e85b703cf23c.html" xlink:title="managers">
<polygon fill="#a8bee0" stroke="#404040" points="155.5,-60 96.5,-60 96.5,-24 155.5,-24 155.5,-60"/>
<text text-anchor="middle" x="126" y="-39.5" font-family="Helvetica,sans-Serif" font-size="10.00">managers</text>
</a>
</g>
</g>
<!-- dir_1355f9ae0b44fbf38a8817ce95e086bf -->
<g id="node7" class="node">
<title>dir_1355f9ae0b44fbf38a8817ce95e086bf</title>
<g id="a_node7"><a xlink:href="dir_1355f9ae0b44fbf38a8817ce95e086bf.html" xlink:title="services">
<polygon fill="#a8bee0" stroke="#404040" points="78,-60 24,-60 24,-24 78,-24 78,-60"/>
<text text-anchor="middle" x="51" y="-39.5" font-family="Helvetica,sans-Serif" font-size="10.00">services</text>
</a>
</g>
</g>
</g>
</svg>
