<?xml version="1.0" encoding="UTF-8" standalone="no"?>
<!DOCTYPE svg PUBLIC "-//W3C//DTD SVG 1.1//EN"
 "http://www.w3.org/Graphics/SVG/1.1/DTD/svg11.dtd">
<!-- Generated by graphviz version 2.50.0 (20211204.2007)
 -->
<!-- Title: D:/Users/joerg/Dropbox/FH Darmstadt/nutzerzentrierte&#45;softwareentwicklung/source/app Pages: 1 -->
<svg width="254pt" height="111pt"
 viewBox="0.00 0.00 254.00 111.00" xmlns="http://www.w3.org/2000/svg" xmlns:xlink="http://www.w3.org/1999/xlink">
<g id="graph0" class="graph" transform="scale(1 1) rotate(0) translate(4 107)">
<title>D:/Users/joerg/Dropbox/FH Darmstadt/nutzerzentrierte&#45;softwareentwicklung/source/app</title>
<polygon fill="white" stroke="transparent" points="-4,4 -4,-107 250,-107 250,4 -4,4"/>
<g id="clust1" class="cluster">
<title>clusterdir_b2f33c71d4aa5e7af42a1ca61ff5af1b</title>
<g id="a_clust1"><a xlink:href="dir_b2f33c71d4aa5e7af42a1ca61ff5af1b.html" xlink:title="source">
<polygon fill="#eef2f9" stroke="#404040" stroke-dasharray="5,2" points="8,-8 8,-95 238,-95 238,-8 8,-8"/>
<text text-anchor="middle" x="123" y="-83" font-family="Helvetica,sans-Serif" font-size="10.00">source</text>
</a>
</g>
</g>
<g id="clust2" class="cluster">
<title>clusterdir_361898d03ae3cb58056ee2cf20f54b82</title>
<g id="a_clust2"><a xlink:href="dir_361898d03ae3cb58056ee2cf20f54b82.html">
<polygon fill="#eef2f9" stroke="#404040" stroke-width="2" points="16,-16 16,-68 230,-68 230,-16 16,-16"/>
</a>
</g>
</g>
<!-- dir_361898d03ae3cb58056ee2cf20f54b82 -->
<g id="node1" class="node">
<title>dir_361898d03ae3cb58056ee2cf20f54b82</title>
<text text-anchor="middle" x="195" y="-39.5" font-family="Helvetica,sans-Serif" font-size="10.00">app</text>
</g>
<!-- dir_80dd03cbd7a1d2f1580cdfb6b3a2a3a1 -->
<g id="node2" class="node">
<title>dir_80dd03cbd7a1d2f1580cdfb6b3a2a3a1</title>
<g id="a_node2"><a xlink:href="dir_80dd03cbd7a1d2f1580cdfb6b3a2a3a1.html" xlink:title="build">
<polygon fill="#a8bee0" stroke="#404040" points="150,-60 96,-60 96,-24 150,-24 150,-60"/>
<text text-anchor="middle" x="123" y="-39.5" font-family="Helvetica,sans-Serif" font-size="10.00">build</text>
</a>
</g>
</g>
<!-- dir_4fb74d2df8258aef6a968d18419b09f2 -->
<g id="node3" class="node">
<title>dir_4fb74d2df8258aef6a968d18419b09f2</title>
<g id="a_node3"><a xlink:href="dir_4fb74d2df8258aef6a968d18419b09f2.html" xlink:title="src">
<polygon fill="#a8bee0" stroke="#404040" points="78,-60 24,-60 24,-24 78,-24 78,-60"/>
<text text-anchor="middle" x="51" y="-39.5" font-family="Helvetica,sans-Serif" font-size="10.00">src</text>
</a>
</g>
</g>
</g>
</svg>
