<?xml version="1.0" encoding="UTF-8" standalone="no"?>
<!DOCTYPE svg PUBLIC "-//W3C//DTD SVG 1.1//EN"
 "http://www.w3.org/Graphics/SVG/1.1/DTD/svg11.dtd">
<!-- Generated by graphviz version 2.50.0 (20211204.2007)
 -->
<!-- Title: de.backxtar.clevercharge.data.APIResponse.getDefect_stations_map Pages: 1 -->
<svg width="840pt" height="178pt"
 viewBox="0.00 0.00 840.00 178.00" xmlns="http://www.w3.org/2000/svg" xmlns:xlink="http://www.w3.org/1999/xlink">
<g id="graph0" class="graph" transform="scale(1 1) rotate(0) translate(4 174)">
<title>de.backxtar.clevercharge.data.APIResponse.getDefect_stations_map</title>
<polygon fill="white" stroke="transparent" points="-4,4 -4,-174 836,-174 836,4 -4,4"/>
<!-- Node1 -->
<g id="node1" class="node">
<title>Node1</title>
<g id="a_node1"><a xlink:title=" ">
<polygon fill="#bfbfbf" stroke="black" points="648,-68.5 648,-98.5 832,-98.5 832,-68.5 648,-68.5"/>
<text text-anchor="start" x="656" y="-86.5" font-family="Helvetica,sans-Serif" font-size="10.00">de.backxtar.clevercharge.data.</text>
<text text-anchor="middle" x="740" y="-75.5" font-family="Helvetica,sans-Serif" font-size="10.00">APIResponse.getDefect_stations_map</text>
</a>
</g>
</g>
<!-- Node2 -->
<g id="node2" class="node">
<title>Node2</title>
<g id="a_node2"><a xlink:href="$d2/d96/classde_1_1backxtar_1_1clevercharge_1_1managers_1_1_station_manager.html#a84363e55138545c015867ac16fa9c50a" xlink:title=" ">
<polygon fill="white" stroke="black" points="427,-139.5 427,-169.5 600,-169.5 600,-139.5 427,-139.5"/>
<text text-anchor="start" x="435" y="-157.5" font-family="Helvetica,sans-Serif" font-size="10.00">de.backxtar.clevercharge.managers.</text>
<text text-anchor="middle" x="513.5" y="-146.5" font-family="Helvetica,sans-Serif" font-size="10.00">StationManager.getDefects</text>
</a>
</g>
</g>
<!-- Node1&#45;&gt;Node2 -->
<g id="edge1" class="edge">
<title>Node1&#45;&gt;Node2</title>
<path fill="none" stroke="midnightblue" d="M692.37,-102.2C668.55,-111.38 638.96,-122.22 612,-130.5 601.75,-133.65 590.8,-136.67 580.07,-139.44"/>
<polygon fill="midnightblue" stroke="midnightblue" points="693.82,-105.39 701.87,-98.51 691.28,-98.86 693.82,-105.39"/>
</g>
<!-- Node4 -->
<g id="node4" class="node">
<title>Node4</title>
<g id="a_node4"><a xlink:href="$d8/d60/classde_1_1backxtar_1_1clevercharge_1_1data_1_1_charging_station_adapter.html#aa14214e3e8413471450d01c310dcd9b6" xlink:title=" ">
<polygon fill="white" stroke="black" points="415,-90.5 415,-120.5 612,-120.5 612,-90.5 415,-90.5"/>
<text text-anchor="start" x="423" y="-108.5" font-family="Helvetica,sans-Serif" font-size="10.00">de.backxtar.clevercharge.data.</text>
<text text-anchor="middle" x="513.5" y="-97.5" font-family="Helvetica,sans-Serif" font-size="10.00">ChargingStationAdapter.getItemViewType</text>
</a>
</g>
</g>
<!-- Node1&#45;&gt;Node4 -->
<g id="edge3" class="edge">
<title>Node1&#45;&gt;Node4</title>
<path fill="none" stroke="midnightblue" d="M637.52,-93.45C629.13,-94.27 620.67,-95.1 612.32,-95.91"/>
<polygon fill="midnightblue" stroke="midnightblue" points="638.08,-96.91 647.69,-92.45 637.39,-89.94 638.08,-96.91"/>
</g>
<!-- Node5 -->
<g id="node5" class="node">
<title>Node5</title>
<g id="a_node5"><a xlink:href="$d9/dc7/classde_1_1backxtar_1_1clevercharge_1_1services_1_1_popup_service.html#af74f3ec6cd6fb55d81a1938af49efdd8" xlink:title=" ">
<polygon fill="white" stroke="black" points="209.5,-24.5 209.5,-54.5 375.5,-54.5 375.5,-24.5 209.5,-24.5"/>
<text text-anchor="start" x="217.5" y="-42.5" font-family="Helvetica,sans-Serif" font-size="10.00">de.backxtar.clevercharge.services.</text>
<text text-anchor="middle" x="292.5" y="-31.5" font-family="Helvetica,sans-Serif" font-size="10.00">PopupService.showPopup</text>
</a>
</g>
</g>
<!-- Node1&#45;&gt;Node5 -->
<g id="edge4" class="edge">
<title>Node1&#45;&gt;Node5</title>
<path fill="none" stroke="midnightblue" d="M637.76,-73.5C558.46,-65.67 449.54,-54.91 375.6,-47.61"/>
<polygon fill="midnightblue" stroke="midnightblue" points="637.48,-76.99 647.77,-74.49 638.16,-70.02 637.48,-76.99"/>
</g>
<!-- Node8 -->
<g id="node8" class="node">
<title>Node8</title>
<g id="a_node8"><a xlink:href="$d7/d15/classde_1_1backxtar_1_1clevercharge_1_1services_1_1_report_service.html#a00d302af860369770540aacfcd3d4405" xlink:title=" ">
<polygon fill="white" stroke="black" points="430.5,-2.5 430.5,-32.5 596.5,-32.5 596.5,-2.5 430.5,-2.5"/>
<text text-anchor="start" x="438.5" y="-20.5" font-family="Helvetica,sans-Serif" font-size="10.00">de.backxtar.clevercharge.services.</text>
<text text-anchor="middle" x="513.5" y="-9.5" font-family="Helvetica,sans-Serif" font-size="10.00">ReportService.showPopup</text>
</a>
</g>
</g>
<!-- Node1&#45;&gt;Node8 -->
<g id="edge7" class="edge">
<title>Node1&#45;&gt;Node8</title>
<path fill="none" stroke="midnightblue" d="M678.11,-65.6C642.98,-55.27 599.28,-42.43 565.89,-32.61"/>
<polygon fill="midnightblue" stroke="midnightblue" points="677.2,-68.98 687.78,-68.44 679.17,-62.26 677.2,-68.98"/>
</g>
<!-- Node3 -->
<g id="node3" class="node">
<title>Node3</title>
<g id="a_node3"><a xlink:href="$d2/d96/classde_1_1backxtar_1_1clevercharge_1_1managers_1_1_station_manager.html#a2deb1b9045b98fec83251a5384717dd8" xlink:title=" ">
<polygon fill="white" stroke="black" points="206,-139.5 206,-169.5 379,-169.5 379,-139.5 206,-139.5"/>
<text text-anchor="start" x="214" y="-157.5" font-family="Helvetica,sans-Serif" font-size="10.00">de.backxtar.clevercharge.managers.</text>
<text text-anchor="middle" x="292.5" y="-146.5" font-family="Helvetica,sans-Serif" font-size="10.00">StationManager.getLocalDefects</text>
</a>
</g>
</g>
<!-- Node2&#45;&gt;Node3 -->
<g id="edge2" class="edge">
<title>Node2&#45;&gt;Node3</title>
<path fill="none" stroke="midnightblue" d="M416.86,-154.5C404.28,-154.5 391.45,-154.5 379.05,-154.5"/>
<polygon fill="midnightblue" stroke="midnightblue" points="416.89,-158 426.89,-154.5 416.89,-151 416.89,-158"/>
</g>
<!-- Node6 -->
<g id="node6" class="node">
<title>Node6</title>
<g id="a_node6"><a xlink:href="$da/daa/classde_1_1backxtar_1_1clevercharge_1_1fragments_main_1_1_dev_fragment.html#ac0dce7e1f324fc5bdfc3ee7a4558b99a" xlink:title=" ">
<polygon fill="white" stroke="black" points="0,-49.5 0,-79.5 170,-79.5 170,-49.5 0,-49.5"/>
<text text-anchor="start" x="8" y="-67.5" font-family="Helvetica,sans-Serif" font-size="10.00">de.backxtar.clevercharge.fragments</text>
<text text-anchor="middle" x="85" y="-56.5" font-family="Helvetica,sans-Serif" font-size="10.00">Main.DevFragment.onItemClick</text>
</a>
</g>
</g>
<!-- Node5&#45;&gt;Node6 -->
<g id="edge5" class="edge">
<title>Node5&#45;&gt;Node6</title>
<path fill="none" stroke="midnightblue" d="M199.38,-50.71C189.7,-51.88 179.9,-53.08 170.33,-54.24"/>
<polygon fill="midnightblue" stroke="midnightblue" points="199.89,-54.17 209.4,-49.49 199.05,-47.22 199.89,-54.17"/>
</g>
<!-- Node7 -->
<g id="node7" class="node">
<title>Node7</title>
<g id="a_node7"><a xlink:href="$d3/d46/classde_1_1backxtar_1_1clevercharge_1_1fragments_main_1_1_search_fragment.html#ad13d718f135a39e029721ffe65f4f909" xlink:title=" ">
<polygon fill="white" stroke="black" points="0,-0.5 0,-30.5 170,-30.5 170,-0.5 0,-0.5"/>
<text text-anchor="start" x="8" y="-18.5" font-family="Helvetica,sans-Serif" font-size="10.00">de.backxtar.clevercharge.fragments</text>
<text text-anchor="middle" x="85" y="-7.5" font-family="Helvetica,sans-Serif" font-size="10.00">Main.SearchFragment.onItemClick</text>
</a>
</g>
</g>
<!-- Node5&#45;&gt;Node7 -->
<g id="edge6" class="edge">
<title>Node5&#45;&gt;Node7</title>
<path fill="none" stroke="midnightblue" d="M199.38,-28.74C189.7,-27.61 179.9,-26.47 170.33,-25.35"/>
<polygon fill="midnightblue" stroke="midnightblue" points="199.06,-32.23 209.4,-29.91 199.87,-25.27 199.06,-32.23"/>
</g>
<!-- Node8&#45;&gt;Node5 -->
<g id="edge8" class="edge">
<title>Node8&#45;&gt;Node5</title>
<path fill="none" stroke="midnightblue" d="M420.2,-26.77C405.45,-28.25 390.27,-29.78 375.77,-31.24"/>
<polygon fill="midnightblue" stroke="midnightblue" points="420.73,-30.24 430.33,-25.75 420.03,-23.27 420.73,-30.24"/>
</g>
</g>
</svg>
