<?xml version="1.0" encoding="UTF-8" standalone="no"?>
<!DOCTYPE svg PUBLIC "-//W3C//DTD SVG 1.1//EN"
 "http://www.w3.org/Graphics/SVG/1.1/DTD/svg11.dtd">
<!-- Generated by graphviz version 2.50.0 (20211204.2007)
 -->
<!-- Title: de.backxtar.clevercharge.MainActivity.onRequestPermissionsResult Pages: 1 -->
<svg width="383pt" height="50pt"
 viewBox="0.00 0.00 383.00 50.00" xmlns="http://www.w3.org/2000/svg" xmlns:xlink="http://www.w3.org/1999/xlink">
<g id="graph0" class="graph" transform="scale(1 1) rotate(0) translate(4 46)">
<title>de.backxtar.clevercharge.MainActivity.onRequestPermissionsResult</title>
<polygon fill="white" stroke="transparent" points="-4,4 -4,-46 379,-46 379,4 -4,4"/>
<!-- Node1 -->
<g id="node1" class="node">
<title>Node1</title>
<g id="a_node1"><a xlink:title=" ">
<polygon fill="#bfbfbf" stroke="black" points="0,-0.5 0,-41.5 173,-41.5 173,-0.5 0,-0.5"/>
<text text-anchor="start" x="8" y="-29.5" font-family="Helvetica,sans-Serif" font-size="10.00">de.backxtar.clevercharge.</text>
<text text-anchor="start" x="8" y="-18.5" font-family="Helvetica,sans-Serif" font-size="10.00">MainActivity.onRequestPermissions</text>
<text text-anchor="middle" x="86.5" y="-7.5" font-family="Helvetica,sans-Serif" font-size="10.00">Result</text>
</a>
</g>
</g>
<!-- Node2 -->
<g id="node2" class="node">
<title>Node2</title>
<g id="a_node2"><a xlink:href="$da/da6/classde_1_1backxtar_1_1clevercharge_1_1services_1_1_message_service.html#ac4ac04d455ed4804dca168aa75203943" xlink:title=" ">
<polygon fill="white" stroke="black" points="209,-6 209,-36 375,-36 375,-6 209,-6"/>
<text text-anchor="start" x="217" y="-24" font-family="Helvetica,sans-Serif" font-size="10.00">de.backxtar.clevercharge.services.</text>
<text text-anchor="middle" x="292" y="-13" font-family="Helvetica,sans-Serif" font-size="10.00">MessageService.sendToast</text>
</a>
</g>
</g>
<!-- Node1&#45;&gt;Node2 -->
<g id="edge1" class="edge">
<title>Node1&#45;&gt;Node2</title>
<path fill="none" stroke="midnightblue" d="M173.21,-21C181.72,-21 190.39,-21 198.96,-21"/>
<polygon fill="midnightblue" stroke="midnightblue" points="198.96,-24.5 208.96,-21 198.96,-17.5 198.96,-24.5"/>
</g>
</g>
</svg>
