<svg id="svg" xmlns="http://www.w3.org/2000/svg" viewBox="0 0 228.0095 372.19119"><defs><style>.cls-1{fill:#fcc104;}.cls-1,.cls-2{fill-rule:evenodd;}.cls-2{fill:#fc4454;}</style></defs><g id="svgg"><path id="path0" class="cls-1" d="M196.419,15.9c-1.891,3.962-2.455,4.939-3.319,5.743a2.196,2.196,0,0,0-.7,1.304c0,.359-.18.653-.4.653s-.4.468-.4,1.04a3.43627,3.43627,0,0,1-1.1,2.11c-1.284,1.251-2.1,2.589-2.1,3.445,0,.333-.18.605-.4.605s-.4.32-.4.712a1.92173,1.92173,0,0,1-.8,1.288,2.20706,2.20706,0,0,0-.8,1.6,2.20706,2.20706,0,0,1-.8,1.6,1.841,1.841,0,0,0-.8,1.092,4.23152,4.23152,0,0,1-1.045,1.688,7.5722,7.5722,0,0,0-2.155,4.066c0,.415-.18.754-.4.754s-.4.28-.4.622a4.46233,4.46233,0,0,1-1.198,1.9,4.4763,4.4763,0,0,0-1.2,1.903,2.78609,2.78609,0,0,1-.702,1.42,6.05252,6.05252,0,0,0-1.702,3.25,4.38479,4.38479,0,0,1-1.2,1.983,4.8172,4.8172,0,0,0-1.198,1.753,2.39,2.39,0,0,1-.847,1.21c-2.034,1.764.018,2.331,4.247,1.175.66-.181,2.504-.532,4.098-.781s4.114-.668,5.6-.931c3.748-.662,23.287-.642,27.702.028,4.3.653,7.334,1.19,9.5,1.682,4.304.977,5.569,1.284,6.5,1.578.55.173,1.81.537,2.8.808,7.032,1.927,18.178,6.89,25.325,11.277l3.264,2.003,1.352-.728a3.98941,3.98941,0,0,0,1.578-1.34,3.99424,3.99424,0,0,1,.953-1.259,2.15336,2.15336,0,0,0,.728-1.3c0-.359.18-.653.4-.653s.4-.284.4-.631a5.57054,5.57054,0,0,1,1.6-2.169,5.57049,5.57049,0,0,0,1.6-2.169c0-.347.18-.631.4-.631s.4-.32.4-.712a1.92175,1.92175,0,0,1,.8-1.288,1.87084,1.87084,0,0,0,.8-1.2,1.87092,1.87092,0,0,1,.8-1.2,1.84436,1.84436,0,0,0,.8-1.087,6.97445,6.97445,0,0,1,1.6-2.21,7.03273,7.03273,0,0,0,1.6-2.201.46123.46123,0,0,1,.4-.502c.22,0,.4-.36.4-.8s.18-.8.4-.8.4-.282.4-.626a7.78331,7.78331,0,0,1,2-2.574,10.9587,10.9587,0,0,0,2-2.294c0-.601.987-2.5,1.3-2.503.165-.002.3-.28.3-.619a5.35918,5.35918,0,0,1,1.5-2.1c2.431-2.405,3.256-4.484,1.78-4.484a1.80437,1.80437,0,0,1-1.114-.394,3.43582,3.43582,0,0,0-1.58-.547,8.82863,8.82863,0,0,1-1.83-.428,7.52924,7.52924,0,0,0-1.6-.399,7.5868,7.5868,0,0,1-1.6-.4,7.46611,7.46611,0,0,0-1.6-.4,7.586,7.586,0,0,1-1.6-.4,7.46611,7.46611,0,0,0-1.6-.4,7.58649,7.58649,0,0,1-1.6-.4,7.46621,7.46621,0,0,0-1.6-.4,7.58654,7.58654,0,0,1-1.6-.4,7.4656,7.4656,0,0,0-1.6-.4,7.8478,7.8478,0,0,1-1.655-.421,6.20409,6.20409,0,0,0-1.699-.353c-.551-.032-1.002-.193-1.002-.358s-.705-.3-1.567-.3c-.861,0-1.626-.177-1.7-.393-.073-.216-.808-.441-1.632-.5-.825-.059-1.5-.242-1.5-.407-.001-.165-.706-.3-1.568-.3-.861,0-1.626-.164-1.7-.365-.073-.2-.763-.425-1.533-.5a3.74091,3.74091,0,0,1-1.6-.396,3.738,3.738,0,0,0-1.6-.4,3.769,3.769,0,0,1-1.6-.4,3.73786,3.73786,0,0,0-1.6-.4,3.533,3.533,0,0,1-1.62-.433,3.65668,3.65668,0,0,0-1.699-.4c-.814-.058-1.48-.241-1.48-.406-.001-.165-.706-.3-1.568-.3-.861,0-1.626-.164-1.7-.365-.073-.2-.763-.425-1.533-.5a3.74091,3.74091,0,0,1-1.6-.396,3.738,3.738,0,0,0-1.6-.4,3.61917,3.61917,0,0,1-1.611-.419,3.97975,3.97975,0,0,0-1.699-.432,4.7009,4.7009,0,0,1-1.756-.42,3.35126,3.35126,0,0,0-1.577-.268,2.342,2.342,0,0,1-1.557-.4,2.43873,2.43873,0,0,0-1.6-.4,2.43864,2.43864,0,0,1-1.6-.4,2.43879,2.43879,0,0,0-1.6-.4,2.43879,2.43879,0,0,1-1.6-.4,2.43864,2.43864,0,0,0-1.6-.4,2.43873,2.43873,0,0,1-1.6-.4,2.43874,2.43874,0,0,0-1.6-.4,2.43874,2.43874,0,0,1-1.6-.4,2.43874,2.43874,0,0,0-1.6-.4,2.43874,2.43874,0,0,1-1.6-.4,2.43873,2.43873,0,0,0-1.6-.4,2.43864,2.43864,0,0,1-1.6-.4,2.43879,2.43879,0,0,0-1.6-.4,2.43879,2.43879,0,0,1-1.6-.4,2.43864,2.43864,0,0,0-1.6-.4,2.43873,2.43873,0,0,1-1.6-.4c-.766-1.24-2.872-.405-3.781,1.5M195.2,112.842c-20.943,1.427-40.464,16.17-48.408,36.558-2.546,6.535-3.582,12.589-3.56,20.8.027,10.081,1.016,13.4,3.99,13.4A2.86672,2.86672,0,0,1,149,184a2.43876,2.43876,0,0,0,1.6.4,2.43873,2.43873,0,0,1,1.6.4,2.05548,2.05548,0,0,0,1.424.4c.647,0,1.176.18,1.176.4s.72.4,1.6.4,1.6.18,1.6.4.72.4,1.6.4,1.6.18,1.6.4.72.4,1.6.4,1.6.18,1.6.4.72.4,1.6.4,1.6.18,1.6.4.72.4,1.6.4,1.6.18,1.6.4.72.4,1.6.4,1.6.18,1.6.4.36.4.8.4.8.18.8.4a.374.374,0,0,1-.337.4,5.13024,5.13024,0,0,0-1.293,1.9,11.52163,11.52163,0,0,1-1.663,2.547,2.62239,2.62239,0,0,0-.707,1.7c0,.579-.135,1.054-.3,1.056-.359.004-1.3,1.941-1.3,2.677a.47342.47342,0,0,1-.4.52c-.22,0-.4.36-.4.8s-.18.8-.4.8-.4.294-.4.653a2.196,2.196,0,0,1-.7,1.304,5.44366,5.44366,0,0,0-1.7,3.038c0,.333-.18.605-.4.605s-.4.36-.4.8-.18.8-.4.8-.4.36-.4.8-.201.8-.447.8c-.276,0-.359.42-.216,1.1.235,1.125-.885,3.754-4.725,11.1-.46.88-1.294,2.32-1.852,3.2a23.86177,23.86177,0,0,0-1.72,3.4,45.187,45.187,0,0,1-2.613,5,63.20644,63.20644,0,0,0-3.043,5.8,30.11718,30.11718,0,0,1-1.859,3.662,5.01016,5.01016,0,0,0-.725,1.328A10.87532,10.87532,0,0,1,146,249a8.42473,8.42473,0,0,0-1.2,2.16A6.9072,6.9072,0,0,1,144,253a7.32208,7.32208,0,0,0-.8,1.783,26.23262,26.23262,0,0,1-2,3.617,31.422,31.422,0,0,0-2,3.54,77.21006,77.21006,0,0,1-3.923,7.66A46.05836,46.05836,0,0,0,132,276.278a15.952,15.952,0,0,1-1.6,2.825,14.455,14.455,0,0,0-1.6,2.888c0,.235-.45.631-1,.882a1.5039,1.5039,0,0,0-1,1.391c0,.515-.18.936-.4.936s-.4.272-.4.604a4.38342,4.38342,0,0,1-1.2,1.859,4.22433,4.22433,0,0,0-1.2,2.196c0,.518-.18.941-.4.941a.47677.47677,0,0,0-.4.525,2.9111,2.9111,0,0,1-.8,1.383,3.16,3.16,0,0,0-.8,1.813,2.63443,2.63443,0,0,1-.8,1.679,2.34878,2.34878,0,0,0-.8,1.262c0,.296-.18.538-.4.538s-.4.36-.4.8-.18.8-.4.8-.4.36-.4.8-.18.8-.4.8-.4.32-.4.712a1.92177,1.92177,0,0,1-.8,1.288,2.19711,2.19711,0,0,0-.8,1.829,3.63811,3.63811,0,0,1-1.2,2.508,4.24824,4.24824,0,0,0-1.2,1.984,2.9541,2.9541,0,0,1-.8,1.587,2.90367,2.90367,0,0,0-.8,1.475c0,.339-.18.617-.4.617s-.4.36-.4.8-.18.8-.4.8-.4.272-.4.605a5.44366,5.44366,0,0,1-1.7,3.038,2.13822,2.13822,0,0,0-.7,1.066,13.39618,13.39618,0,0,1-2.1,4.024c-.165.074-.3.479-.3.9,0,.422-.18.767-.4.767s-.4.54-.4,1.2-.18,1.2-.4,1.2a.47674.47674,0,0,0-.4.525,2.911,2.911,0,0,1-.8,1.383,3.17158,3.17158,0,0,0-.8,1.196c0,.593-.989,2.49-1.3,2.493-.165.002-.3.363-.3.803,0,1.852,4.126.425,4.915-1.7a1.22068,1.22068,0,0,1,1.085-.7,1.23844,1.23844,0,0,0,1.093-.699,6.81737,6.81737,0,0,1,3.002-2.866,4.09357,4.09357,0,0,0,1.598-1.7c.276-.624.742-1.135,1.036-1.135a5.94314,5.94314,0,0,0,2.071-1.6,6.15221,6.15221,0,0,1,2.031-1.6,6.07339,6.07339,0,0,0,2.015-1.6,7.76517,7.76517,0,0,1,1.838-1.6,4.94058,4.94058,0,0,0,2.516-2.547.6443.6443,0,0,1,.631-.653A5.5706,5.5706,0,0,0,126.4,314a6.2059,6.2059,0,0,1,2.022-1.6c.6,0,2.377-2.018,2.378-2.7,0-.275.303-.5.674-.5a7.4326,7.4326,0,0,0,2.601-2,9.56743,9.56743,0,0,1,2.344-2,4.98373,4.98373,0,0,0,2.381-2.408c0-.557,3.275-4.392,3.752-4.392a8.99824,8.99824,0,0,0,2.103-1.7c3.99-3.873,4.915-4.7,5.256-4.7a8.52357,8.52357,0,0,0,2.046-1.8,9.28884,9.28884,0,0,1,2.001-1.8,9.72359,9.72359,0,0,0,2.078-1.64c1.755-1.632,3.861-3.506,7.375-6.56,1.012-.88,2.628-2.32,3.589-3.2.962-.88,2.581-2.32,3.599-3.2,1.017-.88,2.669-2.365,3.67-3.3a7.572,7.572,0,0,1,2.353-1.7c.293,0,.85-.537,1.238-1.194a5.33724,5.33724,0,0,1,1.922-1.78,8.27315,8.27315,0,0,0,2.335-2.007c.614-.78,1.364-1.419,1.666-1.419.303,0,1.12-.72,1.817-1.6s1.481-1.6,1.743-1.6a5.45087,5.45087,0,0,0,1.857-1.6,5.37554,5.37554,0,0,1,1.871-1.6c.268,0,.954-.611,1.524-1.358a6.612,6.612,0,0,1,2.167-1.826,3.70024,3.70024,0,0,0,1.616-1.375,4.8412,4.8412,0,0,1,1.553-1.537,23.59115,23.59115,0,0,0,2.869-2.277c2.489-2.277,4.802-4.341,6.977-6.227,1.014-.88,2.625-2.32,3.579-3.2.953-.88,2.603-2.32,3.665-3.2,2.107-1.744,6.091-5.288,7.955-7.073a5.55182,5.55182,0,0,1,1.447-1.127,11.25494,11.25494,0,0,0,2.072-1.8,9.00517,9.00517,0,0,1,2.179-1.8,4.91857,4.91857,0,0,0,1.588-1.3,88.83722,88.83722,0,0,1,6.946-6.3c2.475-2.1,4.992-4.316,7.609-6.7a11.6889,11.6889,0,0,1,2.141-1.7,8.24509,8.24509,0,0,0,1.775-1.5c.825-.825,2.033-1.964,2.684-2.531.65-.567,2.09-1.827,3.199-2.8,1.108-.973,3.077-2.669,4.375-3.769s4.171-3.594,6.384-5.543c2.214-1.949,4.891-4.289,5.949-5.2,4.335-3.734,5.232-4.661,4.857-5.017-.209-.2-4.518-1.393-9.575-2.653-6.551-1.631-9.551-2.562-10.437-3.238a4.877,4.877,0,0,0-2.483-.949,2.1863,2.1863,0,0,1-1.486-.4,2.43867,2.43867,0,0,0-1.6-.4,2.43874,2.43874,0,0,1-1.6-.4,2.43873,2.43873,0,0,0-1.6-.4,2.43875,2.43875,0,0,1-1.6-.4,2.43874,2.43874,0,0,0-1.6-.4,2.43862,2.43862,0,0,1-1.6-.4,2.43879,2.43879,0,0,0-1.6-.4,2.43871,2.43871,0,0,1-1.6-.4,2.92258,2.92258,0,0,0-1.8-.4,2.92267,2.92267,0,0,1-1.8-.4,2.43866,2.43866,0,0,0-1.6-.4,2.43864,2.43864,0,0,1-1.6-.4,2.43877,2.43877,0,0,0-1.6-.4,2.4388,2.4388,0,0,1-1.6-.4,2.43865,2.43865,0,0,0-1.6-.4,2.43872,2.43872,0,0,1-1.6-.4,2.00585,2.00585,0,0,0-1.4-.4,2.00586,2.00586,0,0,1-1.4-.4,2.43865,2.43865,0,0,0-1.6-.4,2.43874,2.43874,0,0,1-1.6-.4,3.52514,3.52514,0,0,0-2.024-.4c-.977,0-1.776-.18-1.776-.4s-.619-.4-1.376-.4a2.4946,2.4946,0,0,1-1.624-.4,2.98453,2.98453,0,0,0-1.824-.4c-.867,0-1.576-.18-1.576-.4s-.72-.4-1.6-.4-1.6-.18-1.6-.4-.643-.4-1.429-.4c-2.359,0-2.928-.972-1.415-2.419a4.06423,4.06423,0,0,0,1.244-1.784c0-.329.18-.597.4-.597s.4-.288.4-.64a3.7395,3.7395,0,0,1,1.2-1.76,4.01789,4.01789,0,0,0,1.2-1.6,4.01788,4.01788,0,0,1,1.2-1.6,3.73975,3.73975,0,0,0,1.2-1.76c0-.352.18-.64.4-.64a.47676.47676,0,0,0,.4-.525,2.70945,2.70945,0,0,1,.7-1.313c.385-.435,1.323-1.594,2.085-2.576a12.242,12.242,0,0,1,1.7-1.919.81126.81126,0,0,0,.315-.706c0-.828.791-2.071,2.5-3.927a5.79142,5.79142,0,0,0,1.5-2.371A3.6737,3.6737,0,0,1,221.6,134a4.07163,4.07163,0,0,0,1.2-1.582,4.86473,4.86473,0,0,1,1.198-1.74,4.45227,4.45227,0,0,0,1.2-1.919,4.35184,4.35184,0,0,1,1.202-1.896,4.57561,4.57561,0,0,0,1.2-1.771,1.84388,1.84388,0,0,1,.8-1.092,2.30027,2.30027,0,0,0-.1-3.586c-8.467-5.438-21.308-8.376-33.1-7.572" transform="translate(-85.9905 -13.81401)"/><path id="path1" class="cls-2" d="M190.2,56.783a125.99856,125.99856,0,0,0-15.4,2.384c-1.686.349-2.412.342-3.108-.028-.698-.371-1.018-.373-1.38-.011a2.65179,2.65179,0,0,1-1.592.472c-.616,0-1.12.18-1.12.4s-.54.4-1.2.4-1.2.18-1.2.4-.54.4-1.2.4-1.2.18-1.2.4-.54.4-1.2.4-1.2.18-1.2.4-.54.4-1.2.4-1.2.18-1.2.4-.36.4-.8.4-.8.18-.8.4-.439.4-.976.4a1.66814,1.66814,0,0,0-1.224.4,1.33439,1.33439,0,0,1-1.024.4c-.427,0-.776.18-.776.4s-.36.4-.8.4-.8.18-.8.4-.36.4-.8.4-.8.18-.8.4-.36.4-.8.4-.8.18-.8.4-.36.4-.8.4-.8.18-.8.4-.32.4-.712.4A1.92176,1.92176,0,0,0,144,70a1.92176,1.92176,0,0,1-1.288.8c-.392,0-.712.18-.712.4s-.32.4-.712.4a1.92176,1.92176,0,0,0-1.288.8,1.92176,1.92176,0,0,1-1.288.8c-.392,0-.712.18-.712.4s-.243.4-.541.4a4.50983,4.50983,0,0,0-1.796,1.2,4.57552,4.57552,0,0,1-1.771,1.2,1.84381,1.84381,0,0,0-1.092.8,1.84689,1.84689,0,0,1-1.04.8,7.00052,7.00052,0,0,0-2.112,1.6,7.629,7.629,0,0,1-2.043,1.6c-.532,0-16.005,15.448-16.005,15.979a7.369,7.369,0,0,1-1.6,2.069,7.00039,7.00039,0,0,0-1.6,2.112,1.8469,1.8469,0,0,1-.8,1.04c-.44.317-.8.762-.801.988A5.851,5.851,0,0,1,105.6,105.2a6.68247,6.68247,0,0,0-1.199,1.717,3.26641,3.26641,0,0,1-.801,1.175,2.911,2.911,0,0,0-.8,1.383.47675.47675,0,0,1-.4.525c-.22,0-.4.278-.4.617a2.90376,2.90376,0,0,1-.8,1.475,2.911,2.911,0,0,0-.8,1.383.47675.47675,0,0,1-.4.525c-.22,0-.4.36-.4.8s-.18.8-.4.8-.4.36-.4.8-.18.8-.4.8-.4.36-.4.8-.18.8-.4.8-.4.36-.4.8-.18.8-.4.8-.4.36-.4.8-.18.8-.4.8-.4.36-.4.8-.18.8-.4.8-.4.439-.4.976a1.66816,1.66816,0,0,1-.4,1.224,1.33438,1.33438,0,0,0-.4,1.024c0,.427-.18.776-.4.776s-.4.439-.4.976a1.66814,1.66814,0,0,1-.4,1.224,1.33439,1.33439,0,0,0-.4,1.024c0,.427-.18.776-.4.776s-.4.54-.4,1.2-.18,1.2-.4,1.2-.4.529-.4,1.176a2.05553,2.05553,0,0,1-.4,1.424,2.49445,2.49445,0,0,0-.4,1.624c0,.757-.18,1.376-.4,1.376s-.4.619-.4,1.376a2.49458,2.49458,0,0,1-.4,1.624,2.98451,2.98451,0,0,0-.4,1.824c0,.867-.18,1.576-.4,1.576s-.4.889-.4,1.976a4.11636,4.11636,0,0,1-.4,2.224,6.09935,6.09935,0,0,0-.4,2.8,6.09935,6.09935,0,0,1-.4,2.8c-.546.337-.546,25.263,0,25.6a6.88574,6.88574,0,0,1,.4,3,6.88557,6.88557,0,0,0,.4,3,3.45725,3.45725,0,0,1,.4,2,3.45713,3.45713,0,0,0,.4,2,2.98461,2.98461,0,0,1,.4,1.824c0,.867.18,1.576.4,1.576s.4.72.4,1.6.18,1.6.4,1.6.4.72.4,1.6.18,1.6.4,1.6.4.529.4,1.176a2.05548,2.05548,0,0,0,.4,1.424,2.00585,2.00585,0,0,1,.4,1.4,2.00592,2.00592,0,0,0,.4,1.4,1.62482,1.62482,0,0,1,.4,1.2,1.62487,1.62487,0,0,0,.4,1.2,1.62487,1.62487,0,0,1,.4,1.2,1.62482,1.62482,0,0,0,.4,1.2,1.34167,1.34167,0,0,1,.4,1.029,4.2029,4.2029,0,0,0,.4,1.576c.22.437.58,1.153.8,1.59a4.25764,4.25764,0,0,1,.4,1.6c0,.443.18.805.4.805s.4.54.4,1.2.18,1.2.4,1.2.4.349.4.776a1.33439,1.33439,0,0,0,.4,1.024,1.66814,1.66814,0,0,1,.4,1.224c0,.537.18.976.4.976s.4.349.4.776a1.33439,1.33439,0,0,0,.4,1.024,1.66814,1.66814,0,0,1,.4,1.224c0,.537.18.976.4.976s.4.36.4.8.18.8.4.8.4.54.4,1.2.18,1.2.4,1.2.4.36.4.8.18.8.4.8.4.36.4.8.18.8.4.8.4.439.4.976a1.66814,1.66814,0,0,0,.4,1.224,1.33439,1.33439,0,0,1,.4,1.024c0,.427.18.776.4.776s.4.36.4.8.18.8.4.8.4.36.4.8.18.8.4.8.4.272.4.605a3.87056,3.87056,0,0,0,.4,1.4c.22.437.58,1.153.8,1.59a3.87077,3.87077,0,0,1,.4,1.4c0,.333.18.605.4.605s.4.36.4.8.18.8.4.8.4.36.4.8.18.8.4.8.4.36.4.8.18.8.4.8.4.36.4.8.18.8.4.8.4.36.4.8.18.8.4.8.4.36.4.8.18.8.4.8.4.36.4.8.18.8.4.8.4.36.4.8.18.8.4.8.4.36.4.8.18.8.4.8.4.36.4.8.18.8.4.8.4.36.4.8.18.8.4.8.4.345.4.767c0,.421.135.826.3.9a10.13788,10.13788,0,0,1,1.971,3.233c.122.385.381.7.576.7.194,0,.353.36.353.8s.18.8.4.8.4.36.4.8.18.8.4.8.4.36.4.8.18.8.4.8.4.278.4.617a2.90383,2.90383,0,0,0,.8,1.475,2.911,2.911,0,0,1,.8,1.383.47674.47674,0,0,0,.4.525c.22,0,.4.36.4.8s.18.8.4.8.4.27.4.6.102.6.226.6c.533,0,1.774-.862,1.774-1.231a14.92573,14.92573,0,0,1,1.6-2.866,15.952,15.952,0,0,0,1.6-2.825,46.05836,46.05836,0,0,1,3.277-6.678,77.21006,77.21006,0,0,0,3.923-7.66,31.422,31.422,0,0,1,2-3.54,26.23262,26.23262,0,0,0,2-3.617A7.32208,7.32208,0,0,1,144,253a6.9072,6.9072,0,0,0,.8-1.84A8.42473,8.42473,0,0,1,146,249a10.87532,10.87532,0,0,0,1.2-2.01,5.01016,5.01016,0,0,1,.725-1.328A30.11718,30.11718,0,0,0,149.784,242a63.20644,63.20644,0,0,1,3.043-5.8,45.187,45.187,0,0,0,2.613-5,23.86177,23.86177,0,0,1,1.72-3.4c.896-1.413,1.67-2.81,3.098-5.6,3.962-7.738,4.251-9.089,2.208-10.299a10.963,10.963,0,0,1-3.672-3.501,23.81368,23.81368,0,0,0-2.481-2.869,5.53138,5.53138,0,0,1-1.513-2.011,1.84529,1.84529,0,0,0-.8-1.12,1.84248,1.84248,0,0,1-.8-1.105,2.90606,2.90606,0,0,0-.8-1.387,2.91108,2.91108,0,0,1-.8-1.383.47675.47675,0,0,0-.4-.525c-.22,0-.4-.36-.4-.8s-.18-.8-.4-.8-.4-.36-.4-.8-.18-.8-.4-.8-.4-.36-.4-.8-.18-.8-.4-.8-.4-.54-.4-1.2-.18-1.2-.4-1.2-.4-.349-.4-.776a1.33439,1.33439,0,0,0-.4-1.024,2.00587,2.00587,0,0,1-.4-1.4,2.00582,2.00582,0,0,0-.4-1.4,1.7828,1.7828,0,0,1-.4-1.286,4.72189,4.72189,0,0,0-.925-2.276c-2.981-3.989-2.425-21.815.973-31.238,8.476-23.502,29.561-38.68,53.704-38.659a47.18142,47.18142,0,0,1,18.048,2.958c6.172,2.061,11.4,4.828,11.4,6.035a1.07734,1.07734,0,0,0,.8.95c.44.115.8.368.8.563,0,.194.243.353.541.353a4.50967,4.50967,0,0,1,1.796,1.2,5.19359,5.19359,0,0,0,1.629,1.2c.483,0,8.834,8.243,8.834,8.72a5.2681,5.2681,0,0,0,1.2,1.617,4.5754,4.5754,0,0,1,1.2,1.771,1.84381,1.84381,0,0,0,.8,1.092,1.87089,1.87089,0,0,1,.8,1.2,1.871,1.871,0,0,0,.8,1.2,1.92169,1.92169,0,0,1,.8,1.288c0,.392.18.712.4.712s.4.36.4.8.18.8.4.8.4.36.4.8.18.8.4.8.4.439.4.976A1.66816,1.66816,0,0,0,252,149a1.33438,1.33438,0,0,1,.4,1.024c0,.427.18.776.4.776s.4.54.4,1.2.18,1.2.4,1.2.4.619.4,1.376a2.49456,2.49456,0,0,0,.4,1.624,2.98448,2.98448,0,0,1,.4,1.824c0,.867.18,1.576.4,1.576.227,0,.4,1.173.4,2.72a7.86185,7.86185,0,0,0,.415,3.135c.707.707.32,8.771-.415,8.627-.33-.064-.068.317.583.848.882.721,3.526,1.548,10.4,3.255,5.069,1.259,9.389,2.452,9.598,2.653.375.359-.519,1.282-4.857,5.019-1.058.911-3.735,3.251-5.949,5.2-2.213,1.949-5.086,4.443-6.384,5.543s-3.267,2.796-4.375,3.769c-1.109.973-2.549,2.233-3.199,2.8-.651.567-1.859,1.706-2.684,2.531a8.24509,8.24509,0,0,1-1.775,1.5,11.6889,11.6889,0,0,0-2.141,1.7c-2.617,2.384-5.134,4.6-7.609,6.7a88.83722,88.83722,0,0,0-6.946,6.3,4.91857,4.91857,0,0,1-1.588,1.3,9.00517,9.00517,0,0,0-2.179,1.8,11.25494,11.25494,0,0,1-2.072,1.8,5.55182,5.55182,0,0,0-1.447,1.127c-1.864,1.785-5.848,5.329-7.955,7.073-1.062.88-2.712,2.32-3.665,3.2-.954.88-2.565,2.32-3.579,3.2-2.175,1.886-4.488,3.95-6.977,6.227a23.59115,23.59115,0,0,1-2.869,2.277,4.8412,4.8412,0,0,0-1.553,1.537,3.70024,3.70024,0,0,1-1.616,1.375,6.612,6.612,0,0,0-2.167,1.826c-.57.747-1.256,1.358-1.524,1.358a5.37554,5.37554,0,0,0-1.871,1.6,5.45087,5.45087,0,0,1-1.857,1.6c-.262,0-1.046.72-1.743,1.6s-1.514,1.6-1.817,1.6c-.302,0-1.052.639-1.666,1.419a8.27315,8.27315,0,0,1-2.335,2.007,5.33724,5.33724,0,0,0-1.922,1.78c-.388.657-.945,1.194-1.238,1.194a7.572,7.572,0,0,0-2.353,1.7c-1.001.935-2.653,2.42-3.67,3.3-1.018.88-2.637,2.32-3.599,3.2-.961.88-2.577,2.32-3.589,3.2-3.514,3.054-5.62,4.928-7.375,6.56a9.72359,9.72359,0,0,1-2.078,1.64,9.28884,9.28884,0,0,0-2.001,1.8,8.52357,8.52357,0,0,1-2.046,1.8c-.341,0-1.266.827-5.256,4.7a8.99824,8.99824,0,0,1-2.103,1.7,8.98288,8.98288,0,0,0-2.052,1.974c-1.622,1.883-2.163,3.226-1.3,3.226.22,0,.4.36.4.8s.18.8.4.8a.47674.47674,0,0,1,.4.525,2.911,2.911,0,0,0,.8,1.383,2.90611,2.90611,0,0,1,.8,1.387,1.84254,1.84254,0,0,0,.8,1.105,1.84242,1.84242,0,0,1,.8,1.105,2.90625,2.90625,0,0,0,.8,1.387,2.91091,2.91091,0,0,1,.8,1.383.47674.47674,0,0,0,.4.525.47673.47673,0,0,1,.4.525,2.911,2.911,0,0,0,.8,1.383,2.9061,2.9061,0,0,1,.8,1.387,1.84247,1.84247,0,0,0,.8,1.105,1.87089,1.87089,0,0,1,.8,1.2,1.87087,1.87087,0,0,0,.8,1.2,1.87094,1.87094,0,0,1,.8,1.2,1.87092,1.87092,0,0,0,.8,1.2,1.8709,1.8709,0,0,1,.8,1.2,1.87089,1.87089,0,0,0,.8,1.2,1.87082,1.87082,0,0,1,.8,1.2,1.87082,1.87082,0,0,0,.8,1.2,1.8708,1.8708,0,0,1,.8,1.2,1.87086,1.87086,0,0,0,.8,1.2,1.87089,1.87089,0,0,1,.8,1.2,1.87087,1.87087,0,0,0,.8,1.2,1.84981,1.84981,0,0,1,.8,1.029,4.78088,4.78088,0,0,0,1.2,1.708,4.57555,4.57555,0,0,1,1.2,1.771,1.84378,1.84378,0,0,0,.8,1.092,1.84789,1.84789,0,0,1,.8,1.128A3.85475,3.85475,0,0,0,164,341.2a3.85443,3.85443,0,0,1,1.2,1.672A1.84783,1.84783,0,0,0,166,344a1.84979,1.84979,0,0,1,.8,1.029,4.78081,4.78081,0,0,0,1.2,1.708,4.81839,4.81839,0,0,1,1.2,1.699A4.12418,4.12418,0,0,0,170.4,350a4.018,4.018,0,0,1,1.2,1.6,4.01789,4.01789,0,0,0,1.2,1.6,4.01769,4.01769,0,0,1,1.2,1.6,4.01784,4.01784,0,0,0,1.2,1.6,4.34015,4.34015,0,0,1,1.2,1.512,7.66753,7.66753,0,0,0,1.6,2.04,7.26871,7.26871,0,0,1,1.6,2.08A6.58489,6.58489,0,0,0,181.2,364a6.35634,6.35634,0,0,1,1.6,2,6.35641,6.35641,0,0,0,1.6,2,6.9426,6.9426,0,0,1,1.6,1.928,10.82292,10.82292,0,0,0,2,2.433,11.29731,11.29731,0,0,1,2,2.41,19.78476,19.78476,0,0,0,2.8,3.201,20.87564,20.87564,0,0,1,2.8,3.177,13.86976,13.86976,0,0,0,2.165,2.597c2.496,2.598,3.757,2.912,4.667,1.165a15.21785,15.21785,0,0,1,2.068-2.649,7.01425,7.01425,0,0,0,1.5-1.95,4.33974,4.33974,0,0,1,1.2-1.512,4.33988,4.33988,0,0,0,1.2-1.512,7.66837,7.66837,0,0,1,1.6-2.04,7.26845,7.26845,0,0,0,1.6-2.08,6.58451,6.58451,0,0,1,1.6-1.968,6.35634,6.35634,0,0,0,1.6-2,6.35607,6.35607,0,0,1,1.6-2,6.58471,6.58471,0,0,0,1.6-1.968,7.26826,7.26826,0,0,1,1.6-2.08,7.66815,7.66815,0,0,0,1.6-2.04,4.34032,4.34032,0,0,1,1.2-1.512,4.34025,4.34025,0,0,0,1.2-1.512,7.6675,7.6675,0,0,1,1.6-2.04,7.19036,7.19036,0,0,0,1.6-2.088,4.14412,4.14412,0,0,1,1.2-1.56,4.14411,4.14411,0,0,0,1.2-1.56,7.19011,7.19011,0,0,1,1.6-2.088,8.09955,8.09955,0,0,0,1.6-2.004,5.32047,5.32047,0,0,1,1.2-1.611,5.14732,5.14732,0,0,0,1.2-1.636A4.39445,4.39445,0,0,1,236,342a4.018,4.018,0,0,0,1.2-1.6,4.01809,4.01809,0,0,1,1.2-1.6,4.12366,4.12366,0,0,0,1.2-1.564,4.81849,4.81849,0,0,1,1.2-1.699,4.78074,4.78074,0,0,0,1.2-1.708,1.84981,1.84981,0,0,1,.8-1.029,1.84978,1.84978,0,0,0,.8-1.029,4.781,4.781,0,0,1,1.2-1.708,4.81815,4.81815,0,0,0,1.2-1.699,4.12377,4.12377,0,0,1,1.2-1.564,3.85438,3.85438,0,0,0,1.2-1.672,1.84781,1.84781,0,0,1,.8-1.128,1.84783,1.84783,0,0,0,.8-1.128,3.85434,3.85434,0,0,1,1.2-1.672,3.8547,3.8547,0,0,0,1.2-1.672,1.84787,1.84787,0,0,1,.8-1.128,1.84378,1.84378,0,0,0,.8-1.092,4.57543,4.57543,0,0,1,1.2-1.771,4.50961,4.50961,0,0,0,1.2-1.796c0-.298.15-.541.332-.541.183,0,.587-.495.898-1.1a7.49075,7.49075,0,0,1,1.267-1.747,2.12383,2.12383,0,0,0,.703-1.212,1.85109,1.85109,0,0,1,.8-1.141,1.87082,1.87082,0,0,0,.8-1.2,1.8708,1.8708,0,0,1,.8-1.2,1.87089,1.87089,0,0,0,.8-1.2,1.87087,1.87087,0,0,1,.8-1.2,1.8709,1.8709,0,0,0,.8-1.2,1.871,1.871,0,0,1,.8-1.2,1.87085,1.87085,0,0,0,.8-1.2,1.87089,1.87089,0,0,1,.8-1.2,1.87086,1.87086,0,0,0,.8-1.2,1.87078,1.87078,0,0,1,.8-1.2,1.84246,1.84246,0,0,0,.8-1.105,2.90614,2.90614,0,0,1,.8-1.387,2.911,2.911,0,0,0,.8-1.383.47675.47675,0,0,1,.4-.525c.22,0,.4-.32.4-.712a1.92168,1.92168,0,0,1,.8-1.288,1.84254,1.84254,0,0,0,.8-1.105,2.90607,2.90607,0,0,1,.8-1.387,2.911,2.911,0,0,0,.8-1.383.47676.47676,0,0,1,.4-.525c.22,0,.4-.278.4-.617a2.90361,2.90361,0,0,1,.8-1.475,2.91106,2.91106,0,0,0,.8-1.383.47674.47674,0,0,1,.4-.525c.22,0,.4-.278.4-.617a2.90364,2.90364,0,0,1,.8-1.475,2.91115,2.91115,0,0,0,.8-1.383.47674.47674,0,0,1,.4-.525c.22,0,.4-.36.4-.8s.18-.8.4-.8.4-.278.4-.617a2.9038,2.9038,0,0,1,.8-1.475,2.911,2.911,0,0,0,.8-1.383.47675.47675,0,0,1,.4-.525c.22,0,.4-.36.4-.8s.18-.8.4-.8.4-.345.4-.767c0-.421.135-.826.3-.9a10.13806,10.13806,0,0,0,1.971-3.233c.122-.385.381-.7.576-.7.194,0,.353-.36.353-.8s.18-.8.4-.8.4-.36.4-.8.18-.8.4-.8.4-.36.4-.8.18-.8.4-.8.4-.36.4-.8.18-.8.4-.8.4-.36.4-.8.18-.8.4-.8.4-.36.4-.8.18-.8.4-.8.4-.36.4-.8.18-.8.4-.8.4-.36.4-.8.18-.8.4-.8.4-.36.4-.8.18-.8.4-.8.4-.36.4-.8.18-.8.4-.8.4-.349.4-.776a1.33433,1.33433,0,0,1,.4-1.024,1.66821,1.66821,0,0,0,.4-1.224c0-.537.18-.976.4-.976s.4-.36.4-.8.18-.8.4-.8.4-.36.4-.8.18-.8.4-.8.4-.439.4-.976a1.66816,1.66816,0,0,1,.4-1.224,1.33438,1.33438,0,0,0,.4-1.024c0-.427.18-.776.4-.776s.4-.349.4-.776a1.33441,1.33441,0,0,1,.4-1.024,1.66811,1.66811,0,0,0,.4-1.224c0-.537.18-.976.4-.976s.4-.439.4-.976a1.66816,1.66816,0,0,1,.4-1.224,1.33435,1.33435,0,0,0,.4-1.024c0-.427.18-.776.4-.776s.4-.54.4-1.2.18-1.2.4-1.2.4-.54.4-1.2.18-1.2.4-1.2.4-.54.4-1.2.18-1.2.4-1.2.4-.54.4-1.2.18-1.2.4-1.2.4-.54.4-1.2.18-1.2.4-1.2.4-.619.4-1.376a2.49456,2.49456,0,0,1,.4-1.624,2.00585,2.00585,0,0,0,.4-1.4,2.00592,2.00592,0,0,1,.4-1.4,2.49443,2.49443,0,0,0,.4-1.624c0-.757.18-1.376.4-1.376s.4-.709.4-1.576a2.9846,2.9846,0,0,1,.4-1.824,3.52515,3.52515,0,0,0,.4-2.024c0-.977.18-1.776.4-1.776s.4-.889.4-1.976A4.11636,4.11636,0,0,1,312,197a5.36343,5.36343,0,0,0,.4-2.6,5.36334,5.36334,0,0,1,.4-2.6,8.60892,8.60892,0,0,0,.4-3.4,8.60883,8.60883,0,0,1,.4-3.4c.254-.157.4-5.263.4-14s-.146-13.843-.4-14a6.88547,6.88547,0,0,1-.4-3,6.8855,6.8855,0,0,0-.4-3,4.11633,4.11633,0,0,1-.4-2.224c0-1.087-.18-1.976-.4-1.976s-.4-.799-.4-1.776a3.52524,3.52524,0,0,0-.4-2.024,2.43872,2.43872,0,0,1-.4-1.6,2.43868,2.43868,0,0,0-.4-1.6,2.05549,2.05549,0,0,1-.4-1.424c0-.647-.18-1.176-.4-1.176s-.4-.529-.4-1.176a2.05539,2.05539,0,0,0-.4-1.424,1.66821,1.66821,0,0,1-.4-1.224c0-.537-.18-.976-.4-.976s-.4-.54-.4-1.2-.18-1.2-.4-1.2-.4-.54-.4-1.2-.18-1.2-.4-1.2-.4-.36-.4-.8-.18-.8-.4-.8-.4-.439-.4-.976a1.66816,1.66816,0,0,0-.4-1.224,1.33438,1.33438,0,0,1-.4-1.024c0-.427-.18-.776-.4-.776s-.4-.36-.4-.8-.18-.8-.4-.8-.4-.36-.4-.8-.18-.8-.4-.8-.4-.36-.4-.8-.18-.8-.4-.8-.4-.36-.4-.8-.18-.8-.4-.8-.4-.278-.4-.617a2.9037,2.9037,0,0,0-.8-1.475,2.911,2.911,0,0,1-.8-1.383.47674.47674,0,0,0-.4-.525c-.22,0-.4-.278-.4-.617a2.90373,2.90373,0,0,0-.8-1.475,2.91108,2.91108,0,0,1-.8-1.383.47674.47674,0,0,0-.4-.525.46128.46128,0,0,1-.401-.5,5.42289,5.42289,0,0,0-1.199-1.9,5.85119,5.85119,0,0,1-1.199-1.812c-.001-.226-.361-.671-.801-.988a1.84522,1.84522,0,0,1-.8-1.12A5.9099,5.9099,0,0,0,290,99.2a6.528,6.528,0,0,1-1.6-1.975,19.00266,19.00266,0,0,0-2.9-3.43c-1.595-1.646-3.642-3.758-4.549-4.694-3.407-3.513-8.176-7.901-8.587-7.901a6.61442,6.61442,0,0,1-1.964-1.6,6.5558,6.5558,0,0,0-1.972-1.6,4.84928,4.84928,0,0,1-1.691-1.2,5.07091,5.07091,0,0,0-1.649-1.2,2.464,2.464,0,0,1-1.128-.847,1.51836,1.51836,0,0,0-1.718-.599c-.742.186-1.767-.235-4.181-1.717A116.905,116.905,0,0,0,232.8,61.2c-.99-.271-2.25-.635-2.8-.808-.55-.174-1.9-.523-3-.777s-2.63-.614-3.4-.799c-1.329-.321-3.015-.612-9.364-1.621-3.502-.556-19.285-.826-24.036-.412" transform="translate(-85.9905 -13.81401)"/></g></svg>