<?xml version="1.0" encoding="utf-8"?>
<!-- Generator: Adobe Illustrator 26.0.2, SVG Export Plug-In . SVG Version: 6.00 Build 0)  -->
<svg version="1.1" id="svg" xmlns="http://www.w3.org/2000/svg" xmlns:xlink="http://www.w3.org/1999/xlink" x="0px" y="0px"
	 viewBox="0 0 400 700.2" style="enable-background:new 0 0 400 700.2;" xml:space="preserve">
<style type="text/css">
	.st0{fill-rule:evenodd;clip-rule:evenodd;fill:#C4940C;}
	.st1{fill-rule:evenodd;clip-rule:evenodd;fill:#543C04;}
	.st2{fill-rule:evenodd;clip-rule:evenodd;fill:#FCC404;}
	.st3{fill-rule:evenodd;clip-rule:evenodd;fill:#D49C0C;}
</style>
<g id="svgg">
	<path id="path0" class="st0" d="M181,0.5c-62.8,5.7-124.2,45-155.4,99.6C1,143.2-5.9,190.5,4.8,243.4C11.4,276,22.5,300.9,55.4,357
		c39.9,67.9,50.4,87.2,60,109.6c31.4,73.9,50.3,131,66.7,201c4.3,18.3,6.2,23.8,9.3,26.7c4,3.9,10.3,4.8,15,2.1
		c4.8-2.7,6.5-6.3,10.2-21.2c1-4.1,3.2-12.9,4.8-19.5c12.6-51.3,27.5-98.2,46.5-146.3c6.5-16.6,21-51.2,23.5-56
		c2.4-4.8,10-18.9,16.5-30.6c9.9-17.8,13.8-24.6,37.8-65.5c36.3-61.9,47.5-89.5,52.5-129.6c1.8-14.3,2.4-38.9,1.3-48.7
		c-3.4-29.4-12.1-55.3-26.7-79.7C334.2,35.2,254.3-6.1,181,0.5 M213,24.4c56.8,6.1,111.3,40.4,139.7,88c17.1,28.7,25.2,61.1,23.4,94
		c-2.1,40.6-11.2,68.8-37.3,115.2c-4.5,8-8,14-26.6,45.8c-16.9,28.9-30.4,52.9-40.8,72.8c-4.6,8.9-22.4,51.5-31.8,76.2
		c-14,37-26.6,76.5-37,116.2c-2.4,9.1-2.4,9.1-4.5,1c-9.3-36.8-22.5-78.5-36.4-115.7c-10.7-28.6-28.5-71.4-34.4-82.4
		c-11.8-22.3-23.3-42.7-41-73c-25.4-43.3-30.5-52.2-37.5-66.2c-33.4-66.8-33.8-132.8-1.1-187.1C74.3,65.5,123.3,32.9,174,25.3
		c3.9-0.6,6.4-0.8,14.3-1.5C191.7,23.5,208.3,23.9,213,24.4"/>
	<path id="path1" class="st1" d="M193.2,127.6c-49.9,4.7-80,58.6-57.8,103.5c26.5,53.5,102.7,53.6,129.2,0
		C289.4,180.9,249.1,122.3,193.2,127.6"/>
	<path id="path2" class="st2" d="M188.7,24.1c-8,0.7-10.5,0.9-14.3,1.5c-50.8,7.6-99.8,40.2-126.2,84.1
		c-32.7,54.2-32.3,119.7,1.1,186.4c7,14,12,22.9,37.5,66.2c17.8,30.3,29.2,50.7,41,73c5.8,11,23.7,53.8,34.4,82.4
		c13.9,37.1,27,78.9,36.4,115.7c0.9,3.4,1.7,6.1,1.8,6c0.1-0.1,1.2-3.9,2.3-8.4c9.8-37.8,22.7-78.1,36.6-114.8
		c9.4-24.8,27.1-67.4,31.8-76.2c10.4-19.9,23.9-44,40.8-72.8c18.7-31.8,22.1-37.8,26.6-45.8c26.1-46.4,35.2-74.6,37.3-115.2
		c3.8-73.4-42-140.6-115.8-169.8C237.8,27.7,207.9,22.5,188.7,24.1 M206.2,127.5c60.9,5.6,87.9,79.8,44.7,122.8
		c-39.5,39.2-106.7,20.8-120.6-33C117.9,169.5,157.1,123.1,206.2,127.5"/>
	<path id="path4" class="st3" d="M186.3,23.9c-33,2.5-65.3,15.1-93.6,36.3C23.4,112.3,4.5,199.6,44,286
		c6.9,15.2,14.4,28.9,34.9,63.7c35.7,60.8,48.8,84.6,57,104.1c29.8,70,47,119.7,63,182.3c1.4,5.5,1.5,5.5,4.8-7.1
		c16.2-60.9,33.6-110.3,61.9-176.1c7.4-17.3,21.7-43.1,57.6-104.3c33.2-56.5,42.9-78.3,49.1-109.6c9.4-47.7,2.6-89.9-20.9-128.7
		C318.6,56.2,248,19.2,186.3,23.9 M212.6,24.8c56.8,6,111.3,40.4,139.7,88c17,28.5,25.1,61,23.5,93.3
		c-2.1,40.6-11.2,68.8-37.3,115.2c-4.5,8-8,14-26.6,45.8C294.9,396,281.4,420.1,271,440c-4.6,8.9-22.4,51.5-31.8,76.2
		c-13.9,36.7-26.7,77-36.6,114.8c-1.2,4.5-2.2,8.2-2.3,8.4c-0.1,0.1-1-2.5-1.8-6c-9.3-36.8-22.5-78.5-36.4-115.7
		c-10.7-28.6-28.5-71.4-34.4-82.4c-11.8-22.3-23.3-42.7-41-73c-25.4-43.3-30.5-52.2-37.5-66.2c-33.4-66.8-33.8-132.2-1.1-186.4
		c26.5-43.9,75.5-76.5,126.2-84.1c3.9-0.6,6.3-0.8,14.3-1.5C192,23.8,207.9,24.3,212.6,24.8 M0,0"/>
</g>
</svg>
