<?xml version="1.0" encoding="UTF-8" standalone="no"?>
<!DOCTYPE svg PUBLIC "-//W3C//DTD SVG 1.1//EN"
 "http://www.w3.org/Graphics/SVG/1.1/DTD/svg11.dtd">
<!-- Generated by graphviz version 2.50.0 (20211204.2007)
 -->
<!-- Title: de.backxtar.clevercharge.data.ChargingStationAdapter.onBindViewHolder Pages: 1 -->
<!--zoomable 284 -->
<svg id="main" version="1.1" xmlns="http://www.w3.org/2000/svg" xmlns:xlink="http://www.w3.org/1999/xlink" xml:space="preserve" onload="init(evt)">
<style type="text/css"><![CDATA[
.edge:hover path { stroke: red; }
.edge:hover polygon { stroke: red; fill: red; }
]]></style>
<script type="text/javascript"><![CDATA[
var edges = document.getElementsByTagName('g');
if (edges && edges.length) {
  for (var i=0;i<edges.length;i++) {
    if (edges[i].id.substr(0,4)=='edge') {
      edges[i].setAttribute('class','edge');
    }
  }
}
]]></script>
        <defs>
                <circle id="rim" cx="0" cy="0" r="7"/>
                <circle id="rim2" cx="0" cy="0" r="3.5"/>
                <g id="zoomPlus">
                        <use xlink:href="#rim" fill="#404040">
                                <set attributeName="fill" to="#808080" begin="zoomplus.mouseover" end="zoomplus.mouseout"/>
                        </use>
                        <path d="M-4,0h8M0,-4v8" fill="none" stroke="white" stroke-width="1.5" pointer-events="none"/>
                </g>
                <g id="zoomMin">
                        <use xlink:href="#rim" fill="#404040">
                                <set attributeName="fill" to="#808080" begin="zoomminus.mouseover" end="zoomminus.mouseout"/>
                        </use>
                        <path d="M-4,0h8" fill="none" stroke="white" stroke-width="1.5" pointer-events="none"/>
                </g>
                <g id="dirArrow">
                        <path fill="none" stroke="white" stroke-width="1.5" d="M0,-3.0v7 M-2.5,-0.5L0,-3.0L2.5,-0.5"/>
                </g>
               <g id="resetDef">
                       <use xlink:href="#rim2" fill="#404040">
                               <set attributeName="fill" to="#808080" begin="reset.mouseover" end="reset.mouseout"/>
                       </use>
               </g>
        </defs>

<script type="text/javascript">
var viewWidth = 582;
var viewHeight = 284;
var sectionId = 'dynsection-3';
</script>
<script xlink:href="../../svgpan.js"/>
<svg id="graph" class="graph">
<g id="viewport">
<title>de.backxtar.clevercharge.data.ChargingStationAdapter.onBindViewHolder</title>
<polygon fill="white" stroke="transparent" points="-4,4 -4,-280 578,-280 578,4 -4,4"/>
<!-- Node1 -->
<g id="node1" class="node">
<title>Node1</title>
<g id="a_node1"><a xlink:title=" ">
<polygon fill="#bfbfbf" stroke="black" points="0,-117 0,-158 173,-158 173,-117 0,-117"/>
<text text-anchor="start" x="8" y="-146" font-family="Helvetica,sans-Serif" font-size="10.00">de.backxtar.clevercharge.data.</text>
<text text-anchor="start" x="8" y="-135" font-family="Helvetica,sans-Serif" font-size="10.00">ChargingStationAdapter.onBindView</text>
<text text-anchor="middle" x="86.5" y="-124" font-family="Helvetica,sans-Serif" font-size="10.00">Holder</text>
</a>
</g>
</g>
<!-- Node2 -->
<g id="node2" class="node">
<title>Node2</title>
<g id="a_node2"><a xlink:href="../../d2/dae/classde_1_1backxtar_1_1clevercharge_1_1data_1_1_charging_station.html#a66043478cfd9a40c66f4e86a7d39748a" target="_top" xlink:title=" ">
<polygon fill="white" stroke="black" points="212.5,-245.5 212.5,-275.5 361.5,-275.5 361.5,-245.5 212.5,-245.5"/>
<text text-anchor="start" x="220.5" y="-263.5" font-family="Helvetica,sans-Serif" font-size="10.00">de.backxtar.clevercharge.data.</text>
<text text-anchor="middle" x="287" y="-252.5" font-family="Helvetica,sans-Serif" font-size="10.00">ChargingStation.getDistance</text>
</a>
</g>
</g>
<!-- Node1&#45;&gt;Node2 -->
<g id="edge1" class="edge">
<title>Node1&#45;&gt;Node2</title>
<path fill="none" stroke="midnightblue" d="M107.65,-158.08C130.41,-180.27 169.45,-215.26 209,-236.5 212.44,-238.35 216.05,-240.08 219.74,-241.69"/>
<polygon fill="midnightblue" stroke="midnightblue" points="218.47,-244.96 229.05,-245.48 221.11,-238.47 218.47,-244.96"/>
</g>
<!-- Node4 -->
<g id="node4" class="node">
<title>Node4</title>
<g id="a_node4"><a xlink:href="../../d2/dae/classde_1_1backxtar_1_1clevercharge_1_1data_1_1_charging_station.html#a46d8eb13339b35d44f74ec14d548ac9b" target="_top" xlink:title=" ">
<polygon fill="white" stroke="black" points="212.5,-196.5 212.5,-226.5 361.5,-226.5 361.5,-196.5 212.5,-196.5"/>
<text text-anchor="start" x="220.5" y="-214.5" font-family="Helvetica,sans-Serif" font-size="10.00">de.backxtar.clevercharge.data.</text>
<text text-anchor="middle" x="287" y="-203.5" font-family="Helvetica,sans-Serif" font-size="10.00">ChargingStation.getLocation</text>
</a>
</g>
</g>
<!-- Node1&#45;&gt;Node4 -->
<g id="edge3" class="edge">
<title>Node1&#45;&gt;Node4</title>
<path fill="none" stroke="midnightblue" d="M134.73,-158.07C157.07,-167.51 184.22,-178.56 209,-187.5 214.4,-189.45 220.05,-191.39 225.72,-193.27"/>
<polygon fill="midnightblue" stroke="midnightblue" points="224.66,-196.61 235.26,-196.38 226.83,-189.95 224.66,-196.61"/>
</g>
<!-- Node5 -->
<g id="node5" class="node">
<title>Node5</title>
<g id="a_node5"><a xlink:href="../../d2/dae/classde_1_1backxtar_1_1clevercharge_1_1data_1_1_charging_station.html#a458efa55632d03f2f2c187414bf056ab" target="_top" xlink:title=" ">
<polygon fill="white" stroke="black" points="212.5,-147.5 212.5,-177.5 361.5,-177.5 361.5,-147.5 212.5,-147.5"/>
<text text-anchor="start" x="220.5" y="-165.5" font-family="Helvetica,sans-Serif" font-size="10.00">de.backxtar.clevercharge.data.</text>
<text text-anchor="middle" x="287" y="-154.5" font-family="Helvetica,sans-Serif" font-size="10.00">ChargingStation.getNumber</text>
</a>
</g>
</g>
<!-- Node1&#45;&gt;Node5 -->
<g id="edge4" class="edge">
<title>Node1&#45;&gt;Node5</title>
<path fill="none" stroke="midnightblue" d="M173.12,-148.28C182.78,-149.5 192.61,-150.74 202.24,-151.95"/>
<polygon fill="midnightblue" stroke="midnightblue" points="201.83,-155.43 212.19,-153.2 202.71,-148.48 201.83,-155.43"/>
</g>
<!-- Node6 -->
<g id="node6" class="node">
<title>Node6</title>
<g id="a_node6"><a xlink:href="../../d2/dae/classde_1_1backxtar_1_1clevercharge_1_1data_1_1_charging_station.html#af753f3a0c179e10f6713c473ea3db300" target="_top" xlink:title=" ">
<polygon fill="white" stroke="black" points="212.5,-98.5 212.5,-128.5 361.5,-128.5 361.5,-98.5 212.5,-98.5"/>
<text text-anchor="start" x="220.5" y="-116.5" font-family="Helvetica,sans-Serif" font-size="10.00">de.backxtar.clevercharge.data.</text>
<text text-anchor="middle" x="287" y="-105.5" font-family="Helvetica,sans-Serif" font-size="10.00">ChargingStation.getOperator</text>
</a>
</g>
</g>
<!-- Node1&#45;&gt;Node6 -->
<g id="edge5" class="edge">
<title>Node1&#45;&gt;Node6</title>
<path fill="none" stroke="midnightblue" d="M173.12,-127.15C182.78,-125.98 192.61,-124.79 202.24,-123.63"/>
<polygon fill="midnightblue" stroke="midnightblue" points="202.69,-127.1 212.19,-122.42 201.85,-120.15 202.69,-127.1"/>
</g>
<!-- Node7 -->
<g id="node7" class="node">
<title>Node7</title>
<g id="a_node7"><a xlink:href="../../d2/dae/classde_1_1backxtar_1_1clevercharge_1_1data_1_1_charging_station.html#ac3c6cb9ec9ecfe14bb0923d82178bc74" target="_top" xlink:title=" ">
<polygon fill="white" stroke="black" points="209,-49.5 209,-79.5 365,-79.5 365,-49.5 209,-49.5"/>
<text text-anchor="start" x="217" y="-67.5" font-family="Helvetica,sans-Serif" font-size="10.00">de.backxtar.clevercharge.data.</text>
<text text-anchor="middle" x="287" y="-56.5" font-family="Helvetica,sans-Serif" font-size="10.00">ChargingStation.getPostal_code</text>
</a>
</g>
</g>
<!-- Node1&#45;&gt;Node7 -->
<g id="edge6" class="edge">
<title>Node1&#45;&gt;Node7</title>
<path fill="none" stroke="midnightblue" d="M137.48,-116.94C159.32,-108.17 185.31,-98.02 209,-89.5 215.31,-87.23 221.94,-84.94 228.56,-82.71"/>
<polygon fill="midnightblue" stroke="midnightblue" points="229.81,-85.99 238.2,-79.51 227.6,-79.34 229.81,-85.99"/>
</g>
<!-- Node8 -->
<g id="node8" class="node">
<title>Node8</title>
<g id="a_node8"><a xlink:href="../../d2/dae/classde_1_1backxtar_1_1clevercharge_1_1data_1_1_charging_station.html#afadcdca20dcbb26ec63f1329d8587fb4" target="_top" xlink:title=" ">
<polygon fill="white" stroke="black" points="212.5,-0.5 212.5,-30.5 361.5,-30.5 361.5,-0.5 212.5,-0.5"/>
<text text-anchor="start" x="220.5" y="-18.5" font-family="Helvetica,sans-Serif" font-size="10.00">de.backxtar.clevercharge.data.</text>
<text text-anchor="middle" x="287" y="-7.5" font-family="Helvetica,sans-Serif" font-size="10.00">ChargingStation.getStreet</text>
</a>
</g>
</g>
<!-- Node1&#45;&gt;Node8 -->
<g id="edge7" class="edge">
<title>Node1&#45;&gt;Node8</title>
<path fill="none" stroke="midnightblue" d="M108.62,-116.65C131.6,-94.98 170.26,-61.35 209,-40.5 213.01,-38.34 217.23,-36.33 221.55,-34.46"/>
<polygon fill="midnightblue" stroke="midnightblue" points="223.17,-37.59 231.13,-30.6 220.55,-31.1 223.17,-37.59"/>
</g>
<!-- Node3 -->
<g id="node3" class="node">
<title>Node3</title>
<g id="a_node3"><a xlink:href="../../de/d7e/classde_1_1backxtar_1_1clevercharge_1_1managers_1_1_user_manager.html#ae4f909b33cee9349c04878d1106de0cb" target="_top" xlink:title=" ">
<polygon fill="white" stroke="black" points="401,-245.5 401,-275.5 574,-275.5 574,-245.5 401,-245.5"/>
<text text-anchor="start" x="409" y="-263.5" font-family="Helvetica,sans-Serif" font-size="10.00">de.backxtar.clevercharge.managers.</text>
<text text-anchor="middle" x="487.5" y="-252.5" font-family="Helvetica,sans-Serif" font-size="10.00">UserManager.getMyPosition</text>
</a>
</g>
</g>
<!-- Node2&#45;&gt;Node3 -->
<g id="edge2" class="edge">
<title>Node2&#45;&gt;Node3</title>
<path fill="none" stroke="midnightblue" d="M361.63,-260.5C371.13,-260.5 380.97,-260.5 390.76,-260.5"/>
<polygon fill="midnightblue" stroke="midnightblue" points="390.93,-264 400.93,-260.5 390.93,-257 390.93,-264"/>
</g>
</g>
</svg>
        <g id="navigator" transform="translate(0 0)" fill="#404254">
                <rect fill="#f2f5e9" fill-opacity="0.5" stroke="#606060" stroke-width=".5" x="0" y="0" width="60" height="60"/>
                <use id="zoomplus" xlink:href="#zoomPlus" x="17" y="9" onmousedown="handleZoom(evt,'in')"/>
                <use id="zoomminus" xlink:href="#zoomMin" x="42" y="9" onmousedown="handleZoom(evt,'out')"/>
                <use id="reset" xlink:href="#resetDef" x="30" y="36" onmousedown="handleReset()"/>
                <g id="arrowUp" xlink:href="#dirArrow" transform="translate(30 24)" onmousedown="handlePan(0,-1)">
                  <use xlink:href="#rim" fill="#404040">
                        <set attributeName="fill" to="#808080" begin="arrowUp.mouseover" end="arrowUp.mouseout"/>
                  </use>
                  <path fill="none" stroke="white" stroke-width="1.5" d="M0,-3.0v7 M-2.5,-0.5L0,-3.0L2.5,-0.5"/>
                </g>
                <g id="arrowRight" xlink:href="#dirArrow" transform="rotate(90) translate(36 -43)" onmousedown="handlePan(1,0)">
                  <use xlink:href="#rim" fill="#404040">
                        <set attributeName="fill" to="#808080" begin="arrowRight.mouseover" end="arrowRight.mouseout"/>
                  </use>
                  <path fill="none" stroke="white" stroke-width="1.5" d="M0,-3.0v7 M-2.5,-0.5L0,-3.0L2.5,-0.5"/>
                </g>
                <g id="arrowDown" xlink:href="#dirArrow" transform="rotate(180) translate(-30 -48)" onmousedown="handlePan(0,1)">
                  <use xlink:href="#rim" fill="#404040">
                        <set attributeName="fill" to="#808080" begin="arrowDown.mouseover" end="arrowDown.mouseout"/>
                  </use>
                  <path fill="none" stroke="white" stroke-width="1.5" d="M0,-3.0v7 M-2.5,-0.5L0,-3.0L2.5,-0.5"/>
                </g>
                <g id="arrowLeft" xlink:href="#dirArrow" transform="rotate(270) translate(-36 17)" onmousedown="handlePan(-1,0)">
                  <use xlink:href="#rim" fill="#404040">
                        <set attributeName="fill" to="#808080" begin="arrowLeft.mouseover" end="arrowLeft.mouseout"/>
                  </use>
                  <path fill="none" stroke="white" stroke-width="1.5" d="M0,-3.0v7 M-2.5,-0.5L0,-3.0L2.5,-0.5"/>
                </g>
        </g>
        <svg viewBox="0 0 15 15" width="100%" height="30px" preserveAspectRatio="xMaxYMin meet">
         <g id="arrow_out" transform="scale(0.3 0.3)">
          <a xlink:href="classde_1_1backxtar_1_1clevercharge_1_1data_1_1_charging_station_adapter_a3faf615a173caef09b3b6a62140fbda6_cgraph_org.svg" target="_base">
           <rect id="button" ry="5" rx="5" y="6" x="6" height="38" width="38"
                fill="#f2f5e9" fill-opacity="0.5" stroke="#606060" stroke-width="1.0"/>
           <path id="arrow"
             d="M 11.500037,31.436501 C 11.940474,20.09759 22.043105,11.32322 32.158766,21.979434 L 37.068811,17.246167 C 37.068811,17.246167 37.088388,32 37.088388,32 L 22.160133,31.978069 C 22.160133,31.978069 26.997745,27.140456 26.997745,27.140456 C 18.528582,18.264221 13.291696,25.230495 11.500037,31.436501 z"
             style="fill:#404040;"/>
          </a>
         </g>
        </svg>
</svg>
