<?xml version="1.0" encoding="UTF-8" standalone="no"?>
<!DOCTYPE svg PUBLIC "-//W3C//DTD SVG 1.1//EN"
 "http://www.w3.org/Graphics/SVG/1.1/DTD/svg11.dtd">
<!-- Generated by graphviz version 2.50.0 (20211204.2007)
 -->
<!-- Title: Graphical Class Hierarchy Pages: 1 -->
<svg width="387pt" height="333pt"
 viewBox="0.00 0.00 387.00 333.00" xmlns="http://www.w3.org/2000/svg" xmlns:xlink="http://www.w3.org/1999/xlink">
<g id="graph0" class="graph" transform="scale(1 1) rotate(0) translate(4 329)">
<title>Graphical Class Hierarchy</title>
<polygon fill="white" stroke="transparent" points="-4,4 -4,-329 383,-329 383,4 -4,4"/>
<!-- Node0 -->
<g id="node1" class="node">
<title>Node0</title>
<g id="a_node1"><a xlink:href="df/dc0/interfacede_1_1backxtar_1_1clevercharge_1_1interfaces_1_1_recycler_view_interface.html" target="_top" xlink:title=" ">
<polygon fill="white" stroke="black" points="0,-269.5 0,-299.5 173,-299.5 173,-269.5 0,-269.5"/>
<text text-anchor="start" x="8" y="-287.5" font-family="Helvetica,sans-Serif" font-size="10.00">de.backxtar.clevercharge.interfaces.</text>
<text text-anchor="middle" x="86.5" y="-276.5" font-family="Helvetica,sans-Serif" font-size="10.00">RecyclerViewInterface</text>
</a>
</g>
</g>
<!-- Node1 -->
<g id="node2" class="node">
<title>Node1</title>
<g id="a_node2"><a xlink:href="da/daa/classde_1_1backxtar_1_1clevercharge_1_1fragments_main_1_1_dev_fragment.html" target="_top" xlink:title=" ">
<polygon fill="white" stroke="black" points="209,-245.5 209,-275.5 379,-275.5 379,-245.5 209,-245.5"/>
<text text-anchor="start" x="217" y="-263.5" font-family="Helvetica,sans-Serif" font-size="10.00">de.backxtar.clevercharge.fragments</text>
<text text-anchor="middle" x="294" y="-252.5" font-family="Helvetica,sans-Serif" font-size="10.00">Main.DevFragment</text>
</a>
</g>
</g>
<!-- Node0&#45;&gt;Node1 -->
<g id="edge1" class="edge">
<title>Node0&#45;&gt;Node1</title>
<path fill="none" stroke="midnightblue" d="M183.16,-273.33C191.72,-272.33 200.35,-271.32 208.8,-270.33"/>
<polygon fill="midnightblue" stroke="midnightblue" points="182.69,-269.86 173.16,-274.5 183.5,-276.81 182.69,-269.86"/>
</g>
<!-- Node7 -->
<g id="node3" class="node">
<title>Node7</title>
<g id="a_node3"><a xlink:href="d3/d46/classde_1_1backxtar_1_1clevercharge_1_1fragments_main_1_1_search_fragment.html" target="_top" xlink:title=" ">
<polygon fill="white" stroke="black" points="209,-294.5 209,-324.5 379,-324.5 379,-294.5 209,-294.5"/>
<text text-anchor="start" x="217" y="-312.5" font-family="Helvetica,sans-Serif" font-size="10.00">de.backxtar.clevercharge.fragments</text>
<text text-anchor="middle" x="294" y="-301.5" font-family="Helvetica,sans-Serif" font-size="10.00">Main.SearchFragment</text>
</a>
</g>
</g>
<!-- Node0&#45;&gt;Node7 -->
<g id="edge2" class="edge">
<title>Node0&#45;&gt;Node7</title>
<path fill="none" stroke="midnightblue" d="M183.16,-296.14C191.72,-297.18 200.35,-298.23 208.8,-299.26"/>
<polygon fill="midnightblue" stroke="midnightblue" points="183.51,-292.65 173.16,-294.92 182.67,-299.6 183.51,-292.65"/>
</g>
<!-- Node2 -->
<g id="node4" class="node">
<title>Node2</title>
<g id="a_node4"><a xlink:title=" ">
<polygon fill="white" stroke="#bfbfbf" points="57.5,-153 57.5,-172 115.5,-172 115.5,-153 57.5,-153"/>
<text text-anchor="middle" x="86.5" y="-160" font-family="Helvetica,sans-Serif" font-size="10.00">Fragment</text>
</a>
</g>
</g>
<!-- Node2&#45;&gt;Node1 -->
<g id="edge5" class="edge">
<title>Node2&#45;&gt;Node1</title>
<path fill="none" stroke="midnightblue" d="M108.9,-178C132.45,-194.44 171.89,-220.25 209,-236.5 216.5,-239.78 224.58,-242.75 232.65,-245.39"/>
<polygon fill="midnightblue" stroke="midnightblue" points="110.88,-175.11 100.69,-172.19 106.84,-180.82 110.88,-175.11"/>
</g>
<!-- Node2&#45;&gt;Node7 -->
<g id="edge8" class="edge">
<title>Node2&#45;&gt;Node7</title>
<path fill="none" stroke="midnightblue" d="M100.18,-180.24C120.24,-207.02 161.9,-257.59 209,-285.5 214.74,-288.9 220.99,-291.84 227.4,-294.38"/>
<polygon fill="midnightblue" stroke="midnightblue" points="102.97,-178.13 94.23,-172.14 97.33,-182.27 102.97,-178.13"/>
</g>
<!-- Node3 -->
<g id="node5" class="node">
<title>Node3</title>
<g id="a_node5"><a xlink:href="df/dac/classde_1_1backxtar_1_1clevercharge_1_1fragments_login_1_1_login_sign_in_fragment.html" target="_top" xlink:title=" ">
<polygon fill="white" stroke="black" points="209,-147.5 209,-177.5 379,-177.5 379,-147.5 209,-147.5"/>
<text text-anchor="start" x="217" y="-165.5" font-family="Helvetica,sans-Serif" font-size="10.00">de.backxtar.clevercharge.fragments</text>
<text text-anchor="middle" x="294" y="-154.5" font-family="Helvetica,sans-Serif" font-size="10.00">Login.LoginSignInFragment</text>
</a>
</g>
</g>
<!-- Node2&#45;&gt;Node3 -->
<g id="edge3" class="edge">
<title>Node2&#45;&gt;Node3</title>
<path fill="none" stroke="midnightblue" d="M125.83,-162.5C149.21,-162.5 180.06,-162.5 208.88,-162.5"/>
<polygon fill="midnightblue" stroke="midnightblue" points="125.64,-159 115.64,-162.5 125.64,-166 125.64,-159"/>
</g>
<!-- Node4 -->
<g id="node6" class="node">
<title>Node4</title>
<g id="a_node6"><a xlink:href="d5/d12/classde_1_1backxtar_1_1clevercharge_1_1fragments_login_1_1_login_sign_up_fragment.html" target="_top" xlink:title=" ">
<polygon fill="white" stroke="black" points="209,-98.5 209,-128.5 379,-128.5 379,-98.5 209,-98.5"/>
<text text-anchor="start" x="217" y="-116.5" font-family="Helvetica,sans-Serif" font-size="10.00">de.backxtar.clevercharge.fragments</text>
<text text-anchor="middle" x="294" y="-105.5" font-family="Helvetica,sans-Serif" font-size="10.00">Login.LoginSignUpFragment</text>
</a>
</g>
</g>
<!-- Node2&#45;&gt;Node4 -->
<g id="edge4" class="edge">
<title>Node2&#45;&gt;Node4</title>
<path fill="none" stroke="midnightblue" d="M125.45,-153.45C154.64,-146.49 195.64,-136.72 229.76,-128.58"/>
<polygon fill="midnightblue" stroke="midnightblue" points="124.56,-150.07 115.64,-155.79 126.18,-156.87 124.56,-150.07"/>
</g>
<!-- Node5 -->
<g id="node7" class="node">
<title>Node5</title>
<g id="a_node7"><a xlink:href="dc/d44/classde_1_1backxtar_1_1clevercharge_1_1fragments_main_1_1_home_fragment.html" target="_top" xlink:title=" ">
<polygon fill="white" stroke="black" points="209,-49.5 209,-79.5 379,-79.5 379,-49.5 209,-49.5"/>
<text text-anchor="start" x="217" y="-67.5" font-family="Helvetica,sans-Serif" font-size="10.00">de.backxtar.clevercharge.fragments</text>
<text text-anchor="middle" x="294" y="-56.5" font-family="Helvetica,sans-Serif" font-size="10.00">Main.HomeFragment</text>
</a>
</g>
</g>
<!-- Node2&#45;&gt;Node5 -->
<g id="edge6" class="edge">
<title>Node2&#45;&gt;Node5</title>
<path fill="none" stroke="midnightblue" d="M108.9,-147C132.45,-130.56 171.89,-104.75 209,-88.5 216.5,-85.22 224.58,-82.25 232.65,-79.61"/>
<polygon fill="midnightblue" stroke="midnightblue" points="106.84,-144.18 100.69,-152.81 110.88,-149.89 106.84,-144.18"/>
</g>
<!-- Node6 -->
<g id="node8" class="node">
<title>Node6</title>
<g id="a_node8"><a xlink:href="d7/dd4/classde_1_1backxtar_1_1clevercharge_1_1fragments_main_1_1_map_fragment.html" target="_top" xlink:title=" ">
<polygon fill="white" stroke="black" points="209,-0.5 209,-30.5 379,-30.5 379,-0.5 209,-0.5"/>
<text text-anchor="start" x="217" y="-18.5" font-family="Helvetica,sans-Serif" font-size="10.00">de.backxtar.clevercharge.fragments</text>
<text text-anchor="middle" x="294" y="-7.5" font-family="Helvetica,sans-Serif" font-size="10.00">Main.MapFragment</text>
</a>
</g>
</g>
<!-- Node2&#45;&gt;Node6 -->
<g id="edge7" class="edge">
<title>Node2&#45;&gt;Node6</title>
<path fill="none" stroke="midnightblue" d="M100.18,-144.76C120.24,-117.98 161.9,-67.41 209,-39.5 214.74,-36.1 220.99,-33.16 227.4,-30.62"/>
<polygon fill="midnightblue" stroke="midnightblue" points="97.33,-142.73 94.23,-152.86 102.97,-146.87 97.33,-142.73"/>
</g>
<!-- Node8 -->
<g id="node9" class="node">
<title>Node8</title>
<g id="a_node9"><a xlink:href="dd/d9e/classde_1_1backxtar_1_1clevercharge_1_1fragments_main_1_1_settings_fragment.html" target="_top" xlink:title=" ">
<polygon fill="white" stroke="black" points="209,-196.5 209,-226.5 379,-226.5 379,-196.5 209,-196.5"/>
<text text-anchor="start" x="217" y="-214.5" font-family="Helvetica,sans-Serif" font-size="10.00">de.backxtar.clevercharge.fragments</text>
<text text-anchor="middle" x="294" y="-203.5" font-family="Helvetica,sans-Serif" font-size="10.00">Main.SettingsFragment</text>
</a>
</g>
</g>
<!-- Node2&#45;&gt;Node8 -->
<g id="edge9" class="edge">
<title>Node2&#45;&gt;Node8</title>
<path fill="none" stroke="midnightblue" d="M125.45,-171.55C154.64,-178.51 195.64,-188.28 229.76,-196.42"/>
<polygon fill="midnightblue" stroke="midnightblue" points="126.18,-168.13 115.64,-169.21 124.56,-174.93 126.18,-168.13"/>
</g>
</g>
</svg>
