<?xml version="1.0" encoding="UTF-8" standalone="no"?>
<!DOCTYPE svg PUBLIC "-//W3C//DTD SVG 1.1//EN"
 "http://www.w3.org/Graphics/SVG/1.1/DTD/svg11.dtd">
<!-- Generated by graphviz version 2.50.0 (20211204.2007)
 -->
<!-- Title: Graphical Class Hierarchy Pages: 1 -->
<svg width="271pt" height="137pt"
 viewBox="0.00 0.00 271.00 137.00" xmlns="http://www.w3.org/2000/svg" xmlns:xlink="http://www.w3.org/1999/xlink">
<g id="graph0" class="graph" transform="scale(1 1) rotate(0) translate(4 133)">
<title>Graphical Class Hierarchy</title>
<polygon fill="white" stroke="transparent" points="-4,4 -4,-133 267,-133 267,4 -4,4"/>
<!-- Node0 -->
<g id="node1" class="node">
<title>Node0</title>
<g id="a_node1"><a xlink:title=" ">
<polygon fill="white" stroke="#bfbfbf" points="0,-55 0,-74 99,-74 99,-55 0,-55"/>
<text text-anchor="middle" x="49.5" y="-62" font-family="Helvetica,sans-Serif" font-size="10.00">AppCompatActivity</text>
</a>
</g>
</g>
<!-- Node1 -->
<g id="node2" class="node">
<title>Node1</title>
<g id="a_node2"><a xlink:href="d5/d2c/classde_1_1backxtar_1_1clevercharge_1_1_loading_screen.html" target="_top" xlink:title=" ">
<polygon fill="white" stroke="black" points="135,-98.5 135,-128.5 263,-128.5 263,-98.5 135,-98.5"/>
<text text-anchor="start" x="143" y="-116.5" font-family="Helvetica,sans-Serif" font-size="10.00">de.backxtar.clevercharge.</text>
<text text-anchor="middle" x="199" y="-105.5" font-family="Helvetica,sans-Serif" font-size="10.00">LoadingScreen</text>
</a>
</g>
</g>
<!-- Node0&#45;&gt;Node1 -->
<g id="edge1" class="edge">
<title>Node0&#45;&gt;Node1</title>
<path fill="none" stroke="midnightblue" d="M88.79,-77.22C108.35,-83.72 132.27,-91.66 152.74,-98.46"/>
<polygon fill="midnightblue" stroke="midnightblue" points="89.88,-73.9 79.29,-74.06 87.68,-80.54 89.88,-73.9"/>
</g>
<!-- Node2 -->
<g id="node3" class="node">
<title>Node2</title>
<g id="a_node3"><a xlink:href="db/d96/classde_1_1backxtar_1_1clevercharge_1_1_login.html" target="_top" xlink:title=" ">
<polygon fill="white" stroke="black" points="135,-49.5 135,-79.5 263,-79.5 263,-49.5 135,-49.5"/>
<text text-anchor="start" x="143" y="-67.5" font-family="Helvetica,sans-Serif" font-size="10.00">de.backxtar.clevercharge.</text>
<text text-anchor="middle" x="199" y="-56.5" font-family="Helvetica,sans-Serif" font-size="10.00">Login</text>
</a>
</g>
</g>
<!-- Node0&#45;&gt;Node2 -->
<g id="edge2" class="edge">
<title>Node0&#45;&gt;Node2</title>
<path fill="none" stroke="midnightblue" d="M109.3,-64.5C117.71,-64.5 126.39,-64.5 134.88,-64.5"/>
<polygon fill="midnightblue" stroke="midnightblue" points="109.21,-61 99.21,-64.5 109.21,-68 109.21,-61"/>
</g>
<!-- Node3 -->
<g id="node4" class="node">
<title>Node3</title>
<g id="a_node4"><a xlink:href="d9/dac/classde_1_1backxtar_1_1clevercharge_1_1_main_activity.html" target="_top" xlink:title=" ">
<polygon fill="white" stroke="black" points="135,-0.5 135,-30.5 263,-30.5 263,-0.5 135,-0.5"/>
<text text-anchor="start" x="143" y="-18.5" font-family="Helvetica,sans-Serif" font-size="10.00">de.backxtar.clevercharge.</text>
<text text-anchor="middle" x="199" y="-7.5" font-family="Helvetica,sans-Serif" font-size="10.00">MainActivity</text>
</a>
</g>
</g>
<!-- Node0&#45;&gt;Node3 -->
<g id="edge3" class="edge">
<title>Node0&#45;&gt;Node3</title>
<path fill="none" stroke="midnightblue" d="M88.79,-51.78C108.35,-45.28 132.27,-37.34 152.74,-30.54"/>
<polygon fill="midnightblue" stroke="midnightblue" points="87.68,-48.46 79.29,-54.94 89.88,-55.1 87.68,-48.46"/>
</g>
<!-- Node4 -->
<g id="node5" class="node">
<title>Node4</title>
<g id="a_node5"><a xlink:title=" ">
<polygon fill="white" stroke="#bfbfbf" points="5.5,-6 5.5,-25 93.5,-25 93.5,-6 5.5,-6"/>
<text text-anchor="middle" x="49.5" y="-13" font-family="Helvetica,sans-Serif" font-size="10.00">LocationListener</text>
</a>
</g>
</g>
<!-- Node4&#45;&gt;Node3 -->
<g id="edge4" class="edge">
<title>Node4&#45;&gt;Node3</title>
<path fill="none" stroke="midnightblue" d="M103.83,-15.5C113.9,-15.5 124.53,-15.5 134.88,-15.5"/>
<polygon fill="midnightblue" stroke="midnightblue" points="103.56,-12 93.56,-15.5 103.56,-19 103.56,-12"/>
</g>
</g>
</svg>
