<?xml version="1.0" encoding="UTF-8" standalone="no"?>
<!DOCTYPE svg PUBLIC "-//W3C//DTD SVG 1.1//EN"
 "http://www.w3.org/Graphics/SVG/1.1/DTD/svg11.dtd">
<!-- Generated by graphviz version 2.50.0 (20211204.2007)
 -->
<!-- Title: de.backxtar.clevercharge.data.APIResponse.getFavorites Pages: 1 -->
<svg width="596pt" height="186pt"
 viewBox="0.00 0.00 596.00 186.00" xmlns="http://www.w3.org/2000/svg" xmlns:xlink="http://www.w3.org/1999/xlink">
<g id="graph0" class="graph" transform="scale(1 1) rotate(0) translate(4 182)">
<title>de.backxtar.clevercharge.data.APIResponse.getFavorites</title>
<polygon fill="white" stroke="transparent" points="-4,4 -4,-182 592,-182 592,4 -4,4"/>
<!-- Node1 -->
<g id="node1" class="node">
<title>Node1</title>
<g id="a_node1"><a xlink:title=" ">
<polygon fill="#bfbfbf" stroke="black" points="439,-73.5 439,-103.5 588,-103.5 588,-73.5 439,-73.5"/>
<text text-anchor="start" x="447" y="-91.5" font-family="Helvetica,sans-Serif" font-size="10.00">de.backxtar.clevercharge.data.</text>
<text text-anchor="middle" x="513.5" y="-80.5" font-family="Helvetica,sans-Serif" font-size="10.00">APIResponse.getFavorites</text>
</a>
</g>
</g>
<!-- Node2 -->
<g id="node2" class="node">
<title>Node2</title>
<g id="a_node2"><a xlink:href="../../d2/d96/classde_1_1backxtar_1_1clevercharge_1_1managers_1_1_station_manager.html#a90cc885bc23aaf437ec10f20c74f9355" target="_top" xlink:title=" ">
<polygon fill="white" stroke="black" points="218,-147.5 218,-177.5 391,-177.5 391,-147.5 218,-147.5"/>
<text text-anchor="start" x="226" y="-165.5" font-family="Helvetica,sans-Serif" font-size="10.00">de.backxtar.clevercharge.managers.</text>
<text text-anchor="middle" x="304.5" y="-154.5" font-family="Helvetica,sans-Serif" font-size="10.00">StationManager.getFavorites</text>
</a>
</g>
</g>
<!-- Node1&#45;&gt;Node2 -->
<g id="edge1" class="edge">
<title>Node1&#45;&gt;Node2</title>
<path fill="none" stroke="midnightblue" d="M474.27,-108.09C453.56,-118.15 427.31,-130.04 403,-138.5 393.62,-141.77 383.58,-144.77 373.64,-147.46"/>
<polygon fill="midnightblue" stroke="midnightblue" points="475.94,-111.17 483.37,-103.61 472.85,-104.89 475.94,-111.17"/>
</g>
<!-- Node3 -->
<g id="node3" class="node">
<title>Node3</title>
<g id="a_node3"><a xlink:href="../../d8/d60/classde_1_1backxtar_1_1clevercharge_1_1data_1_1_charging_station_adapter.html#aa14214e3e8413471450d01c310dcd9b6" target="_top" xlink:title=" ">
<polygon fill="white" stroke="black" points="206,-98.5 206,-128.5 403,-128.5 403,-98.5 206,-98.5"/>
<text text-anchor="start" x="214" y="-116.5" font-family="Helvetica,sans-Serif" font-size="10.00">de.backxtar.clevercharge.data.</text>
<text text-anchor="middle" x="304.5" y="-105.5" font-family="Helvetica,sans-Serif" font-size="10.00">ChargingStationAdapter.getItemViewType</text>
</a>
</g>
</g>
<!-- Node1&#45;&gt;Node3 -->
<g id="edge2" class="edge">
<title>Node1&#45;&gt;Node3</title>
<path fill="none" stroke="midnightblue" d="M428.74,-98.62C420.29,-99.64 411.66,-100.68 403.08,-101.71"/>
<polygon fill="midnightblue" stroke="midnightblue" points="429.43,-102.06 438.94,-97.38 428.59,-95.11 429.43,-102.06"/>
</g>
<!-- Node4 -->
<g id="node4" class="node">
<title>Node4</title>
<g id="a_node4"><a xlink:href="../../d9/dc7/classde_1_1backxtar_1_1clevercharge_1_1services_1_1_popup_service.html#af74f3ec6cd6fb55d81a1938af49efdd8" target="_top" xlink:title=" ">
<polygon fill="white" stroke="black" points="221.5,-49.5 221.5,-79.5 387.5,-79.5 387.5,-49.5 221.5,-49.5"/>
<text text-anchor="start" x="229.5" y="-67.5" font-family="Helvetica,sans-Serif" font-size="10.00">de.backxtar.clevercharge.services.</text>
<text text-anchor="middle" x="304.5" y="-56.5" font-family="Helvetica,sans-Serif" font-size="10.00">PopupService.showPopup</text>
</a>
</g>
</g>
<!-- Node1&#45;&gt;Node4 -->
<g id="edge3" class="edge">
<title>Node1&#45;&gt;Node4</title>
<path fill="none" stroke="midnightblue" d="M428.69,-78.78C415.14,-77.21 401.13,-75.59 387.63,-74.02"/>
<polygon fill="midnightblue" stroke="midnightblue" points="428.6,-82.3 438.94,-79.97 429.41,-75.34 428.6,-82.3"/>
</g>
<!-- Node7 -->
<g id="node7" class="node">
<title>Node7</title>
<g id="a_node7"><a xlink:href="../../d2/d96/classde_1_1backxtar_1_1clevercharge_1_1managers_1_1_station_manager.html#ab26276092c693a031e875316ddb1eb0b" target="_top" xlink:title=" ">
<polygon fill="white" stroke="black" points="218,-0.5 218,-30.5 391,-30.5 391,-0.5 218,-0.5"/>
<text text-anchor="start" x="226" y="-18.5" font-family="Helvetica,sans-Serif" font-size="10.00">de.backxtar.clevercharge.managers.</text>
<text text-anchor="middle" x="304.5" y="-7.5" font-family="Helvetica,sans-Serif" font-size="10.00">StationManager.sortByFavAndLocal</text>
</a>
</g>
</g>
<!-- Node1&#45;&gt;Node7 -->
<g id="edge6" class="edge">
<title>Node1&#45;&gt;Node7</title>
<path fill="none" stroke="midnightblue" d="M472.56,-69.13C452.08,-59.67 426.55,-48.62 403,-40.5 392.51,-36.88 381.22,-33.52 370.18,-30.51"/>
<polygon fill="midnightblue" stroke="midnightblue" points="471.34,-72.42 481.88,-73.48 474.3,-66.08 471.34,-72.42"/>
</g>
<!-- Node5 -->
<g id="node5" class="node">
<title>Node5</title>
<g id="a_node5"><a xlink:href="../../da/daa/classde_1_1backxtar_1_1clevercharge_1_1fragments_main_1_1_dev_fragment.html#ac0dce7e1f324fc5bdfc3ee7a4558b99a" target="_top" xlink:title=" ">
<polygon fill="white" stroke="black" points="0,-73.5 0,-103.5 170,-103.5 170,-73.5 0,-73.5"/>
<text text-anchor="start" x="8" y="-91.5" font-family="Helvetica,sans-Serif" font-size="10.00">de.backxtar.clevercharge.fragments</text>
<text text-anchor="middle" x="85" y="-80.5" font-family="Helvetica,sans-Serif" font-size="10.00">Main.DevFragment.onItemClick</text>
</a>
</g>
</g>
<!-- Node4&#45;&gt;Node5 -->
<g id="edge4" class="edge">
<title>Node4&#45;&gt;Node5</title>
<path fill="none" stroke="midnightblue" d="M210.99,-74.71C197.43,-76.2 183.53,-77.74 170.15,-79.21"/>
<polygon fill="midnightblue" stroke="midnightblue" points="211.72,-78.15 221.27,-73.57 210.95,-71.19 211.72,-78.15"/>
</g>
<!-- Node6 -->
<g id="node6" class="node">
<title>Node6</title>
<g id="a_node6"><a xlink:href="../../d3/d46/classde_1_1backxtar_1_1clevercharge_1_1fragments_main_1_1_search_fragment.html#ad13d718f135a39e029721ffe65f4f909" target="_top" xlink:title=" ">
<polygon fill="white" stroke="black" points="0,-24.5 0,-54.5 170,-54.5 170,-24.5 0,-24.5"/>
<text text-anchor="start" x="8" y="-42.5" font-family="Helvetica,sans-Serif" font-size="10.00">de.backxtar.clevercharge.fragments</text>
<text text-anchor="middle" x="85" y="-31.5" font-family="Helvetica,sans-Serif" font-size="10.00">Main.SearchFragment.onItemClick</text>
</a>
</g>
</g>
<!-- Node4&#45;&gt;Node6 -->
<g id="edge5" class="edge">
<title>Node4&#45;&gt;Node6</title>
<path fill="none" stroke="midnightblue" d="M210.99,-53.87C197.43,-52.31 183.53,-50.71 170.15,-49.17"/>
<polygon fill="midnightblue" stroke="midnightblue" points="210.94,-57.38 221.27,-55.05 211.74,-50.43 210.94,-57.38"/>
</g>
</g>
</svg>
