<?xml version="1.0" encoding="UTF-8" standalone="no"?>
<!DOCTYPE svg PUBLIC "-//W3C//DTD SVG 1.1//EN"
 "http://www.w3.org/Graphics/SVG/1.1/DTD/svg11.dtd">
<!-- Generated by graphviz version 2.50.0 (20211204.2007)
 -->
<!-- Title: de.backxtar.clevercharge.services.DownloadService.getJson Pages: 1 -->
<svg width="540pt" height="137pt"
 viewBox="0.00 0.00 540.00 137.00" xmlns="http://www.w3.org/2000/svg" xmlns:xlink="http://www.w3.org/1999/xlink">
<g id="graph0" class="graph" transform="scale(1 1) rotate(0) translate(4 133)">
<title>de.backxtar.clevercharge.services.DownloadService.getJson</title>
<polygon fill="white" stroke="transparent" points="-4,4 -4,-133 536,-133 536,4 -4,4"/>
<!-- Node1 -->
<g id="node1" class="node">
<title>Node1</title>
<g id="a_node1"><a xlink:title=" ">
<polygon fill="#bfbfbf" stroke="black" points="366,-49.5 366,-79.5 532,-79.5 532,-49.5 366,-49.5"/>
<text text-anchor="start" x="374" y="-67.5" font-family="Helvetica,sans-Serif" font-size="10.00">de.backxtar.clevercharge.services.</text>
<text text-anchor="middle" x="449" y="-56.5" font-family="Helvetica,sans-Serif" font-size="10.00">DownloadService.getJson</text>
</a>
</g>
</g>
<!-- Node2 -->
<g id="node2" class="node">
<title>Node2</title>
<g id="a_node2"><a xlink:href="$dc/d75/classde_1_1backxtar_1_1clevercharge_1_1services_1_1_download_service.html#aa5f73fe4db1608145f95dc158f098e46" xlink:title=" ">
<polygon fill="white" stroke="black" points="164,-98.5 164,-128.5 330,-128.5 330,-98.5 164,-98.5"/>
<text text-anchor="start" x="172" y="-116.5" font-family="Helvetica,sans-Serif" font-size="10.00">de.backxtar.clevercharge.services.</text>
<text text-anchor="middle" x="247" y="-105.5" font-family="Helvetica,sans-Serif" font-size="10.00">DownloadService.getArticles</text>
</a>
</g>
</g>
<!-- Node1&#45;&gt;Node2 -->
<g id="edge1" class="edge">
<title>Node1&#45;&gt;Node2</title>
<path fill="none" stroke="midnightblue" d="M376.67,-81.98C354.62,-87.38 330.55,-93.28 309.25,-98.49"/>
<polygon fill="midnightblue" stroke="midnightblue" points="377.75,-85.31 386.63,-79.53 376.09,-78.51 377.75,-85.31"/>
</g>
<!-- Node4 -->
<g id="node4" class="node">
<title>Node4</title>
<g id="a_node4"><a xlink:href="$dc/d75/classde_1_1backxtar_1_1clevercharge_1_1services_1_1_download_service.html#a518fd601ccdd20b9d22ac754eff30d54" xlink:title=" ">
<polygon fill="white" stroke="black" points="164,-0.5 164,-30.5 330,-30.5 330,-0.5 164,-0.5"/>
<text text-anchor="start" x="172" y="-18.5" font-family="Helvetica,sans-Serif" font-size="10.00">de.backxtar.clevercharge.services.</text>
<text text-anchor="middle" x="247" y="-7.5" font-family="Helvetica,sans-Serif" font-size="10.00">DownloadService.getResponse</text>
</a>
</g>
</g>
<!-- Node1&#45;&gt;Node4 -->
<g id="edge3" class="edge">
<title>Node1&#45;&gt;Node4</title>
<path fill="none" stroke="midnightblue" d="M376.67,-47.02C354.62,-41.62 330.55,-35.72 309.25,-30.51"/>
<polygon fill="midnightblue" stroke="midnightblue" points="376.09,-50.49 386.63,-49.47 377.75,-43.69 376.09,-50.49"/>
</g>
<!-- Node6 -->
<g id="node6" class="node">
<title>Node6</title>
<g id="a_node6"><a xlink:href="$dc/d75/classde_1_1backxtar_1_1clevercharge_1_1services_1_1_download_service.html#ac572f7a40930620aef9d93f4500ca961" xlink:title=" ">
<polygon fill="white" stroke="black" points="164,-49.5 164,-79.5 330,-79.5 330,-49.5 164,-49.5"/>
<text text-anchor="start" x="172" y="-67.5" font-family="Helvetica,sans-Serif" font-size="10.00">de.backxtar.clevercharge.services.</text>
<text text-anchor="middle" x="247" y="-56.5" font-family="Helvetica,sans-Serif" font-size="10.00">DownloadService.getStations</text>
</a>
</g>
</g>
<!-- Node1&#45;&gt;Node6 -->
<g id="edge5" class="edge">
<title>Node1&#45;&gt;Node6</title>
<path fill="none" stroke="midnightblue" d="M355.53,-64.5C347.09,-64.5 338.57,-64.5 330.22,-64.5"/>
<polygon fill="midnightblue" stroke="midnightblue" points="355.79,-68 365.79,-64.5 355.79,-61 355.79,-68"/>
</g>
<!-- Node3 -->
<g id="node3" class="node">
<title>Node3</title>
<g id="a_node3"><a xlink:href="$d5/d2c/classde_1_1backxtar_1_1clevercharge_1_1_loading_screen.html#a3576280bfc02203be6c9d13d4bfe3957" xlink:title=" ">
<polygon fill="white" stroke="black" points="0,-73.5 0,-103.5 128,-103.5 128,-73.5 0,-73.5"/>
<text text-anchor="start" x="8" y="-91.5" font-family="Helvetica,sans-Serif" font-size="10.00">de.backxtar.clevercharge.</text>
<text text-anchor="middle" x="64" y="-80.5" font-family="Helvetica,sans-Serif" font-size="10.00">LoadingScreen.onCreate</text>
</a>
</g>
</g>
<!-- Node2&#45;&gt;Node3 -->
<g id="edge2" class="edge">
<title>Node2&#45;&gt;Node3</title>
<path fill="none" stroke="midnightblue" d="M154.05,-100.8C145.25,-99.58 136.47,-98.37 128.04,-97.21"/>
<polygon fill="midnightblue" stroke="midnightblue" points="153.59,-104.27 163.97,-102.17 154.55,-97.33 153.59,-104.27"/>
</g>
<!-- Node5 -->
<g id="node5" class="node">
<title>Node5</title>
<g id="a_node5"><a xlink:href="$db/d96/classde_1_1backxtar_1_1clevercharge_1_1_login.html#a24ca4a6d588d025fb2caba526586d45b" xlink:title=" ">
<polygon fill="white" stroke="black" points="0,-0.5 0,-30.5 128,-30.5 128,-0.5 0,-0.5"/>
<text text-anchor="start" x="8" y="-18.5" font-family="Helvetica,sans-Serif" font-size="10.00">de.backxtar.clevercharge.</text>
<text text-anchor="middle" x="64" y="-7.5" font-family="Helvetica,sans-Serif" font-size="10.00">Login.onCreate</text>
</a>
</g>
</g>
<!-- Node4&#45;&gt;Node5 -->
<g id="edge4" class="edge">
<title>Node4&#45;&gt;Node5</title>
<path fill="none" stroke="midnightblue" d="M153.76,-15.5C145.06,-15.5 136.37,-15.5 128.04,-15.5"/>
<polygon fill="midnightblue" stroke="midnightblue" points="153.97,-19 163.97,-15.5 153.97,-12 153.97,-19"/>
</g>
<!-- Node6&#45;&gt;Node3 -->
<g id="edge6" class="edge">
<title>Node6&#45;&gt;Node3</title>
<path fill="none" stroke="midnightblue" d="M154.05,-76.69C145.25,-77.86 136.47,-79.02 128.04,-80.14"/>
<polygon fill="midnightblue" stroke="midnightblue" points="154.52,-80.16 163.97,-75.38 153.6,-73.22 154.52,-80.16"/>
</g>
</g>
</svg>
