<?xml version="1.0" encoding="UTF-8" standalone="no"?>
<!DOCTYPE svg PUBLIC "-//W3C//DTD SVG 1.1//EN"
 "http://www.w3.org/Graphics/SVG/1.1/DTD/svg11.dtd">
<!-- Generated by graphviz version 2.50.0 (20211204.2007)
 -->
<!-- Title: de.backxtar.clevercharge.fragmentsMain.HomeFragment.onCreateView Pages: 1 -->
<svg width="387pt" height="137pt"
 viewBox="0.00 0.00 387.00 137.00" xmlns="http://www.w3.org/2000/svg" xmlns:xlink="http://www.w3.org/1999/xlink">
<g id="graph0" class="graph" transform="scale(1 1) rotate(0) translate(4 133)">
<title>de.backxtar.clevercharge.fragmentsMain.HomeFragment.onCreateView</title>
<polygon fill="white" stroke="transparent" points="-4,4 -4,-133 383,-133 383,4 -4,4"/>
<!-- Node1 -->
<g id="node1" class="node">
<title>Node1</title>
<g id="a_node1"><a xlink:title=" ">
<polygon fill="#bfbfbf" stroke="black" points="0,-49.5 0,-79.5 170,-79.5 170,-49.5 0,-49.5"/>
<text text-anchor="start" x="8" y="-67.5" font-family="Helvetica,sans-Serif" font-size="10.00">de.backxtar.clevercharge.fragments</text>
<text text-anchor="middle" x="85" y="-56.5" font-family="Helvetica,sans-Serif" font-size="10.00">Main.HomeFragment.onCreateView</text>
</a>
</g>
</g>
<!-- Node2 -->
<g id="node2" class="node">
<title>Node2</title>
<g id="a_node2"><a xlink:href="../../de/d7e/classde_1_1backxtar_1_1clevercharge_1_1managers_1_1_user_manager.html#aec331a849cb8f78997bafd5432f2115e" target="_top" xlink:title=" ">
<polygon fill="white" stroke="black" points="206,-98.5 206,-128.5 379,-128.5 379,-98.5 206,-98.5"/>
<text text-anchor="start" x="214" y="-116.5" font-family="Helvetica,sans-Serif" font-size="10.00">de.backxtar.clevercharge.managers.</text>
<text text-anchor="middle" x="292.5" y="-105.5" font-family="Helvetica,sans-Serif" font-size="10.00">UserManager.getArticles</text>
</a>
</g>
</g>
<!-- Node1&#45;&gt;Node2 -->
<g id="edge1" class="edge">
<title>Node1&#45;&gt;Node2</title>
<path fill="none" stroke="midnightblue" d="M149.05,-79.53C171.05,-84.78 195.91,-90.71 218.63,-96.13"/>
<polygon fill="midnightblue" stroke="midnightblue" points="218.03,-99.58 228.57,-98.49 219.65,-92.77 218.03,-99.58"/>
</g>
<!-- Node3 -->
<g id="node3" class="node">
<title>Node3</title>
<g id="a_node3"><a xlink:href="../../d2/d96/classde_1_1backxtar_1_1clevercharge_1_1managers_1_1_station_manager.html#a5154a6718e345d9eba0c07ec99f096fd" target="_top" xlink:title=" ">
<polygon fill="white" stroke="black" points="206,-49.5 206,-79.5 379,-79.5 379,-49.5 206,-49.5"/>
<text text-anchor="start" x="214" y="-67.5" font-family="Helvetica,sans-Serif" font-size="10.00">de.backxtar.clevercharge.managers.</text>
<text text-anchor="middle" x="292.5" y="-56.5" font-family="Helvetica,sans-Serif" font-size="10.00">StationManager.getStationAmount</text>
</a>
</g>
</g>
<!-- Node1&#45;&gt;Node3 -->
<g id="edge2" class="edge">
<title>Node1&#45;&gt;Node3</title>
<path fill="none" stroke="midnightblue" d="M170.18,-64.5C178.53,-64.5 187.05,-64.5 195.51,-64.5"/>
<polygon fill="midnightblue" stroke="midnightblue" points="195.79,-68 205.79,-64.5 195.79,-61 195.79,-68"/>
</g>
<!-- Node4 -->
<g id="node4" class="node">
<title>Node4</title>
<g id="a_node4"><a xlink:href="../../d2/d96/classde_1_1backxtar_1_1clevercharge_1_1managers_1_1_station_manager.html#a21dbe93b9bbd9b272c9ba5dcf34d535d" target="_top" xlink:title=" ">
<polygon fill="white" stroke="black" points="206,-0.5 206,-30.5 379,-30.5 379,-0.5 206,-0.5"/>
<text text-anchor="start" x="214" y="-18.5" font-family="Helvetica,sans-Serif" font-size="10.00">de.backxtar.clevercharge.managers.</text>
<text text-anchor="middle" x="292.5" y="-7.5" font-family="Helvetica,sans-Serif" font-size="10.00">StationManager.sort</text>
</a>
</g>
</g>
<!-- Node1&#45;&gt;Node4 -->
<g id="edge3" class="edge">
<title>Node1&#45;&gt;Node4</title>
<path fill="none" stroke="midnightblue" d="M149.05,-49.47C171.05,-44.22 195.91,-38.29 218.63,-32.87"/>
<polygon fill="midnightblue" stroke="midnightblue" points="219.65,-36.23 228.57,-30.51 218.03,-29.42 219.65,-36.23"/>
</g>
</g>
</svg>
