<?xml version="1.0" encoding="UTF-8" standalone="no"?>
<!DOCTYPE svg PUBLIC "-//W3C//DTD SVG 1.1//EN"
 "http://www.w3.org/Graphics/SVG/1.1/DTD/svg11.dtd">
<!-- Generated by graphviz version 2.50.0 (20211204.2007)
 -->
<!-- Title: de.backxtar.clevercharge.services.PopupService.showPopup Pages: 1 -->
<svg width="380pt" height="88pt"
 viewBox="0.00 0.00 380.00 88.00" xmlns="http://www.w3.org/2000/svg" xmlns:xlink="http://www.w3.org/1999/xlink">
<g id="graph0" class="graph" transform="scale(1 1) rotate(0) translate(4 84)">
<title>de.backxtar.clevercharge.services.PopupService.showPopup</title>
<polygon fill="white" stroke="transparent" points="-4,4 -4,-84 376,-84 376,4 -4,4"/>
<!-- Node1 -->
<g id="node1" class="node">
<title>Node1</title>
<g id="a_node1"><a xlink:title=" ">
<polygon fill="#bfbfbf" stroke="black" points="206,-24.5 206,-54.5 372,-54.5 372,-24.5 206,-24.5"/>
<text text-anchor="start" x="214" y="-42.5" font-family="Helvetica,sans-Serif" font-size="10.00">de.backxtar.clevercharge.services.</text>
<text text-anchor="middle" x="289" y="-31.5" font-family="Helvetica,sans-Serif" font-size="10.00">PopupService.showPopup</text>
</a>
</g>
</g>
<!-- Node2 -->
<g id="node2" class="node">
<title>Node2</title>
<g id="a_node2"><a xlink:href="../../da/daa/classde_1_1backxtar_1_1clevercharge_1_1fragments_main_1_1_dev_fragment.html#ac0dce7e1f324fc5bdfc3ee7a4558b99a" target="_top" xlink:title=" ">
<polygon fill="white" stroke="black" points="0,-49.5 0,-79.5 170,-79.5 170,-49.5 0,-49.5"/>
<text text-anchor="start" x="8" y="-67.5" font-family="Helvetica,sans-Serif" font-size="10.00">de.backxtar.clevercharge.fragments</text>
<text text-anchor="middle" x="85" y="-56.5" font-family="Helvetica,sans-Serif" font-size="10.00">Main.DevFragment.onItemClick</text>
</a>
</g>
</g>
<!-- Node1&#45;&gt;Node2 -->
<g id="edge1" class="edge">
<title>Node1&#45;&gt;Node2</title>
<path fill="none" stroke="midnightblue" d="M195.82,-50.91C187.23,-51.97 178.56,-53.04 170.06,-54.1"/>
<polygon fill="midnightblue" stroke="midnightblue" points="196.34,-54.37 205.84,-49.67 195.48,-47.42 196.34,-54.37"/>
</g>
<!-- Node3 -->
<g id="node3" class="node">
<title>Node3</title>
<g id="a_node3"><a xlink:href="../../d3/d46/classde_1_1backxtar_1_1clevercharge_1_1fragments_main_1_1_search_fragment.html#ad13d718f135a39e029721ffe65f4f909" target="_top" xlink:title=" ">
<polygon fill="white" stroke="black" points="0,-0.5 0,-30.5 170,-30.5 170,-0.5 0,-0.5"/>
<text text-anchor="start" x="8" y="-18.5" font-family="Helvetica,sans-Serif" font-size="10.00">de.backxtar.clevercharge.fragments</text>
<text text-anchor="middle" x="85" y="-7.5" font-family="Helvetica,sans-Serif" font-size="10.00">Main.SearchFragment.onItemClick</text>
</a>
</g>
</g>
<!-- Node1&#45;&gt;Node3 -->
<g id="edge2" class="edge">
<title>Node1&#45;&gt;Node3</title>
<path fill="none" stroke="midnightblue" d="M195.82,-28.55C187.23,-27.53 178.56,-26.5 170.06,-25.49"/>
<polygon fill="midnightblue" stroke="midnightblue" points="195.5,-32.03 205.84,-29.74 196.32,-25.08 195.5,-32.03"/>
</g>
</g>
</svg>
