<svg xmlns="http://www.w3.org/2000/svg" xmlns:xlink="http://www.w3.org/1999/xlink" width="412" height="778" viewBox="0 0 412 778">
  <defs>
    <filter id="Rechteck_6" x="23.5" y="696.5" width="368" height="69" filterUnits="userSpaceOnUse">
      <feOffset dx="1" dy="5" input="SourceAlpha"/>
      <feGaussianBlur stdDeviation="2.5" result="blur"/>
      <feFlood flood-opacity="0.161"/>
      <feComposite operator="in" in2="blur"/>
      <feComposite in="SourceGraphic"/>
    </filter>
    <filter id="Ellipse_1" x="124" y="96" width="166" height="166" filterUnits="userSpaceOnUse">
      <feOffset dx="1" dy="4" input="SourceAlpha"/>
      <feGaussianBlur stdDeviation="2" result="blur-2"/>
      <feFlood flood-opacity="0.161"/>
      <feComposite operator="in" in2="blur-2"/>
      <feComposite in="SourceGraphic"/>
    </filter>
    <filter id="Rechteck_23" x="66.5" y="287.5" width="282" height="164" filterUnits="userSpaceOnUse">
      <feOffset dx="1" dy="3" input="SourceAlpha"/>
      <feGaussianBlur stdDeviation="1.5" result="blur-3"/>
      <feFlood flood-opacity="0.161"/>
      <feComposite operator="in" in2="blur-3"/>
      <feComposite in="SourceGraphic"/>
    </filter>
    <filter id="Rechteck_24" x="66.5" y="463.5" width="282" height="124" filterUnits="userSpaceOnUse">
      <feOffset dx="1" dy="3" input="SourceAlpha"/>
      <feGaussianBlur stdDeviation="1.5" result="blur-4"/>
      <feFlood flood-opacity="0.161"/>
      <feComposite operator="in" in2="blur-4"/>
      <feComposite in="SourceGraphic"/>
    </filter>
    <clipPath id="clip-path">
      <rect id="Mask" width="142" height="2" rx="1" fill="#6a7cff"/>
    </clipPath>
    <clipPath id="clip-path-2">
      <rect width="360" height="2" fill="none"/>
    </clipPath>
    <clipPath id="clip-path-3">
      <rect id="Mask-2" data-name="Mask" width="59" height="2" rx="1" fill="#6a7cff"/>
    </clipPath>
    <clipPath id="clip-path-4">
      <rect width="149.577" height="2" fill="none"/>
    </clipPath>
    <filter id="Rectangle" x="152.5" y="613.5" width="107" height="50" filterUnits="userSpaceOnUse">
      <feOffset dy="1" input="SourceAlpha"/>
      <feGaussianBlur stdDeviation="2.5" result="blur-5"/>
      <feFlood flood-opacity="0.2"/>
      <feComposite operator="in" in2="blur-5"/>
      <feComposite in="SourceGraphic"/>
    </filter>
    <filter id="Rectangle-2" x="158.5" y="620" width="95" height="39.5" filterUnits="userSpaceOnUse">
      <feOffset dy="3" input="SourceAlpha"/>
      <feGaussianBlur stdDeviation="0.5" result="blur-6"/>
      <feFlood flood-opacity="0.122"/>
      <feComposite operator="in" in2="blur-6"/>
      <feComposite in="SourceGraphic"/>
    </filter>
    <filter id="Rectangle-3" x="157" y="619" width="98" height="41" filterUnits="userSpaceOnUse">
      <feOffset dy="2" input="SourceAlpha"/>
      <feGaussianBlur stdDeviation="1" result="blur-7"/>
      <feFlood flood-opacity="0.141"/>
      <feComposite operator="in" in2="blur-7"/>
      <feComposite in="SourceGraphic"/>
    </filter>
    <clipPath id="clip-Settings_Page">
      <rect width="412" height="778"/>
    </clipPath>
  </defs>
  <g id="Settings_Page" data-name="Settings Page" clip-path="url(#clip-Settings_Page)">
    <rect width="412" height="778" fill="#f0f0f0"/>
    <g id="Rechteck_2" data-name="Rechteck 2" fill="#6a7cff" stroke="#707070" stroke-width="1">
      <rect width="412" height="175" stroke="none"/>
      <rect x="0.5" y="0.5" width="411" height="174" fill="none"/>
    </g>
    <text id="Settings" transform="translate(30 54)" fill="#fff" font-size="25" font-family="SegoeUI-Semibold, Segoe UI" font-weight="600"><tspan x="0" y="0">Settings</tspan></text>
    <g transform="matrix(1, 0, 0, 1, 0, 0)" filter="url(#Rechteck_6)">
      <g id="Rechteck_6-2" data-name="Rechteck 6" transform="translate(30 699)" fill="#fff" stroke="#707070" stroke-width="1">
        <rect width="353" height="54" rx="16" stroke="none"/>
        <rect x="0.5" y="0.5" width="352" height="53" rx="15.5" fill="none"/>
      </g>
    </g>
    <path id="ic_account_balance_24px" d="M4,10v7H7V10Zm6,0v7h3V10ZM2,22H21V19H2ZM16,10v7h3V10ZM11.5,1,2,6V8H21V6Z" transform="translate(58.13 714.5)" fill="#616161"/>
    <path id="ic_local_library_24px" d="M12,11.55A13.153,13.153,0,0,0,3,8V19a13.153,13.153,0,0,1,9,3.55A13.2,13.2,0,0,1,21,19V8A13.153,13.153,0,0,0,12,11.55ZM12,8A3,3,0,1,0,9,5,3,3,0,0,0,12,8Z" transform="translate(147.13 713.5)" fill="#616161"/>
    <path id="ic_youtube_searched_for_24px" d="M18.315,14.957h-.87l-.293-.293A7.06,7.06,0,0,0,11.793,3a7.128,7.128,0,0,0-7.065,7.065H2l4.174,4.348L10.7,10.065H6.9a4.891,4.891,0,1,1,4.891,4.891,4.994,4.994,0,0,1-1.978-.413L8.207,16.152a7.038,7.038,0,0,0,8.174-.728l.293.293v.859L22.12,22l1.62-1.609Z" transform="translate(237.13 714)" fill="#616161"/>
    <path id="ic_brightness_low_24px" d="M17.763,13.617,20.69,10.69,17.763,7.763V3.617H13.617L10.69.69,7.763,3.617H3.617V7.763L.69,10.69l2.927,2.927v4.147H7.763L10.69,20.69l2.927-2.927h4.147ZM10.69,16A5.305,5.305,0,1,1,16,10.69,5.309,5.309,0,0,1,10.69,16Z" transform="translate(331.18 715.085)" fill="#6a7cff"/>
    <g transform="matrix(1, 0, 0, 1, 0, 0)" filter="url(#Ellipse_1)">
      <g id="Ellipse_1-2" data-name="Ellipse 1" transform="translate(129 98)" fill="#fff" stroke="#707070" stroke-width="1">
        <circle cx="77" cy="77" r="77" stroke="none"/>
        <circle cx="77" cy="77" r="76.5" fill="none"/>
      </g>
    </g>
    <text id="Profile_Picture" data-name="Profile
Picture" transform="translate(206 170)" fill="#414141" font-size="20" font-family="SegoeUI-Semibold, Segoe UI" font-weight="600"><tspan x="-29.248" y="0">Profile</tspan><tspan x="-31.533" y="27">Picture</tspan></text>
    <g transform="matrix(1, 0, 0, 1, 0, 0)" filter="url(#Rechteck_23)">
      <g id="Rechteck_23-2" data-name="Rechteck 23" transform="translate(70 289)" fill="#fff" stroke="#707070" stroke-width="1">
        <rect width="273" height="155" rx="16" stroke="none"/>
        <rect x="0.5" y="0.5" width="272" height="154" rx="15.5" fill="none"/>
      </g>
    </g>
    <g transform="matrix(1, 0, 0, 1, 0, 0)" filter="url(#Rechteck_24)">
      <g id="Rechteck_24-2" data-name="Rechteck 24" transform="translate(70 465)" fill="#fff" stroke="#707070" stroke-width="1">
        <rect width="273" height="115" rx="16" stroke="none"/>
        <rect x="0.5" y="0.5" width="272" height="114" rx="15.5" fill="none"/>
      </g>
    </g>
    <text id="Account" transform="translate(206 331)" fill="#414141" font-size="24" font-family="SegoeUI-Semibold, Segoe UI" font-weight="600"><tspan x="-44.848" y="0">Account</tspan></text>
    <text id="Username:" transform="translate(159 362)" fill="#6a7cff" font-size="18" font-family="SegoeUI-Semibold, Segoe UI" font-weight="600"><tspan x="-43.194" y="0">Username:</tspan></text>
    <text id="Email:" transform="translate(138 392)" fill="#6a7cff" font-size="18" font-family="SegoeUI-Semibold, Segoe UI" font-weight="600"><tspan x="-24.201" y="0">Email:</tspan></text>
    <text id="Role:" transform="translate(186 422)" fill="#6a7cff" font-size="18" font-family="SegoeUI-Semibold, Segoe UI" font-weight="600"><tspan x="-20.039" y="0">Role:</tspan></text>
    <text id="MaxMuster" transform="translate(252 362)" fill="#414141" font-size="18" font-family="SegoeUI, Segoe UI"><tspan x="-44.67" y="0">MaxMuster</tspan></text>
    <text id="max_muster.de" data-name="max@muster.de" transform="translate(233 392)" fill="#414141" font-size="18" font-family="SegoeUI, Segoe UI"><tspan x="-64.564" y="0">max@muster.de</tspan></text>
    <text id="User" transform="translate(229 422)" fill="#414141" font-size="18" font-family="SegoeUI, Segoe UI"><tspan x="-17.837" y="0">User</tspan></text>
    <text id="Search_radius" data-name="Search radius" transform="translate(206 504)" fill="#414141" font-size="24" font-family="SegoeUI-Semibold, Segoe UI" font-weight="600"><tspan x="-72.68" y="0">Search radius</tspan></text>
    <text id="_10_km" data-name="10 km" transform="translate(206 535)" fill="#414141" font-size="18" font-family="SegoeUI, Segoe UI"><tspan x="-24.394" y="0">10 km</tspan></text>
    <g id="Light_Slider_2._Discrete_A._knob_4_States_" data-name="Light ðŸŒ•/ Slider/2. Discrete/A. knob/ (4 States)" transform="translate(135 546)">
      <g id="Light_Slider_Î©Elements_1._Track" data-name="Light ðŸŒ•/ Slider/Î©Elements/1. Track" transform="translate(0 5)">
        <g id="Mask-3" data-name="Mask" clip-path="url(#clip-path)">
          <rect id="Track" width="360" height="2" rx="1" fill="#6a7cff"/>
          <g id="Ticks" clip-path="url(#clip-path-2)">
            <circle id="Tick" cx="1" cy="1" r="1" fill="#6a7cff"/>
            <g transform="translate(28)">
              <circle id="Tick-2" data-name="Tick" cx="1" cy="1" r="1" fill="#6a7cff"/>
            </g>
            <g transform="translate(56)">
              <circle id="Tick-3" data-name="Tick" cx="1" cy="1" r="1" fill="#6a7cff"/>
            </g>
            <g transform="translate(84)">
              <circle id="Tick-4" data-name="Tick" cx="1" cy="1" r="1" fill="#6a7cff"/>
            </g>
            <g transform="translate(112)">
              <circle id="Tick-5" data-name="Tick" cx="1" cy="1" r="1" fill="#6a7cff"/>
            </g>
            <g transform="translate(140)">
              <circle id="Tick-6" data-name="Tick" cx="1" cy="1" r="1" fill="#6a7cff"/>
            </g>
            <g transform="translate(168)">
              <circle id="Tick-7" data-name="Tick" cx="1" cy="1" r="1" fill="#6a7cff"/>
            </g>
            <g transform="translate(196)">
              <circle id="Tick-8" data-name="Tick" cx="1" cy="1" r="1" fill="#6a7cff"/>
            </g>
            <g transform="translate(224)">
              <circle id="Tick-9" data-name="Tick" cx="1" cy="1" r="1" fill="#6a7cff"/>
            </g>
            <g transform="translate(252)">
              <circle id="Tick-10" data-name="Tick" cx="1" cy="1" r="1" fill="#6a7cff"/>
            </g>
            <g transform="translate(280)">
              <circle id="Tick-11" data-name="Tick" cx="1" cy="1" r="1" fill="#6a7cff"/>
            </g>
            <g transform="translate(308)">
              <circle id="Tick-12" data-name="Tick" cx="1" cy="1" r="1" fill="#6a7cff"/>
            </g>
            <g transform="translate(336)">
              <circle id="Tick-13" data-name="Tick" cx="1" cy="1" r="1" fill="#6a7cff"/>
            </g>
          </g>
        </g>
      </g>
      <g id="Light_Slider_Î©Elements_1._Track_Highlight" data-name="Light ðŸŒ•/ Slider/Î©Elements/1. Track/ Highlight" transform="translate(0 5)">
        <g id="Mask-4" data-name="Mask" clip-path="url(#clip-path-3)">
          <rect id="Track-2" data-name="Track" width="360" height="2" rx="1" transform="translate(-117.887)" fill="#6a7cff"/>
          <g id="Ticks-2" data-name="Ticks" clip-path="url(#clip-path-4)">
            <circle id="Tick-14" data-name="Tick" cx="1" cy="1" r="1" fill="#6a7cff"/>
            <g transform="translate(28)">
              <circle id="Tick-15" data-name="Tick" cx="1" cy="1" r="1" fill="#6a7cff"/>
            </g>
            <g transform="translate(56)">
              <circle id="Tick-16" data-name="Tick" cx="1" cy="1" r="1" fill="#6a7cff"/>
            </g>
            <g transform="translate(84)">
              <circle id="Tick-17" data-name="Tick" cx="1" cy="1" r="1" fill="#6a7cff"/>
            </g>
            <g transform="translate(112)">
              <circle id="Tick-18" data-name="Tick" cx="1" cy="1" r="1" fill="#6a7cff"/>
            </g>
            <g transform="translate(140)">
              <circle id="Tick-19" data-name="Tick" cx="1" cy="1" r="1" fill="#6a7cff"/>
            </g>
          </g>
        </g>
      </g>
      <g id="Light_Slider_Î©Elements_2._Knobs" data-name="Light ðŸŒ•/ Slider/Î©Elements/2. Knobs" transform="translate(53)">
        <circle id="Nobs" cx="6" cy="6" r="6" fill="#6a7cff"/>
      </g>
    </g>
    <g id="Light_Button_3._Contained_A._Text_Enabled" data-name="Light ðŸŒ•/ Button/3. Contained/A. Text/Enabled" transform="translate(160 620)">
      <g id="Container">
        <g id="Light_Elevation_02dp" data-name="Light ðŸŒ•/Elevation/02dp">
          <g id="Shadow" style="mix-blend-mode: multiply;isolation: isolate">
            <g transform="matrix(1, 0, 0, 1, -160, -620)" filter="url(#Rectangle)">
              <rect id="Rectangle-4" data-name="Rectangle" width="92" height="35" rx="4" transform="translate(160 620)" fill="#ff4454"/>
            </g>
            <g transform="matrix(1, 0, 0, 1, -160, -620)" filter="url(#Rectangle-2)">
              <rect id="Rectangle-5" data-name="Rectangle" width="92" height="35" rx="4" transform="translate(160 620)" fill="#ff4454"/>
            </g>
            <g transform="matrix(1, 0, 0, 1, -160, -620)" filter="url(#Rectangle-3)">
              <rect id="Rectangle-6" data-name="Rectangle" width="92" height="35" rx="4" transform="translate(160 620)" fill="#ff4454"/>
            </g>
          </g>
        </g>
        <rect id="_Color" data-name="â†³ ðŸŽ¨ Color" width="92" height="35" rx="4" fill="#ff4454"/>
        <g id="_States" data-name="â†³ ðŸ’¡States">
          <rect id="States_Light_Primary_Container_100_Overlay" data-name="States/Light ðŸŒ•/Primary Container 100%/Overlay" width="92" height="35" rx="4" fill="#ff4454"/>
        </g>
      </g>
      <text id="_Label" data-name="â†³ âœï¸ Label" transform="translate(16 23)" fill="#fff" font-size="14" font-family="Roboto-Medium, Roboto" font-weight="500" letter-spacing="0.089em"><tspan x="0" y="0">LOGOUT</tspan></text>
    </g>
    <path id="ic_brightness_low_24px-2" data-name="ic_brightness_low_24px" d="M22.885,17.495l3.8-3.8-3.8-3.8V4.495H17.495L13.69.69l-3.8,3.8H4.495V9.885l-3.8,3.8,3.8,3.8v5.391H9.885l3.8,3.8,3.8-3.8h5.391Zm-9.2,3.092a6.9,6.9,0,1,1,6.9-6.9A6.9,6.9,0,0,1,13.69,20.587Z" transform="translate(356.31 29.81)" fill="#fff"/>
  </g>
</svg>
