<?xml version="1.0" encoding="UTF-8" standalone="no"?>
<!DOCTYPE svg PUBLIC "-//W3C//DTD SVG 1.1//EN"
 "http://www.w3.org/Graphics/SVG/1.1/DTD/svg11.dtd">
<!-- Generated by graphviz version 2.50.0 (20211204.2007)
 -->
<!-- Title: de.backxtar.clevercharge.Login.onCreate Pages: 1 -->
<svg width="547pt" height="235pt"
 viewBox="0.00 0.00 547.00 235.00" xmlns="http://www.w3.org/2000/svg" xmlns:xlink="http://www.w3.org/1999/xlink">
<g id="graph0" class="graph" transform="scale(1 1) rotate(0) translate(4 231)">
<title>de.backxtar.clevercharge.Login.onCreate</title>
<polygon fill="white" stroke="transparent" points="-4,4 -4,-231 543,-231 543,4 -4,4"/>
<!-- Node1 -->
<g id="node1" class="node">
<title>Node1</title>
<g id="a_node1"><a xlink:title=" ">
<polygon fill="#bfbfbf" stroke="black" points="0,-98.5 0,-128.5 128,-128.5 128,-98.5 0,-98.5"/>
<text text-anchor="start" x="8" y="-116.5" font-family="Helvetica,sans-Serif" font-size="10.00">de.backxtar.clevercharge.</text>
<text text-anchor="middle" x="64" y="-105.5" font-family="Helvetica,sans-Serif" font-size="10.00">Login.onCreate</text>
</a>
</g>
</g>
<!-- Node2 -->
<g id="node2" class="node">
<title>Node2</title>
<g id="a_node2"><a xlink:href="../../dc/d75/classde_1_1backxtar_1_1clevercharge_1_1services_1_1_download_service.html#a518fd601ccdd20b9d22ac754eff30d54" target="_top" xlink:title=" ">
<polygon fill="white" stroke="black" points="167.5,-196.5 167.5,-226.5 333.5,-226.5 333.5,-196.5 167.5,-196.5"/>
<text text-anchor="start" x="175.5" y="-214.5" font-family="Helvetica,sans-Serif" font-size="10.00">de.backxtar.clevercharge.services.</text>
<text text-anchor="middle" x="250.5" y="-203.5" font-family="Helvetica,sans-Serif" font-size="10.00">DownloadService.getResponse</text>
</a>
</g>
</g>
<!-- Node1&#45;&gt;Node2 -->
<g id="edge1" class="edge">
<title>Node1&#45;&gt;Node2</title>
<path fill="none" stroke="midnightblue" d="M81.26,-128.67C99.91,-145.32 132.05,-171.76 164,-187.5 167.81,-189.38 171.79,-191.13 175.87,-192.76"/>
<polygon fill="midnightblue" stroke="midnightblue" points="174.9,-196.14 185.49,-196.35 177.34,-189.58 174.9,-196.14"/>
</g>
<!-- Node4 -->
<g id="node4" class="node">
<title>Node4</title>
<g id="a_node4"><a xlink:href="../../d8/df6/classde_1_1backxtar_1_1clevercharge_1_1managers_1_1_login_manager.html#a897d0d837e1e1e3b687ebb3e45d9e815" target="_top" xlink:title=" ">
<polygon fill="white" stroke="black" points="164,-147.5 164,-177.5 337,-177.5 337,-147.5 164,-147.5"/>
<text text-anchor="start" x="172" y="-165.5" font-family="Helvetica,sans-Serif" font-size="10.00">de.backxtar.clevercharge.managers.</text>
<text text-anchor="middle" x="250.5" y="-154.5" font-family="Helvetica,sans-Serif" font-size="10.00">LoginManager.getSignIn</text>
</a>
</g>
</g>
<!-- Node1&#45;&gt;Node4 -->
<g id="edge3" class="edge">
<title>Node1&#45;&gt;Node4</title>
<path fill="none" stroke="midnightblue" d="M121.61,-128.53C141.09,-133.71 163.08,-139.55 183.26,-144.91"/>
<polygon fill="midnightblue" stroke="midnightblue" points="182.43,-148.31 193,-147.49 184.23,-141.54 182.43,-148.31"/>
</g>
<!-- Node5 -->
<g id="node5" class="node">
<title>Node5</title>
<g id="a_node5"><a xlink:href="../../da/da6/classde_1_1backxtar_1_1clevercharge_1_1services_1_1_message_service.html#ac4ac04d455ed4804dca168aa75203943" target="_top" xlink:title=" ">
<polygon fill="white" stroke="black" points="167.5,-98.5 167.5,-128.5 333.5,-128.5 333.5,-98.5 167.5,-98.5"/>
<text text-anchor="start" x="175.5" y="-116.5" font-family="Helvetica,sans-Serif" font-size="10.00">de.backxtar.clevercharge.services.</text>
<text text-anchor="middle" x="250.5" y="-105.5" font-family="Helvetica,sans-Serif" font-size="10.00">MessageService.sendToast</text>
</a>
</g>
</g>
<!-- Node1&#45;&gt;Node5 -->
<g id="edge4" class="edge">
<title>Node1&#45;&gt;Node5</title>
<path fill="none" stroke="midnightblue" d="M128.24,-113.5C137.6,-113.5 147.42,-113.5 157.23,-113.5"/>
<polygon fill="midnightblue" stroke="midnightblue" points="157.44,-117 167.44,-113.5 157.44,-110 157.44,-117"/>
</g>
<!-- Node6 -->
<g id="node6" class="node">
<title>Node6</title>
<g id="a_node6"><a xlink:href="../../de/d7e/classde_1_1backxtar_1_1clevercharge_1_1managers_1_1_user_manager.html#ac60fac25ace90ce70aa5778abdc38a9b" target="_top" xlink:title=" ">
<polygon fill="white" stroke="black" points="164,-49.5 164,-79.5 337,-79.5 337,-49.5 164,-49.5"/>
<text text-anchor="start" x="172" y="-67.5" font-family="Helvetica,sans-Serif" font-size="10.00">de.backxtar.clevercharge.managers.</text>
<text text-anchor="middle" x="250.5" y="-56.5" font-family="Helvetica,sans-Serif" font-size="10.00">UserManager.setApi_data</text>
</a>
</g>
</g>
<!-- Node1&#45;&gt;Node6 -->
<g id="edge5" class="edge">
<title>Node1&#45;&gt;Node6</title>
<path fill="none" stroke="midnightblue" d="M121.61,-98.47C141.09,-93.29 163.08,-87.45 183.26,-82.09"/>
<polygon fill="midnightblue" stroke="midnightblue" points="184.23,-85.46 193,-79.51 182.43,-78.69 184.23,-85.46"/>
</g>
<!-- Node7 -->
<g id="node7" class="node">
<title>Node7</title>
<g id="a_node7"><a xlink:href="../../d2/d96/classde_1_1backxtar_1_1clevercharge_1_1managers_1_1_station_manager.html#a914e6fc28c83126e7ce15a29de76c836" target="_top" xlink:title=" ">
<polygon fill="white" stroke="black" points="164,-0.5 164,-30.5 337,-30.5 337,-0.5 164,-0.5"/>
<text text-anchor="start" x="172" y="-18.5" font-family="Helvetica,sans-Serif" font-size="10.00">de.backxtar.clevercharge.managers.</text>
<text text-anchor="middle" x="250.5" y="-7.5" font-family="Helvetica,sans-Serif" font-size="10.00">StationManager.setRange</text>
</a>
</g>
</g>
<!-- Node1&#45;&gt;Node7 -->
<g id="edge6" class="edge">
<title>Node1&#45;&gt;Node7</title>
<path fill="none" stroke="midnightblue" d="M81.67,-98.31C100.43,-81.94 132.43,-56.14 164,-40.5 168.64,-38.2 173.54,-36.07 178.54,-34.11"/>
<polygon fill="midnightblue" stroke="midnightblue" points="180.06,-37.28 188.24,-30.55 177.65,-30.71 180.06,-37.28"/>
</g>
<!-- Node3 -->
<g id="node3" class="node">
<title>Node3</title>
<g id="a_node3"><a xlink:href="../../dc/d75/classde_1_1backxtar_1_1clevercharge_1_1services_1_1_download_service.html#a38499dd278e4c77c5048d131ed13ab08" target="_top" xlink:title=" ">
<polygon fill="white" stroke="black" points="373,-196.5 373,-226.5 539,-226.5 539,-196.5 373,-196.5"/>
<text text-anchor="start" x="381" y="-214.5" font-family="Helvetica,sans-Serif" font-size="10.00">de.backxtar.clevercharge.services.</text>
<text text-anchor="middle" x="456" y="-203.5" font-family="Helvetica,sans-Serif" font-size="10.00">DownloadService.getJson</text>
</a>
</g>
</g>
<!-- Node2&#45;&gt;Node3 -->
<g id="edge2" class="edge">
<title>Node2&#45;&gt;Node3</title>
<path fill="none" stroke="midnightblue" d="M333.68,-211.5C343.26,-211.5 353.08,-211.5 362.79,-211.5"/>
<polygon fill="midnightblue" stroke="midnightblue" points="362.84,-215 372.84,-211.5 362.84,-208 362.84,-215"/>
</g>
</g>
</svg>
