<?xml version="1.0" encoding="UTF-8" standalone="no"?>
<!DOCTYPE svg PUBLIC "-//W3C//DTD SVG 1.1//EN"
 "http://www.w3.org/Graphics/SVG/1.1/DTD/svg11.dtd">
<!-- Generated by graphviz version 2.50.0 (20211204.2007)
 -->
<!-- Title: de.backxtar.clevercharge.data.ChargingStation.getNumber Pages: 1 -->
<svg width="572pt" height="124pt"
 viewBox="0.00 0.00 572.00 123.50" xmlns="http://www.w3.org/2000/svg" xmlns:xlink="http://www.w3.org/1999/xlink">
<g id="graph0" class="graph" transform="scale(1 1) rotate(0) translate(4 119.5)">
<title>de.backxtar.clevercharge.data.ChargingStation.getNumber</title>
<polygon fill="white" stroke="transparent" points="-4,4 -4,-119.5 568,-119.5 568,4 -4,4"/>
<!-- Node1 -->
<g id="node1" class="node">
<title>Node1</title>
<g id="a_node1"><a xlink:title=" ">
<polygon fill="#bfbfbf" stroke="black" points="415,-51.5 415,-81.5 564,-81.5 564,-51.5 415,-51.5"/>
<text text-anchor="start" x="423" y="-69.5" font-family="Helvetica,sans-Serif" font-size="10.00">de.backxtar.clevercharge.data.</text>
<text text-anchor="middle" x="489.5" y="-58.5" font-family="Helvetica,sans-Serif" font-size="10.00">ChargingStation.getNumber</text>
</a>
</g>
</g>
<!-- Node2 -->
<g id="node2" class="node">
<title>Node2</title>
<g id="a_node2"><a xlink:href="$d8/d60/classde_1_1backxtar_1_1clevercharge_1_1data_1_1_charging_station_adapter.html#a3faf615a173caef09b3b6a62140fbda6" xlink:title=" ">
<polygon fill="white" stroke="black" points="206,-74 206,-115 379,-115 379,-74 206,-74"/>
<text text-anchor="start" x="214" y="-103" font-family="Helvetica,sans-Serif" font-size="10.00">de.backxtar.clevercharge.data.</text>
<text text-anchor="start" x="214" y="-92" font-family="Helvetica,sans-Serif" font-size="10.00">ChargingStationAdapter.onBindView</text>
<text text-anchor="middle" x="292.5" y="-81" font-family="Helvetica,sans-Serif" font-size="10.00">Holder</text>
</a>
</g>
</g>
<!-- Node1&#45;&gt;Node2 -->
<g id="edge1" class="edge">
<title>Node1&#45;&gt;Node2</title>
<path fill="none" stroke="midnightblue" d="M404.85,-78.51C396.33,-79.74 387.66,-80.98 379.11,-82.21"/>
<polygon fill="midnightblue" stroke="midnightblue" points="405.38,-81.97 414.78,-77.09 404.38,-75.04 405.38,-81.97"/>
</g>
<!-- Node3 -->
<g id="node3" class="node">
<title>Node3</title>
<g id="a_node3"><a xlink:href="$d9/dc7/classde_1_1backxtar_1_1clevercharge_1_1services_1_1_popup_service.html#af74f3ec6cd6fb55d81a1938af49efdd8" xlink:title=" ">
<polygon fill="white" stroke="black" points="209.5,-24.5 209.5,-54.5 375.5,-54.5 375.5,-24.5 209.5,-24.5"/>
<text text-anchor="start" x="217.5" y="-42.5" font-family="Helvetica,sans-Serif" font-size="10.00">de.backxtar.clevercharge.services.</text>
<text text-anchor="middle" x="292.5" y="-31.5" font-family="Helvetica,sans-Serif" font-size="10.00">PopupService.showPopup</text>
</a>
</g>
</g>
<!-- Node1&#45;&gt;Node3 -->
<g id="edge2" class="edge">
<title>Node1&#45;&gt;Node3</title>
<path fill="none" stroke="midnightblue" d="M404.84,-54.92C395.22,-53.58 385.41,-52.23 375.81,-50.9"/>
<polygon fill="midnightblue" stroke="midnightblue" points="404.39,-58.39 414.78,-56.29 405.35,-51.45 404.39,-58.39"/>
</g>
<!-- Node4 -->
<g id="node4" class="node">
<title>Node4</title>
<g id="a_node4"><a xlink:href="$da/daa/classde_1_1backxtar_1_1clevercharge_1_1fragments_main_1_1_dev_fragment.html#ac0dce7e1f324fc5bdfc3ee7a4558b99a" xlink:title=" ">
<polygon fill="white" stroke="black" points="0,-49.5 0,-79.5 170,-79.5 170,-49.5 0,-49.5"/>
<text text-anchor="start" x="8" y="-67.5" font-family="Helvetica,sans-Serif" font-size="10.00">de.backxtar.clevercharge.fragments</text>
<text text-anchor="middle" x="85" y="-56.5" font-family="Helvetica,sans-Serif" font-size="10.00">Main.DevFragment.onItemClick</text>
</a>
</g>
</g>
<!-- Node3&#45;&gt;Node4 -->
<g id="edge3" class="edge">
<title>Node3&#45;&gt;Node4</title>
<path fill="none" stroke="midnightblue" d="M199.38,-50.71C189.7,-51.88 179.9,-53.08 170.33,-54.24"/>
<polygon fill="midnightblue" stroke="midnightblue" points="199.89,-54.17 209.4,-49.49 199.05,-47.22 199.89,-54.17"/>
</g>
<!-- Node5 -->
<g id="node5" class="node">
<title>Node5</title>
<g id="a_node5"><a xlink:href="$d3/d46/classde_1_1backxtar_1_1clevercharge_1_1fragments_main_1_1_search_fragment.html#ad13d718f135a39e029721ffe65f4f909" xlink:title=" ">
<polygon fill="white" stroke="black" points="0,-0.5 0,-30.5 170,-30.5 170,-0.5 0,-0.5"/>
<text text-anchor="start" x="8" y="-18.5" font-family="Helvetica,sans-Serif" font-size="10.00">de.backxtar.clevercharge.fragments</text>
<text text-anchor="middle" x="85" y="-7.5" font-family="Helvetica,sans-Serif" font-size="10.00">Main.SearchFragment.onItemClick</text>
</a>
</g>
</g>
<!-- Node3&#45;&gt;Node5 -->
<g id="edge4" class="edge">
<title>Node3&#45;&gt;Node5</title>
<path fill="none" stroke="midnightblue" d="M199.38,-28.74C189.7,-27.61 179.9,-26.47 170.33,-25.35"/>
<polygon fill="midnightblue" stroke="midnightblue" points="199.06,-32.23 209.4,-29.91 199.87,-25.27 199.06,-32.23"/>
</g>
</g>
</svg>
