<?xml version="1.0" encoding="UTF-8" standalone="no"?>
<!DOCTYPE svg PUBLIC "-//W3C//DTD SVG 1.1//EN"
 "http://www.w3.org/Graphics/SVG/1.1/DTD/svg11.dtd">
<!-- Generated by graphviz version 2.50.0 (20211204.2007)
 -->
<!-- Title: de.backxtar.clevercharge.fragmentsMain.SearchFragment Pages: 1 -->
<svg width="258pt" height="215pt"
 viewBox="0.00 0.00 257.50 215.00" xmlns="http://www.w3.org/2000/svg" xmlns:xlink="http://www.w3.org/1999/xlink">
<g id="graph0" class="graph" transform="scale(1 1) rotate(0) translate(4 211)">
<title>de.backxtar.clevercharge.fragmentsMain.SearchFragment</title>
<polygon fill="white" stroke="transparent" points="-4,4 -4,-211 253.5,-211 253.5,4 -4,4"/>
<!-- Node1 -->
<g id="node1" class="node">
<title>Node1</title>
<g id="a_node1"><a xlink:title=" ">
<polygon fill="#bfbfbf" stroke="black" points="11,-0.5 11,-101.5 181,-101.5 181,-0.5 11,-0.5"/>
<text text-anchor="start" x="19" y="-89.5" font-family="Helvetica,sans-Serif" font-size="10.00">de.backxtar.clevercharge.fragments</text>
<text text-anchor="middle" x="96" y="-78.5" font-family="Helvetica,sans-Serif" font-size="10.00">Main.SearchFragment</text>
<polyline fill="none" stroke="black" points="11,-71.5 181,-71.5 "/>
<text text-anchor="middle" x="96" y="-59.5" font-family="Helvetica,sans-Serif" font-size="10.00"> </text>
<polyline fill="none" stroke="black" points="11,-52.5 181,-52.5 "/>
<text text-anchor="start" x="19" y="-40.5" font-family="Helvetica,sans-Serif" font-size="10.00">+ SearchFragment()</text>
<text text-anchor="start" x="19" y="-29.5" font-family="Helvetica,sans-Serif" font-size="10.00">+ onCreate()</text>
<text text-anchor="start" x="19" y="-18.5" font-family="Helvetica,sans-Serif" font-size="10.00">+ onCreateView()</text>
<text text-anchor="start" x="19" y="-7.5" font-family="Helvetica,sans-Serif" font-size="10.00">+ onItemClick()</text>
</a>
</g>
</g>
<!-- Node2 -->
<g id="node2" class="node">
<title>Node2</title>
<g id="a_node2"><a xlink:title=" ">
<polygon fill="white" stroke="black" points="0,-144 0,-201 58,-201 58,-144 0,-144"/>
<text text-anchor="middle" x="29" y="-189" font-family="Helvetica,sans-Serif" font-size="10.00">Fragment</text>
<polyline fill="none" stroke="black" points="0,-182 58,-182 "/>
<text text-anchor="middle" x="29" y="-170" font-family="Helvetica,sans-Serif" font-size="10.00"> </text>
<polyline fill="none" stroke="black" points="0,-163 58,-163 "/>
<text text-anchor="middle" x="29" y="-151" font-family="Helvetica,sans-Serif" font-size="10.00"> </text>
</a>
</g>
</g>
<!-- Node2&#45;&gt;Node1 -->
<g id="edge1" class="edge">
<title>Node2&#45;&gt;Node1</title>
<path fill="none" stroke="midnightblue" d="M49.53,-134.88C55.42,-124.38 61.94,-112.74 68.19,-101.6"/>
<polygon fill="none" stroke="midnightblue" points="46.38,-133.35 44.54,-143.78 52.48,-136.77 46.38,-133.35"/>
</g>
<!-- Node3 -->
<g id="node3" class="node">
<title>Node3</title>
<g id="a_node3"><a xlink:href="../../df/dc0/interfacede_1_1backxtar_1_1clevercharge_1_1interfaces_1_1_recycler_view_interface.html" target="_top" xlink:title=" ">
<polygon fill="white" stroke="black" points="76.5,-138.5 76.5,-206.5 249.5,-206.5 249.5,-138.5 76.5,-138.5"/>
<text text-anchor="start" x="84.5" y="-194.5" font-family="Helvetica,sans-Serif" font-size="10.00">de.backxtar.clevercharge.interfaces.</text>
<text text-anchor="middle" x="163" y="-183.5" font-family="Helvetica,sans-Serif" font-size="10.00">RecyclerViewInterface</text>
<polyline fill="none" stroke="black" points="76.5,-176.5 249.5,-176.5 "/>
<text text-anchor="middle" x="163" y="-164.5" font-family="Helvetica,sans-Serif" font-size="10.00"> </text>
<polyline fill="none" stroke="black" points="76.5,-157.5 249.5,-157.5 "/>
<text text-anchor="start" x="84.5" y="-145.5" font-family="Helvetica,sans-Serif" font-size="10.00">+ onItemClick()</text>
</a>
</g>
</g>
<!-- Node3&#45;&gt;Node1 -->
<g id="edge2" class="edge">
<title>Node3&#45;&gt;Node1</title>
<path fill="none" stroke="midnightblue" d="M139.43,-129.45C134.39,-120.47 129.02,-110.89 123.83,-101.65"/>
<polygon fill="none" stroke="midnightblue" points="136.39,-131.2 144.34,-138.21 142.5,-127.78 136.39,-131.2"/>
</g>
</g>
</svg>
