<?xml version="1.0" encoding="UTF-8" standalone="no"?>
<!DOCTYPE svg PUBLIC "-//W3C//DTD SVG 1.1//EN"
 "http://www.w3.org/Graphics/SVG/1.1/DTD/svg11.dtd">
<!-- Generated by graphviz version 2.50.0 (20211204.2007)
 -->
<!-- Title: de.backxtar.clevercharge.managers.StationManager.getLocalDefects Pages: 1 -->
<svg width="610pt" height="88pt"
 viewBox="0.00 0.00 610.00 88.00" xmlns="http://www.w3.org/2000/svg" xmlns:xlink="http://www.w3.org/1999/xlink">
<g id="graph0" class="graph" transform="scale(1 1) rotate(0) translate(4 84)">
<title>de.backxtar.clevercharge.managers.StationManager.getLocalDefects</title>
<polygon fill="white" stroke="transparent" points="-4,4 -4,-84 606,-84 606,4 -4,4"/>
<!-- Node1 -->
<g id="node1" class="node">
<title>Node1</title>
<g id="a_node1"><a xlink:title=" ">
<polygon fill="#bfbfbf" stroke="black" points="0,-24.5 0,-54.5 173,-54.5 173,-24.5 0,-24.5"/>
<text text-anchor="start" x="8" y="-42.5" font-family="Helvetica,sans-Serif" font-size="10.00">de.backxtar.clevercharge.managers.</text>
<text text-anchor="middle" x="86.5" y="-31.5" font-family="Helvetica,sans-Serif" font-size="10.00">StationManager.getLocalDefects</text>
</a>
</g>
</g>
<!-- Node2 -->
<g id="node2" class="node">
<title>Node2</title>
<g id="a_node2"><a xlink:href="../../d2/d96/classde_1_1backxtar_1_1clevercharge_1_1managers_1_1_station_manager.html#a84363e55138545c015867ac16fa9c50a" target="_top" xlink:title=" ">
<polygon fill="white" stroke="black" points="209,-24.5 209,-54.5 382,-54.5 382,-24.5 209,-24.5"/>
<text text-anchor="start" x="217" y="-42.5" font-family="Helvetica,sans-Serif" font-size="10.00">de.backxtar.clevercharge.managers.</text>
<text text-anchor="middle" x="295.5" y="-31.5" font-family="Helvetica,sans-Serif" font-size="10.00">StationManager.getDefects</text>
</a>
</g>
</g>
<!-- Node1&#45;&gt;Node2 -->
<g id="edge1" class="edge">
<title>Node1&#45;&gt;Node2</title>
<path fill="none" stroke="midnightblue" d="M173.19,-39.5C181.66,-39.5 190.3,-39.5 198.87,-39.5"/>
<polygon fill="midnightblue" stroke="midnightblue" points="198.88,-43 208.88,-39.5 198.88,-36 198.88,-43"/>
</g>
<!-- Node3 -->
<g id="node3" class="node">
<title>Node3</title>
<g id="a_node3"><a xlink:href="../../de/d7e/classde_1_1backxtar_1_1clevercharge_1_1managers_1_1_user_manager.html#aa4e7c73b0bb07f0dcf5a612f9bce416a" target="_top" xlink:title=" ">
<polygon fill="white" stroke="black" points="423.5,-49.5 423.5,-79.5 596.5,-79.5 596.5,-49.5 423.5,-49.5"/>
<text text-anchor="start" x="431.5" y="-67.5" font-family="Helvetica,sans-Serif" font-size="10.00">de.backxtar.clevercharge.managers.</text>
<text text-anchor="middle" x="510" y="-56.5" font-family="Helvetica,sans-Serif" font-size="10.00">UserManager.getApi_data</text>
</a>
</g>
</g>
<!-- Node2&#45;&gt;Node3 -->
<g id="edge2" class="edge">
<title>Node2&#45;&gt;Node3</title>
<path fill="none" stroke="midnightblue" d="M382.01,-49.56C392.33,-50.77 402.91,-52.02 413.36,-53.25"/>
<polygon fill="midnightblue" stroke="midnightblue" points="412.98,-56.73 423.32,-54.42 413.79,-49.77 412.98,-56.73"/>
</g>
<!-- Node4 -->
<g id="node4" class="node">
<title>Node4</title>
<g id="a_node4"><a xlink:href="../../d0/dbd/classde_1_1backxtar_1_1clevercharge_1_1data_1_1_a_p_i_response.html#a6a9d3a50e360265ecef575ebfaefcc4c" target="_top" xlink:title=" ">
<polygon fill="white" stroke="black" points="418,-0.5 418,-30.5 602,-30.5 602,-0.5 418,-0.5"/>
<text text-anchor="start" x="426" y="-18.5" font-family="Helvetica,sans-Serif" font-size="10.00">de.backxtar.clevercharge.data.</text>
<text text-anchor="middle" x="510" y="-7.5" font-family="Helvetica,sans-Serif" font-size="10.00">APIResponse.getDefect_stations_map</text>
</a>
</g>
</g>
<!-- Node2&#45;&gt;Node4 -->
<g id="edge3" class="edge">
<title>Node2&#45;&gt;Node4</title>
<path fill="none" stroke="midnightblue" d="M382.01,-29.84C390.47,-28.89 399.11,-27.91 407.7,-26.94"/>
<polygon fill="midnightblue" stroke="midnightblue" points="408.21,-30.41 417.75,-25.81 407.43,-23.45 408.21,-30.41"/>
</g>
</g>
</svg>
