<?xml version="1.0" encoding="UTF-8" standalone="no"?>
<!DOCTYPE svg PUBLIC "-//W3C//DTD SVG 1.1//EN"
 "http://www.w3.org/Graphics/SVG/1.1/DTD/svg11.dtd">
<!-- Generated by graphviz version 2.50.0 (20211204.2007)
 -->
<!-- Title: de.backxtar.clevercharge.managers.StationManager.sort Pages: 1 -->
<svg width="390pt" height="88pt"
 viewBox="0.00 0.00 390.00 88.00" xmlns="http://www.w3.org/2000/svg" xmlns:xlink="http://www.w3.org/1999/xlink">
<g id="graph0" class="graph" transform="scale(1 1) rotate(0) translate(4 84)">
<title>de.backxtar.clevercharge.managers.StationManager.sort</title>
<polygon fill="white" stroke="transparent" points="-4,4 -4,-84 386,-84 386,4 -4,4"/>
<!-- Node1 -->
<g id="node1" class="node">
<title>Node1</title>
<g id="a_node1"><a xlink:title=" ">
<polygon fill="#bfbfbf" stroke="black" points="209,-24.5 209,-54.5 382,-54.5 382,-24.5 209,-24.5"/>
<text text-anchor="start" x="217" y="-42.5" font-family="Helvetica,sans-Serif" font-size="10.00">de.backxtar.clevercharge.managers.</text>
<text text-anchor="middle" x="295.5" y="-31.5" font-family="Helvetica,sans-Serif" font-size="10.00">StationManager.sort</text>
</a>
</g>
</g>
<!-- Node2 -->
<g id="node2" class="node">
<title>Node2</title>
<g id="a_node2"><a xlink:href="../../dc/d44/classde_1_1backxtar_1_1clevercharge_1_1fragments_main_1_1_home_fragment.html#ac651aa3626b3c2c947551bf7e390b742" target="_top" xlink:title=" ">
<polygon fill="white" stroke="black" points="1.5,-49.5 1.5,-79.5 171.5,-79.5 171.5,-49.5 1.5,-49.5"/>
<text text-anchor="start" x="9.5" y="-67.5" font-family="Helvetica,sans-Serif" font-size="10.00">de.backxtar.clevercharge.fragments</text>
<text text-anchor="middle" x="86.5" y="-56.5" font-family="Helvetica,sans-Serif" font-size="10.00">Main.HomeFragment.onCreateView</text>
</a>
</g>
</g>
<!-- Node1&#45;&gt;Node2 -->
<g id="edge1" class="edge">
<title>Node1&#45;&gt;Node2</title>
<path fill="none" stroke="midnightblue" d="M198.71,-51.07C189.73,-52.15 180.66,-53.25 171.79,-54.32"/>
<polygon fill="midnightblue" stroke="midnightblue" points="199.3,-54.52 208.81,-49.85 198.46,-47.57 199.3,-54.52"/>
</g>
<!-- Node3 -->
<g id="node3" class="node">
<title>Node3</title>
<g id="a_node3"><a xlink:href="../../d2/d96/classde_1_1backxtar_1_1clevercharge_1_1managers_1_1_station_manager.html#ab26276092c693a031e875316ddb1eb0b" target="_top" xlink:title=" ">
<polygon fill="white" stroke="black" points="0,-0.5 0,-30.5 173,-30.5 173,-0.5 0,-0.5"/>
<text text-anchor="start" x="8" y="-18.5" font-family="Helvetica,sans-Serif" font-size="10.00">de.backxtar.clevercharge.managers.</text>
<text text-anchor="middle" x="86.5" y="-7.5" font-family="Helvetica,sans-Serif" font-size="10.00">StationManager.sortByFavAndLocal</text>
</a>
</g>
</g>
<!-- Node1&#45;&gt;Node3 -->
<g id="edge2" class="edge">
<title>Node1&#45;&gt;Node3</title>
<path fill="none" stroke="midnightblue" d="M198.8,-28.4C190.24,-27.41 181.6,-26.41 173.12,-25.43"/>
<polygon fill="midnightblue" stroke="midnightblue" points="198.47,-31.89 208.81,-29.57 199.28,-24.94 198.47,-31.89"/>
</g>
</g>
</svg>
