<?xml version="1.0" encoding="UTF-8" standalone="no"?>
<!DOCTYPE svg PUBLIC "-//W3C//DTD SVG 1.1//EN"
 "http://www.w3.org/Graphics/SVG/1.1/DTD/svg11.dtd">
<!-- Generated by graphviz version 2.50.0 (20211204.2007)
 -->
<!-- Title: de.backxtar.clevercharge.fragmentsMain.SearchFragment.onCreateView Pages: 1 -->
<svg width="393pt" height="88pt"
 viewBox="0.00 0.00 393.00 88.00" xmlns="http://www.w3.org/2000/svg" xmlns:xlink="http://www.w3.org/1999/xlink">
<g id="graph0" class="graph" transform="scale(1 1) rotate(0) translate(4 84)">
<title>de.backxtar.clevercharge.fragmentsMain.SearchFragment.onCreateView</title>
<polygon fill="white" stroke="transparent" points="-4,4 -4,-84 389,-84 389,4 -4,4"/>
<!-- Node1 -->
<g id="node1" class="node">
<title>Node1</title>
<g id="a_node1"><a xlink:title=" ">
<polygon fill="#bfbfbf" stroke="black" points="0,-24.5 0,-54.5 176,-54.5 176,-24.5 0,-24.5"/>
<text text-anchor="start" x="8" y="-42.5" font-family="Helvetica,sans-Serif" font-size="10.00">de.backxtar.clevercharge.fragments</text>
<text text-anchor="middle" x="88" y="-31.5" font-family="Helvetica,sans-Serif" font-size="10.00">Main.SearchFragment.onCreateView</text>
</a>
</g>
</g>
<!-- Node2 -->
<g id="node2" class="node">
<title>Node2</title>
<g id="a_node2"><a xlink:href="$d2/d96/classde_1_1backxtar_1_1clevercharge_1_1managers_1_1_station_manager.html#a0d8c6d5bcd2802d6ca42942c5a129825" xlink:title=" ">
<polygon fill="white" stroke="black" points="212,-49.5 212,-79.5 385,-79.5 385,-49.5 212,-49.5"/>
<text text-anchor="start" x="220" y="-67.5" font-family="Helvetica,sans-Serif" font-size="10.00">de.backxtar.clevercharge.managers.</text>
<text text-anchor="middle" x="298.5" y="-56.5" font-family="Helvetica,sans-Serif" font-size="10.00">StationManager.getSortByDistance</text>
</a>
</g>
</g>
<!-- Node1&#45;&gt;Node2 -->
<g id="edge1" class="edge">
<title>Node1&#45;&gt;Node2</title>
<path fill="none" stroke="midnightblue" d="M176.21,-49.96C184.72,-50.98 193.37,-52.01 201.95,-53.04"/>
<polygon fill="midnightblue" stroke="midnightblue" points="201.63,-56.53 211.97,-54.24 202.46,-49.58 201.63,-56.53"/>
</g>
<!-- Node3 -->
<g id="node3" class="node">
<title>Node3</title>
<g id="a_node3"><a xlink:href="$d2/d96/classde_1_1backxtar_1_1clevercharge_1_1managers_1_1_station_manager.html#a4a644c181d0abc0d2c021f18bee25c41" xlink:title=" ">
<polygon fill="white" stroke="black" points="212,-0.5 212,-30.5 385,-30.5 385,-0.5 212,-0.5"/>
<text text-anchor="start" x="220" y="-18.5" font-family="Helvetica,sans-Serif" font-size="10.00">de.backxtar.clevercharge.managers.</text>
<text text-anchor="middle" x="298.5" y="-7.5" font-family="Helvetica,sans-Serif" font-size="10.00">StationManager.getStation_list</text>
</a>
</g>
</g>
<!-- Node1&#45;&gt;Node3 -->
<g id="edge2" class="edge">
<title>Node1&#45;&gt;Node3</title>
<path fill="none" stroke="midnightblue" d="M176.21,-29.46C184.72,-28.48 193.37,-27.49 201.95,-26.5"/>
<polygon fill="midnightblue" stroke="midnightblue" points="202.44,-29.97 211.97,-25.35 201.64,-23.01 202.44,-29.97"/>
</g>
</g>
</svg>
