<?xml version="1.0" encoding="UTF-8" standalone="no"?>
<!DOCTYPE svg PUBLIC "-//W3C//DTD SVG 1.1//EN"
 "http://www.w3.org/Graphics/SVG/1.1/DTD/svg11.dtd">
<!-- Generated by graphviz version 2.50.0 (20211204.2007)
 -->
<!-- Title: de.backxtar.clevercharge.data.ArticleAdapter.ViewHolder Pages: 1 -->
<svg width="157pt" height="171pt"
 viewBox="0.00 0.00 157.00 171.00" xmlns="http://www.w3.org/2000/svg" xmlns:xlink="http://www.w3.org/1999/xlink">
<g id="graph0" class="graph" transform="scale(1 1) rotate(0) translate(4 167)">
<title>de.backxtar.clevercharge.data.ArticleAdapter.ViewHolder</title>
<polygon fill="white" stroke="transparent" points="-4,4 -4,-167 153,-167 153,4 -4,4"/>
<!-- Node1 -->
<g id="node1" class="node">
<title>Node1</title>
<g id="a_node1"><a xlink:title=" ">
<polygon fill="#bfbfbf" stroke="black" points="0,-0.5 0,-68.5 149,-68.5 149,-0.5 0,-0.5"/>
<text text-anchor="start" x="8" y="-56.5" font-family="Helvetica,sans-Serif" font-size="10.00">de.backxtar.clevercharge.data.</text>
<text text-anchor="middle" x="74.5" y="-45.5" font-family="Helvetica,sans-Serif" font-size="10.00">ArticleAdapter.ViewHolder</text>
<polyline fill="none" stroke="black" points="0,-38.5 149,-38.5 "/>
<text text-anchor="middle" x="74.5" y="-26.5" font-family="Helvetica,sans-Serif" font-size="10.00"> </text>
<polyline fill="none" stroke="black" points="0,-19.5 149,-19.5 "/>
<text text-anchor="start" x="8" y="-7.5" font-family="Helvetica,sans-Serif" font-size="10.00">+ ViewHolder()</text>
</a>
</g>
</g>
<!-- Node2 -->
<g id="node2" class="node">
<title>Node2</title>
<g id="a_node2"><a xlink:title=" ">
<polygon fill="white" stroke="black" points="9,-105.5 9,-162.5 140,-162.5 140,-105.5 9,-105.5"/>
<text text-anchor="middle" x="74.5" y="-150.5" font-family="Helvetica,sans-Serif" font-size="10.00">RecyclerView::ViewHolder</text>
<polyline fill="none" stroke="black" points="9,-143.5 140,-143.5 "/>
<text text-anchor="middle" x="74.5" y="-131.5" font-family="Helvetica,sans-Serif" font-size="10.00"> </text>
<polyline fill="none" stroke="black" points="9,-124.5 140,-124.5 "/>
<text text-anchor="middle" x="74.5" y="-112.5" font-family="Helvetica,sans-Serif" font-size="10.00"> </text>
</a>
</g>
</g>
<!-- Node2&#45;&gt;Node1 -->
<g id="edge1" class="edge">
<title>Node2&#45;&gt;Node1</title>
<path fill="none" stroke="midnightblue" d="M74.5,-95.06C74.5,-86.39 74.5,-77.24 74.5,-68.79"/>
<polygon fill="none" stroke="midnightblue" points="71,-95.32 74.5,-105.32 78,-95.32 71,-95.32"/>
</g>
</g>
</svg>
